<svg xmlns="http://www.w3.org/2000/svg" viewBox="0 0 30.96 32.99" fill="#fff"><title>Cap_High</title><g data-name="Three People"><path d="M3.1 3.71A3.72 3.72 0 1 0 6.82 0 3.72 3.72 0 0 0 3.1 3.71M11.64 3.71A3.72 3.72 0 1 0 15.36 0a3.72 3.72 0 0 0-3.72 3.71M20.19 3.71A3.72 3.72 0 1 0 23.91 0a3.72 3.72 0 0 0-3.72 3.71M10.7 8.77a1.64 1.64 0 0 0-1.64 1.64v9.36a1.64 1.64 0 0 0 1.64 1.64h.5V33h8.7V21.41h.7a1.64 1.64 0 0 0 1.63-1.64v-9.36a1.64 1.64 0 0 0-1.63-1.64z"/><path d="M10.7 8.77a1.64 1.64 0 0 0-1.64 1.64v9.36a1.64 1.64 0 0 0 1.64 1.64h.5V33h8.7V21.41h.7a1.63 1.63 0 0 0 1.63-1.64v-9.36a1.64 1.64 0 0 0-1.63-1.64zM1.64 8.77A1.64 1.64 0 0 0 0 10.41v9.36a1.64 1.64 0 0 0 1.64 1.64h.5V33h6.75v-9.72a4 4 0 0 1-2.15-3.51v-9.36a3.89 3.89 0 0 1 .37-1.64z"/><path d="M1.64 8.77A1.64 1.64 0 0 0 0 10.41v9.36a1.64 1.64 0 0 0 1.64 1.64h.5V33h6.75v-9.72a4 4 0 0 1-2.14-3.51v-9.36a3.86 3.86 0 0 1 .37-1.64zM24.19 8.77a3.89 3.89 0 0 1 .37 1.64v9.36a4 4 0 0 1-2.34 3.6V33h6.41V21.41h.69A1.63 1.63 0 0 0 31 19.77v-9.36a1.64 1.64 0 0 0-1.64-1.64z"/><path d="M24.19 8.77a3.92 3.92 0 0 1 .36 1.64v9.36a4 4 0 0 1-2.33 3.6V33h6.41V21.41h.69A1.63 1.63 0 0 0 31 19.77v-9.36a1.64 1.64 0 0 0-1.64-1.64z"/></g></svg>