<svg xmlns="http://www.w3.org/2000/svg" viewBox="0 0 21.91 32.99" fill="#fff"><title>Cap_Medium</title><g data-name="Two People"><path d="M2.59 3.71A3.72 3.72 0 1 0 6.31 0a3.72 3.72 0 0 0-3.72 3.71M11.14 3.71A3.72 3.72 0 1 0 14.86 0a3.72 3.72 0 0 0-3.72 3.71M1.64 8.77A1.64 1.64 0 0 0 0 10.41v9.36a1.64 1.64 0 0 0 1.64 1.64h.5V33h8.71V21.41h.7a1.64 1.64 0 0 0 1.63-1.64v-9.36a1.64 1.64 0 0 0-1.63-1.64zM15.13 8.77a3.89 3.89 0 0 1 .37 1.64v9.36a4 4 0 0 1-2.34 3.6V33h6.41V21.41h.69a1.63 1.63 0 0 0 1.64-1.64v-9.36a1.64 1.64 0 0 0-1.64-1.64z"/></g></svg>
