<svg xmlns="http://www.w3.org/2000/svg" viewBox="0 0 13.15 32.91" fill="#fff"><title>Cap_Low</title><g data-name="One Person"><path d="M2.87 3.7A3.71 3.71 0 1 0 6.58 0a3.71 3.71 0 0 0-3.71 3.7M1.64 8.75A1.64 1.64 0 0 0 0 10.38v9.33a1.63 1.63 0 0 0 1.64 1.64h.5V32.9h8.69V21.35h.7a1.63 1.63 0 0 0 1.63-1.64v-9.33a1.64 1.64 0 0 0-1.63-1.64z"/><path d="M1.64 8.75A1.64 1.64 0 0 0 0 10.38v9.33a1.63 1.63 0 0 0 1.64 1.64h.5v11.56h8.69V21.35h.7a1.63 1.63 0 0 0 1.63-1.64v-9.33a1.64 1.64 0 0 0-1.63-1.64z"/></g></svg>