<?xml version="1.0"?>
<svg xmlns="http://www.w3.org/2000/svg" xmlns:xlink="http://www.w3.org/1999/xlink" version="1.1" id="Capa_1" x="0px" y="0px" viewBox="0 0 512 512" style="enable-background:new 0 0 512 512;" xml:space="preserve" width="512px" height="512px" class=""><g><g>
	<polygon style="fill:#3F4347;" points="103.168,319.696 17.376,233.888 17.376,201.072 31.04,201.072 31.04,228.224    112.832,310.032  " data-original="#3F4347" class=""/>
	<polygon style="fill:#3F4347;" points="408.896,319.696 399.232,310.032 481.024,228.224 481.024,201.072 494.688,201.072    494.688,233.888  " data-original="#3F4347" class=""/>
	<path style="fill:#3F4347;" d="M135.408,483.408H85.856c-8.272,0-14.976-6.704-14.976-14.976v-32.816h79.504v32.816   C150.384,476.704,143.68,483.408,135.408,483.408z" data-original="#3F4347" class=""/>
	<path style="fill:#3F4347;" d="M426.224,483.408h-49.568c-8.272,0-14.976-6.704-14.976-14.976v-32.816h79.52v32.816   C441.2,476.704,434.496,483.408,426.224,483.408z" data-original="#3F4347" class=""/>
</g><path style="fill:#FFD83B;" d="M441.2,369.296H70.88V88.24c0-32.944,26.704-59.648,59.648-59.648h251.008  c32.944,0,59.664,26.704,59.664,59.648V369.296z" data-original="#FFD83B" class=""/><g>
	<path style="fill:#1D1C1C" d="M512,148.736v60.416c0,5.712-4.592,10.304-10.304,10.304h-27.744   c-5.712,0-10.304-4.592-10.304-10.304v-60.416c0-5.712,4.592-10.304,10.304-10.304h27.744C507.408,138.432,512,143.024,512,148.736   z" data-original="#E14B4B" class="active-path" data-old_color="#E14B4B"/>
	<path style="fill:#1D1C1C" d="M48.368,148.736v60.416c0,5.712-4.592,10.304-10.304,10.304h-27.76   C4.592,219.456,0,214.848,0,209.152v-60.416c0-5.712,4.592-10.304,10.304-10.304h27.744   C43.76,138.432,48.368,143.024,48.368,148.736z" data-original="#E14B4B" class="active-path" data-old_color="#E14B4B"/>
</g><path style="fill:#3E4347;" d="M98.208,128.08V238.4c0,8.752,7.104,15.856,15.856,15.856H398c8.752,0,15.856-7.104,15.856-15.856  V128.08c0-8.752-7.104-15.856-15.856-15.856H114.064C105.312,112.224,98.208,119.328,98.208,128.08z" data-original="#3E4347" class=""/><g>
	<path style="fill:#E8AF2A;" d="M317.488,89.072H194.576c-10.304,0-18.672-8.352-18.672-18.672l0,0   c0-10.304,8.352-18.672,18.672-18.672h122.912c10.304,0,18.672,8.352,18.672,18.672l0,0   C336.16,80.72,327.808,89.072,317.488,89.072z" data-original="#E8AF2A" class=""/>
	<path style="fill:#E8AF2A;" d="M459.312,398.656H52.752V325.12c0-17.68,14.32-32,32-32h342.56c17.68,0,32,14.32,32,32V398.656z" data-original="#E8AF2A" class=""/>
</g><g>
	<path style="fill:#5A5F63;" d="M443.312,435.632H68.752c-8.832,0-16-7.168-16-16v-20.96h406.56v20.96   C459.312,428.464,452.144,435.632,443.312,435.632z" data-original="#5A5F63" class=""/>
	<path style="fill:#5A5F63;" d="M240.32,112.288L103.008,249.6c-2.848-2.688-4.752-6.816-4.752-11.264v-1.104L223.2,112.288   C223.2,112.288,240.32,112.288,240.32,112.288z" data-original="#5A5F63" class=""/>
	<polygon style="fill:#5A5F63;" points="291.696,112.288 149.776,254.192 115.056,254.192 257.12,112.288  " data-original="#5A5F63" class=""/>
</g><g>
	<circle style="fill:#FFFFFF" cx="137.536" cy="352.16" r="32.496" data-original="#FFFFFF" class="" data-old_color="#FFFFFF"/>
	<circle style="fill:#FFFFFF" cx="374.528" cy="352.16" r="32.496" data-original="#FFFFFF" class="" data-old_color="#FFFFFF"/>
</g></g> </svg>
