<svg width="6858" height="3190" viewBox="0 0 6858 3190" fill="none" xmlns="http://www.w3.org/2000/svg">
<g clip-path="url(#clip0)">
<circle cx="3970.51" cy="2395.08" r="124.288" fill="#468AB5"/>
<path d="M3878.36 2415.47L3875.37 2407.96L3935.65 2403.7L3938.59 2411.14L3878.36 2415.47Z" fill="white"/>
<path opacity="0.15" d="M3878.36 2415.47L3875.37 2407.96L3935.65 2403.7L3938.59 2411.14L3878.36 2415.47Z" fill="black"/>
<path d="M3874.34 2415.71L3871.35 2408.2L3931.63 2403.94L3934.57 2411.38L3874.34 2415.71Z" fill="white"/>
<path d="M3976.59 2397.79C3970.35 2398.16 3965.29 2396 3961.39 2391.3C3957.5 2386.59 3955.33 2380.75 3954.9 2373.75C3954.47 2366.71 3955.84 2360.66 3959.02 2355.6C3962.2 2350.55 3966.95 2347.84 3973.28 2347.46C3979.99 2347.06 3985.21 2349.31 3988.92 2354.22C3992.64 2359.12 3994.7 2364.93 3995.12 2371.64C3995.53 2378.31 3994.12 2384.24 3990.91 2389.43C3987.69 2394.63 3982.92 2397.42 3976.59 2397.79ZM3976.43 2392.25C3980.54 2392.01 3983.49 2390.05 3985.31 2386.37C3987.12 2382.7 3987.86 2378.16 3987.53 2372.76C3987.16 2366.74 3985.81 2361.88 3983.5 2358.17C3981.19 2354.46 3977.88 2352.73 3973.59 2352.98C3965.42 2353.47 3961.74 2360.16 3962.53 2373.04C3963.35 2386.35 3967.98 2392.76 3976.43 2392.25L3976.43 2392.25ZM3981.74 2445.1L3972.72 2445.64L4025.83 2345.31L4034.68 2344.79L3981.74 2445.1ZM4034.05 2442.97C4027.72 2443.35 4022.63 2441.16 4018.79 2436.41C4014.94 2431.66 4012.8 2425.81 4012.36 2418.86C4011.93 2411.86 4013.29 2405.84 4016.44 2400.79C4019.59 2395.73 4024.36 2393.02 4030.74 2392.64C4037.4 2392.25 4042.58 2394.5 4046.27 2399.4C4049.97 2404.31 4052.02 2410.12 4052.43 2416.83C4052.84 2423.45 4051.45 2429.37 4048.26 2434.59C4045.07 2439.8 4040.33 2442.6 4034.05 2442.97L4034.05 2442.97ZM4033.81 2437.29C4037.89 2437.05 4040.83 2435.12 4042.64 2431.51C4044.44 2427.9 4045.17 2423.38 4044.84 2417.95C4044.48 2412.14 4043.16 2407.33 4040.88 2403.52C4038.6 2399.7 4035.29 2397.92 4030.98 2398.17C4022.76 2398.66 4019.05 2405.35 4019.84 2418.23C4020.65 2431.45 4025.31 2437.8 4033.8 2437.29L4033.81 2437.29Z" fill="white"/>
<path d="M3976.59 2397.79C3970.35 2398.16 3965.29 2396 3961.39 2391.3C3957.5 2386.59 3955.33 2380.75 3954.9 2373.75C3954.47 2366.71 3955.84 2360.66 3959.02 2355.6C3962.2 2350.55 3966.95 2347.84 3973.28 2347.46C3979.99 2347.06 3985.21 2349.31 3988.92 2354.22C3992.64 2359.12 3994.7 2364.93 3995.12 2371.64C3995.53 2378.31 3994.12 2384.24 3990.91 2389.43C3987.69 2394.63 3982.92 2397.42 3976.59 2397.79ZM3976.43 2392.25C3980.54 2392.01 3983.49 2390.05 3985.31 2386.37C3987.12 2382.7 3987.86 2378.16 3987.53 2372.76C3987.16 2366.74 3985.81 2361.88 3983.5 2358.17C3981.19 2354.46 3977.88 2352.73 3973.59 2352.98C3965.42 2353.47 3961.74 2360.16 3962.53 2373.04C3963.35 2386.35 3967.98 2392.76 3976.43 2392.25L3976.43 2392.25ZM3981.74 2445.1L3972.72 2445.64L4025.83 2345.31L4034.68 2344.79L3981.74 2445.1ZM4034.05 2442.97C4027.72 2443.35 4022.63 2441.16 4018.79 2436.41C4014.94 2431.66 4012.8 2425.81 4012.36 2418.86C4011.93 2411.86 4013.29 2405.84 4016.44 2400.79C4019.59 2395.73 4024.36 2393.02 4030.74 2392.64C4037.4 2392.25 4042.58 2394.5 4046.27 2399.4C4049.97 2404.31 4052.02 2410.12 4052.43 2416.83C4052.84 2423.45 4051.45 2429.37 4048.26 2434.59C4045.07 2439.8 4040.33 2442.6 4034.05 2442.97L4034.05 2442.97ZM4033.81 2437.29C4037.89 2437.05 4040.83 2435.12 4042.64 2431.51C4044.44 2427.9 4045.17 2423.38 4044.84 2417.95C4044.48 2412.14 4043.16 2407.33 4040.88 2403.52C4038.6 2399.7 4035.29 2397.92 4030.98 2398.17C4022.76 2398.66 4019.05 2405.35 4019.84 2418.23C4020.65 2431.45 4025.31 2437.8 4033.8 2437.29L4033.81 2437.29Z" fill="white"/>
<path opacity="0.15" d="M3976.59 2397.79C3970.35 2398.16 3965.29 2396 3961.39 2391.3C3957.5 2386.59 3955.33 2380.75 3954.9 2373.75C3954.47 2366.71 3955.84 2360.66 3959.02 2355.6C3962.2 2350.55 3966.95 2347.84 3973.28 2347.46C3979.99 2347.06 3985.21 2349.31 3988.92 2354.22C3992.64 2359.12 3994.7 2364.93 3995.12 2371.64C3995.53 2378.31 3994.12 2384.24 3990.91 2389.43C3987.69 2394.63 3982.92 2397.42 3976.59 2397.79ZM3976.43 2392.25C3980.54 2392.01 3983.49 2390.05 3985.31 2386.37C3987.12 2382.7 3987.86 2378.16 3987.53 2372.76C3987.16 2366.74 3985.81 2361.88 3983.5 2358.17C3981.19 2354.46 3977.88 2352.73 3973.59 2352.98C3965.42 2353.47 3961.74 2360.16 3962.53 2373.04C3963.35 2386.35 3967.98 2392.76 3976.43 2392.25L3976.43 2392.25ZM3981.74 2445.1L3972.72 2445.64L4025.83 2345.31L4034.68 2344.79L3981.74 2445.1ZM4034.05 2442.97C4027.72 2443.35 4022.63 2441.16 4018.79 2436.41C4014.94 2431.66 4012.8 2425.81 4012.36 2418.86C4011.93 2411.86 4013.29 2405.84 4016.44 2400.79C4019.59 2395.73 4024.36 2393.02 4030.74 2392.64C4037.4 2392.25 4042.58 2394.5 4046.27 2399.4C4049.97 2404.31 4052.02 2410.12 4052.43 2416.83C4052.84 2423.45 4051.45 2429.37 4048.26 2434.59C4045.07 2439.8 4040.33 2442.6 4034.05 2442.97L4034.05 2442.97ZM4033.81 2437.29C4037.89 2437.05 4040.83 2435.12 4042.64 2431.51C4044.44 2427.9 4045.17 2423.38 4044.84 2417.95C4044.48 2412.14 4043.16 2407.33 4040.88 2403.52C4038.6 2399.7 4035.29 2397.92 4030.98 2398.17C4022.76 2398.66 4019.05 2405.35 4019.84 2418.23C4020.65 2431.45 4025.31 2437.8 4033.8 2437.29L4033.81 2437.29Z" fill="black"/>
<path d="M3970.92 2398.13C3964.69 2398.5 3959.62 2396.34 3955.73 2391.64C3951.83 2386.93 3949.67 2381.08 3949.24 2374.09C3948.8 2367.04 3950.18 2361 3953.35 2355.94C3956.53 2350.89 3961.28 2348.18 3967.61 2347.8C3974.33 2347.4 3979.54 2349.65 3983.26 2354.55C3986.97 2359.46 3989.04 2365.27 3989.45 2371.98C3989.86 2378.64 3988.46 2384.57 3985.24 2389.77C3982.03 2394.97 3977.26 2397.76 3970.92 2398.13ZM3970.77 2392.59C3974.87 2392.34 3977.83 2390.38 3979.64 2386.71C3981.45 2383.04 3982.19 2378.5 3981.86 2373.1C3981.49 2367.08 3980.15 2362.22 3977.83 2358.51C3975.52 2354.8 3972.22 2353.07 3967.92 2353.32C3959.76 2353.81 3956.07 2360.49 3956.86 2373.38C3957.68 2386.69 3962.31 2393.09 3970.76 2392.59L3970.77 2392.59ZM3976.08 2445.44L3967.06 2445.97L4020.16 2345.65L4029.01 2345.12L3976.08 2445.44ZM4028.38 2443.31C4022.05 2443.69 4016.97 2441.5 4013.12 2436.75C4009.27 2432 4007.13 2426.15 4006.69 2419.2C4006.26 2412.2 4007.62 2406.18 4010.77 2401.12C4013.93 2396.07 4018.69 2393.36 4025.07 2392.98C4031.74 2392.58 4036.91 2394.84 4040.61 2399.74C4044.3 2404.65 4046.35 2410.45 4046.77 2417.17C4047.18 2423.79 4045.78 2429.71 4042.59 2434.92C4039.4 2440.14 4034.66 2442.94 4028.38 2443.31L4028.38 2443.31ZM4028.14 2437.63C4032.22 2437.39 4035.17 2435.46 4036.97 2431.85C4038.77 2428.23 4039.51 2423.71 4039.17 2418.29C4038.81 2412.48 4037.49 2407.67 4035.21 2403.85C4032.93 2400.04 4029.63 2398.26 4025.31 2398.51C4017.09 2399 4013.38 2405.69 4014.17 2418.57C4014.99 2431.79 4019.64 2438.14 4028.14 2437.63L4028.14 2437.63Z" fill="white"/>
<path d="M3851.07 2015.44C3939.47 2027.73 4021.23 1967.05 4033.7 1879.92C4046.16 1792.78 3984.6 1712.19 3896.2 1699.9C3807.8 1687.62 3726.03 1748.29 3713.57 1835.43C3701.1 1922.56 3762.66 2003.16 3851.07 2015.44Z" fill="#398CC3"/>
<path d="M3976.64 1856.09L3891.67 1844.29L3903.65 1760.53L3872.03 1756.14L3860.05 1839.89L3775.08 1828.08L3770.62 1859.25L3855.6 1871.06L3843.61 1954.81L3875.23 1959.21L3887.21 1875.45L3972.19 1887.26L3976.64 1856.09Z" fill="white"/>
<path d="M6503.47 1658.12L6504.92 1645.78C6505.99 1636.7 6503.36 1627.56 6497.6 1620.36C6491.84 1613.17 6483.44 1608.51 6474.23 1607.41L5980.1 1548.57C5970.89 1547.47 5961.63 1550.02 5954.36 1555.67C5947.09 1561.31 5942.4 1569.58 5941.33 1578.66L5938.64 1601.41L6503.47 1658.12Z" fill="#33323D"/>
<path d="M6591.46 1259.8L6140.28 1398.06C6130.11 1401.17 6123.98 1413.18 6126.58 1424.87L6193.5 1725.11C6196.11 1736.81 6206.47 1743.76 6216.64 1740.64L6667.82 1602.38C6677.99 1599.26 6684.13 1587.26 6681.52 1575.57L6614.6 1275.33C6612 1263.63 6601.64 1256.68 6591.46 1259.8Z" fill="url(#paint0_linear)"/>
<path d="M6588.96 1264.37L6147.74 1399.58C6137.56 1402.7 6131.43 1414.7 6134.04 1426.4L6198.25 1714.51C6200.86 1726.2 6211.22 1733.15 6221.39 1730.04L6662.61 1594.83C6672.78 1591.71 6678.92 1579.71 6676.31 1568.02L6612.1 1279.9C6609.49 1268.21 6599.13 1261.26 6588.96 1264.37Z" fill="white"/>
<path d="M6617.08 1302.28L6139.02 1448.77L6149.59 1496.16L6627.65 1349.67L6617.08 1302.28Z" fill="#398CC3"/>
<path d="M6348.62 1625.37L6227.15 1662.59L6231.72 1683.08L6353.19 1645.86L6348.62 1625.37Z" fill="#BDBDBD"/>
<path d="M6430.06 1563.47L6219.45 1628.01L6224.01 1648.5L6434.63 1583.96L6430.06 1563.47Z" fill="#E0E0E0"/>
<path d="M6739.1 1452.27L6271.11 1430.29C6260.62 1429.8 6251.69 1439.2 6251.16 1451.29L6237.54 1762.11C6237.01 1774.2 6245.08 1784.4 6255.57 1784.89L6723.56 1806.88C6734.05 1807.37 6742.98 1797.97 6743.51 1785.88L6757.13 1475.06C6757.66 1462.97 6749.59 1452.77 6739.1 1452.27Z" fill="url(#paint1_linear)"/>
<path d="M6731.59 1455.54L6276.7 1434.18C6266.21 1433.68 6257.28 1443.09 6256.75 1455.18L6243.69 1753.11C6243.16 1765.2 6251.23 1775.4 6261.72 1775.89L6716.61 1797.26C6727.1 1797.75 6736.03 1788.35 6736.56 1776.26L6749.62 1478.33C6750.15 1466.24 6742.08 1456.04 6731.59 1455.54Z" fill="white"/>
<path d="M6382.01 1605.35L6367.64 1604.68L6365.58 1651.7L6379.94 1652.37L6382.01 1605.35Z" fill="#E0E0E0"/>
<path d="M6400.39 1606.22L6386.03 1605.54L6383.97 1652.56L6398.33 1653.24L6400.39 1606.22Z" fill="#E0E0E0"/>
<path d="M6418.77 1607.08L6404.41 1606.41L6402.35 1653.42L6416.71 1654.1L6418.77 1607.08Z" fill="#E0E0E0"/>
<path d="M6450.94 1608.59L6436.58 1607.92L6434.52 1654.94L6448.88 1655.61L6450.94 1608.59Z" fill="#E0E0E0"/>
<path d="M6469.32 1609.45L6454.96 1608.78L6452.9 1655.8L6467.26 1656.47L6469.32 1609.45Z" fill="#E0E0E0"/>
<path d="M6487.7 1610.32L6473.34 1609.64L6471.28 1656.66L6485.64 1657.34L6487.7 1610.32Z" fill="#E0E0E0"/>
<path d="M6519.87 1611.83L6505.51 1611.15L6503.45 1658.17L6517.81 1658.85L6519.87 1611.83Z" fill="#E0E0E0"/>
<path d="M6538.25 1612.69L6523.89 1612.02L6521.83 1659.04L6536.19 1659.71L6538.25 1612.69Z" fill="#E0E0E0"/>
<path d="M6556.64 1613.56L6542.27 1612.88L6540.21 1659.9L6554.57 1660.58L6556.64 1613.56Z" fill="#E0E0E0"/>
<path d="M6588.8 1615.07L6574.44 1614.39L6572.38 1661.41L6586.74 1662.09L6588.8 1615.07Z" fill="#E0E0E0"/>
<path d="M6607.19 1615.93L6592.83 1615.26L6590.76 1662.28L6605.13 1662.95L6607.19 1615.93Z" fill="#E0E0E0"/>
<path d="M6625.57 1616.79L6611.21 1616.12L6609.15 1663.14L6623.51 1663.81L6625.57 1616.79Z" fill="#E0E0E0"/>
<path d="M6370.77 1528.3L6285.14 1524.28L6282.77 1578.42L6368.39 1582.44L6370.77 1528.3Z" fill="#398CC3"/>
<path opacity="0.1" d="M6662.68 1719.91L6610.2 1717.44L6607.54 1777.94L6660.03 1780.41L6662.68 1719.91Z" fill="#398CC3"/>
<path opacity="0.1" d="M6597.02 1706.79L6544.54 1704.33L6541.89 1764.83L6594.37 1767.29L6597.02 1706.79Z" fill="#398CC3"/>
<path opacity="0.1" d="M6515.49 1670.82L6475.06 2013.45C6474.6 2017.34 6473.37 2021.1 6471.43 2024.51C6469.5 2027.93 6466.9 2030.93 6463.78 2033.35C6460.67 2035.77 6457.09 2037.56 6453.27 2038.61C6449.45 2039.66 6445.45 2039.96 6441.5 2039.49L5924.7 1977.95C5916.73 1976.99 5909.46 1972.96 5904.48 1966.74C5899.51 1960.51 5897.23 1952.6 5898.16 1944.74L5942.67 1567.57C5956.84 1574.76 5956.84 1574.76 5972.12 1576.12L6488.92 1637.66C6496.88 1638.61 6504.15 1642.63 6509.14 1648.85C6514.12 1655.07 6516.4 1662.97 6515.49 1670.82V1670.82Z" fill="black"/>
<path d="M6514.86 1676.17L6474.43 2018.8C6473.5 2026.66 6469.44 2033.82 6463.15 2038.7C6456.85 2043.58 6448.84 2045.79 6440.87 2044.84L5924.07 1983.3C5916.1 1982.35 5908.83 1978.32 5903.85 1972.09C5898.87 1965.86 5896.6 1957.95 5897.53 1950.1L5942.04 1572.92C5956.21 1580.09 5956.21 1580.09 5971.49 1581.46L6488.29 1643.01C6496.26 1643.95 6503.53 1647.98 6508.51 1654.2C6513.49 1660.42 6515.77 1668.32 6514.86 1676.17V1676.17Z" fill="#504F60"/>
<path opacity="0.1" d="M6498.44 1802.67L6485.51 1912.24L6377.72 1899.4C6363.13 1897.47 6349.88 1889.95 6340.83 1878.48C6331.78 1867 6327.65 1852.49 6329.35 1838.09C6331.05 1823.68 6338.44 1810.55 6349.91 1801.51C6361.38 1792.48 6376.02 1788.29 6390.65 1789.83L6498.44 1802.67Z" fill="black"/>
<path d="M6500.26 1799.92L6487.32 1909.52L6379.53 1896.68C6364.95 1894.75 6351.69 1887.23 6342.64 1875.75C6333.59 1864.28 6329.47 1849.77 6331.17 1835.36C6332.87 1820.96 6340.25 1807.82 6351.72 1798.79C6363.19 1789.76 6377.83 1785.56 6392.46 1787.11L6500.26 1799.92Z" fill="#33323D"/>
<path opacity="0.1" d="M6388.3 1866.78C6400.27 1868.2 6411.1 1859.79 6412.49 1847.99C6413.88 1836.2 6405.31 1825.48 6393.34 1824.05C6381.38 1822.63 6370.54 1831.04 6369.15 1842.83C6367.76 1854.63 6376.33 1865.35 6388.3 1866.78Z" fill="black"/>
<path d="M6390.11 1864.05C6402.08 1865.48 6412.91 1857.07 6414.3 1845.27C6415.7 1833.47 6407.12 1822.75 6395.16 1821.33C6383.19 1819.9 6372.36 1828.31 6370.97 1840.11C6369.57 1851.91 6378.15 1862.63 6390.11 1864.05Z" fill="#398CC3"/>
<ellipse cx="1545.5" cy="1740" rx="104.5" ry="101" fill="white"/>
<path d="M1591.3 1721.52L1559.1 1712.86C1558.75 1712.76 1558.38 1712.81 1558.07 1712.99C1557.76 1713.16 1557.53 1713.46 1557.43 1713.8L1544.87 1759.13C1544.77 1759.47 1544.82 1759.84 1545 1760.15C1545.18 1760.46 1545.48 1760.68 1545.82 1760.78L1578.02 1769.44C1579.41 1769.81 1580.9 1769.63 1582.15 1768.92C1583.4 1768.22 1584.32 1767.05 1584.71 1765.68L1595.12 1728.12C1595.49 1726.75 1595.3 1725.28 1594.59 1724.05C1593.87 1722.81 1592.69 1721.9 1591.3 1721.52Z" fill="#398CC3"/>
<path d="M1568.1 1777.21C1566.56 1776.93 1564.98 1777.08 1563.53 1777.66C1562.08 1778.23 1560.83 1779.21 1559.92 1780.46C1559.02 1781.71 1558.49 1783.2 1558.42 1784.74C1558.34 1786.27 1558.71 1787.8 1559.48 1789.14C1560.26 1790.47 1561.4 1791.56 1562.79 1792.28C1564.17 1793 1565.73 1793.31 1567.29 1793.17C1568.84 1793.04 1570.33 1792.48 1571.57 1791.54C1572.81 1790.6 1573.75 1789.33 1574.28 1787.89C1574.68 1786.79 1574.84 1785.62 1574.74 1784.45C1574.63 1783.29 1574.28 1782.16 1573.69 1781.14C1573.1 1780.13 1572.3 1779.25 1571.33 1778.57C1570.36 1777.89 1569.26 1777.43 1568.1 1777.21V1777.21Z" fill="#398CC3"/>
<path d="M1505.06 1760.24C1503.53 1759.96 1501.94 1760.11 1500.49 1760.69C1499.04 1761.26 1497.79 1762.23 1496.89 1763.49C1495.98 1764.74 1495.46 1766.23 1495.38 1767.76C1495.3 1769.3 1495.67 1770.83 1496.45 1772.17C1497.22 1773.5 1498.37 1774.59 1499.75 1775.31C1501.13 1776.02 1502.69 1776.33 1504.25 1776.2C1505.81 1776.07 1507.29 1775.5 1508.53 1774.57C1509.77 1773.63 1510.71 1772.36 1511.24 1770.92C1511.65 1769.82 1511.8 1768.64 1511.7 1767.48C1511.6 1766.32 1511.24 1765.19 1510.65 1764.17C1510.06 1763.16 1509.26 1762.28 1508.29 1761.6C1507.33 1760.92 1506.23 1760.46 1505.06 1760.24V1760.24Z" fill="#398CC3"/>
<path d="M1547.28 1709.67L1515.15 1701.02C1513.74 1700.65 1512.24 1700.84 1510.97 1701.55C1509.7 1702.27 1508.77 1703.45 1508.38 1704.84L1498 1742.27C1497.62 1743.66 1497.82 1745.14 1498.54 1746.39C1499.27 1747.64 1500.46 1748.56 1501.87 1748.94L1534 1757.59C1534.35 1757.69 1534.72 1757.64 1535.03 1757.46C1535.34 1757.29 1535.57 1756.99 1535.67 1756.65L1548.23 1711.32C1548.33 1710.98 1548.28 1710.61 1548.1 1710.3C1547.92 1709.99 1547.63 1709.77 1547.28 1709.67V1709.67Z" fill="#398CC3"/>
<path d="M1574.84 1633.13C1553.45 1627.37 1530.8 1627.99 1509.76 1634.92C1488.72 1641.84 1470.24 1654.76 1456.66 1672.04C1443.07 1689.32 1434.98 1710.19 1433.43 1731.99C1431.87 1753.8 1436.91 1775.58 1447.9 1794.56C1458.9 1813.55 1475.36 1828.89 1495.21 1838.66C1515.05 1848.42 1537.39 1852.17 1559.39 1849.42C1581.4 1846.67 1602.08 1837.55 1618.83 1823.22C1635.57 1808.88 1647.63 1789.97 1653.48 1768.88C1661.31 1740.6 1657.43 1710.41 1642.69 1684.95C1627.94 1659.49 1603.54 1640.85 1574.84 1633.13V1633.13ZM1585.83 1797.29C1584.87 1800.72 1582.57 1803.64 1579.43 1805.4C1576.3 1807.17 1572.59 1807.64 1569.1 1806.71L1490.26 1785.48C1486.78 1784.53 1483.83 1782.27 1482.04 1779.18C1480.25 1776.09 1479.77 1772.43 1480.71 1768.99L1505.48 1679.63C1506.25 1676.89 1508.09 1674.56 1510.59 1673.14C1513.1 1671.73 1516.07 1671.36 1518.86 1672.1L1602.95 1694.74C1605.74 1695.5 1608.1 1697.31 1609.53 1699.78C1610.97 1702.25 1611.35 1705.18 1610.59 1707.93L1585.83 1797.29Z" fill="#398CC3"/>
<path d="M1596.83 1702.83L1519.96 1682.14C1519.34 1681.93 1518.69 1681.84 1518.03 1681.89C1517.38 1681.94 1516.74 1682.12 1516.16 1682.42C1515.58 1682.72 1515.07 1683.13 1514.66 1683.64C1514.25 1684.14 1513.95 1684.72 1513.78 1685.34C1513.61 1685.97 1513.56 1686.62 1513.66 1687.26C1513.75 1687.9 1513.98 1688.51 1514.32 1689.06C1514.67 1689.61 1515.12 1690.08 1515.66 1690.45C1516.2 1690.82 1516.81 1691.08 1517.45 1691.2L1594.32 1711.9C1594.93 1712.11 1595.59 1712.2 1596.24 1712.15C1596.9 1712.1 1597.53 1711.92 1598.11 1711.62C1598.69 1711.32 1599.2 1710.9 1599.62 1710.4C1600.03 1709.9 1600.33 1709.32 1600.5 1708.69C1600.67 1708.07 1600.71 1707.42 1600.62 1706.78C1600.53 1706.14 1600.3 1705.53 1599.95 1704.98C1599.61 1704.43 1599.16 1703.95 1598.62 1703.58C1598.08 1703.22 1597.47 1702.96 1596.83 1702.83V1702.83Z" fill="#398CC3"/>
<ellipse cx="1147.5" cy="1586" rx="104.5" ry="101" fill="white"/>
<path d="M1163.06 1589C1160.83 1589 1159 1592.34 1159 1596.5C1159 1600.66 1160.83 1604 1163.06 1604C1165.29 1604 1167.12 1600.66 1167.12 1596.5C1167.12 1592.34 1165.29 1589 1163.06 1589Z" fill="#398CC3"/>
<path d="M1130.59 1589C1128.36 1589 1126.53 1592.34 1126.53 1596.5C1126.53 1600.66 1128.36 1604 1130.59 1604C1132.82 1604 1134.65 1600.66 1134.65 1596.5C1134.65 1592.34 1132.82 1589 1130.59 1589Z" fill="#398CC3"/>
<path d="M1146.82 1470C1123.55 1470 1100.79 1476.8 1081.44 1489.55C1062.09 1502.3 1047 1520.41 1038.1 1541.61C1029.19 1562.8 1026.86 1586.13 1031.4 1608.63C1035.94 1631.13 1047.15 1651.8 1063.61 1668.02C1080.07 1684.25 1101.04 1695.3 1123.87 1699.77C1146.69 1704.25 1170.36 1701.95 1191.86 1693.17C1213.37 1684.39 1231.75 1669.52 1244.68 1650.45C1257.61 1631.37 1264.51 1608.94 1264.51 1586C1264.51 1555.23 1252.11 1525.73 1230.04 1503.98C1207.97 1482.22 1178.04 1470 1146.82 1470ZM1091.79 1582.06L1098.3 1547.96C1099.98 1538.7 1104.34 1531.4 1112.52 1531.4H1124.81L1125.53 1528.62C1126.15 1526.19 1127.58 1524.04 1129.59 1522.5C1131.59 1520.97 1134.06 1520.13 1136.6 1520.13H1156.97C1159.51 1520.13 1161.97 1520.96 1163.98 1522.49C1165.98 1524.02 1167.42 1526.17 1168.05 1528.59L1168.77 1531.4H1181.13C1189.14 1531.4 1193.39 1538.55 1195.39 1547.92V1547.96L1201.93 1582.09C1201.98 1582.35 1201.96 1582.61 1201.87 1582.85C1201.78 1583.1 1201.62 1583.31 1201.41 1583.47C1201.2 1583.63 1200.96 1583.73 1200.69 1583.76C1200.43 1583.79 1200.17 1583.75 1199.93 1583.64L1190.85 1579.52C1190.64 1579.43 1190.45 1579.29 1190.3 1579.11C1190.16 1578.93 1190.07 1578.72 1190.03 1578.5L1184.24 1548.35C1183.17 1544.47 1181.67 1542.71 1178.49 1542.71H1115.2C1112.05 1542.71 1110.34 1544.58 1109.45 1548.35L1103.66 1578.5C1103.61 1578.72 1103.52 1578.93 1103.37 1579.11C1103.23 1579.28 1103.05 1579.43 1102.84 1579.52L1093.79 1583.6C1093.56 1583.71 1093.29 1583.75 1093.03 1583.72C1092.77 1583.69 1092.52 1583.59 1092.32 1583.43C1092.11 1583.27 1091.95 1583.06 1091.86 1582.81C1091.77 1582.57 1091.74 1582.31 1091.79 1582.06V1582.06ZM1217.83 1604L1198.28 1651.87C1188.46 1651.87 1178.02 1644.12 1178.02 1644.12C1171.59 1647.32 1159.05 1650.14 1149.68 1650.67C1148.68 1650.7 1147.72 1650.74 1146.82 1650.74C1145.93 1650.74 1144.97 1650.74 1143.97 1650.67C1134.6 1650.14 1122.06 1647.29 1115.63 1644.12C1115.63 1644.12 1105.19 1651.87 1095.37 1651.87L1075.82 1604C1075.52 1603.25 1075.36 1602.45 1075.35 1601.64C1075.36 1600.42 1075.71 1599.23 1076.37 1598.21C1077.04 1597.19 1077.99 1596.37 1079.11 1595.86L1145.61 1565.75C1145.98 1565.57 1146.39 1565.48 1146.81 1565.48C1147.22 1565.48 1147.63 1565.57 1148 1565.75L1214.54 1595.86C1215.66 1596.37 1216.61 1597.19 1217.28 1598.21C1217.94 1599.23 1218.29 1600.42 1218.29 1601.64C1218.29 1602.45 1218.13 1603.25 1217.83 1604V1604Z" fill="#398CC3"/>
<ellipse cx="739.5" cy="1705" rx="104.5" ry="101" fill="white"/>
<path d="M709.931 1598.69C688.386 1604.4 669.033 1616.28 654.317 1632.83C639.602 1649.38 630.186 1669.85 627.26 1691.66C624.334 1713.47 628.03 1735.64 637.879 1755.37C647.728 1775.09 663.289 1791.48 682.594 1802.47C701.899 1813.45 724.081 1818.54 746.335 1817.09C768.588 1815.63 789.914 1807.7 807.615 1794.3C825.317 1780.89 838.599 1762.62 845.781 1741.78C852.964 1720.95 853.725 1698.49 847.968 1677.24C840.249 1648.75 821.369 1624.47 795.481 1609.74C769.594 1595.01 738.821 1591.04 709.931 1598.69V1598.69ZM792.056 1703.28C790.931 1703.58 787.185 1704.53 786.075 1704.76L764.459 1709.89C764.347 1709.92 764.243 1709.97 764.159 1710.05C764.074 1710.13 764.011 1710.23 763.976 1710.33L744.628 1766.36C744.352 1767.23 743.858 1768.01 743.191 1768.64C742.525 1769.27 741.708 1769.72 740.817 1769.95L732.978 1772.03C731.126 1772.52 730.002 1770.86 730.204 1768.99L734.146 1717.99C734.158 1717.89 734.143 1717.78 734.104 1717.68C734.064 1717.58 734.001 1717.49 733.919 1717.42C733.837 1717.35 733.74 1717.3 733.634 1717.27C733.528 1717.24 733.418 1717.24 733.312 1717.27L692.819 1727.05C692.399 1727.16 692.007 1727.35 691.676 1727.63C691.345 1727.9 691.083 1728.25 690.91 1728.64L682.48 1746.85C682.148 1747.6 681.65 1748.27 681.022 1748.81C680.394 1749.34 679.652 1749.73 678.851 1749.95L673.328 1751.41C673.117 1751.47 672.895 1751.48 672.68 1751.43C672.466 1751.39 672.266 1751.29 672.096 1751.16C671.927 1751.02 671.794 1750.84 671.708 1750.65C671.622 1750.45 671.586 1750.23 671.602 1750.02L672.113 1725.86C672.271 1724.49 671.895 1723.1 671.061 1721.98L658.407 1701.32C658.283 1701.14 658.205 1700.94 658.179 1700.72C658.154 1700.51 658.18 1700.29 658.258 1700.09C658.335 1699.89 658.461 1699.7 658.624 1699.56C658.787 1699.42 658.983 1699.31 659.195 1699.26L664.752 1697.79C665.554 1697.57 666.395 1697.54 667.21 1697.69C668.026 1697.84 668.796 1698.18 669.459 1698.67L685.674 1710.11C686.02 1710.36 686.423 1710.54 686.85 1710.61C687.277 1710.69 687.716 1710.66 688.131 1710.54L728.457 1699.22C728.563 1699.2 728.66 1699.14 728.74 1699.07C728.82 1698.99 728.88 1698.9 728.915 1698.8C728.951 1698.7 728.96 1698.59 728.942 1698.48C728.924 1698.37 728.88 1698.27 728.814 1698.19L699.622 1656C698.501 1654.48 698.634 1652.49 700.487 1652L708.326 1649.92C709.216 1649.69 710.151 1649.68 711.045 1649.89C711.94 1650.11 712.765 1650.54 713.445 1651.15L758.505 1690.14C758.588 1690.22 758.692 1690.28 758.805 1690.31C758.919 1690.33 759.037 1690.33 759.147 1690.29L780.463 1684.05C781.504 1683.7 785.266 1682.67 786.39 1682.37C801.076 1678.48 811.577 1680.73 813.141 1686.51C814.706 1692.28 806.708 1699.4 792.056 1703.28Z" fill="#398CC3"/>
<path d="M5863.61 2288.15C5861.33 2288.35 5859.22 2289.44 5857.73 2291.17C5856.25 2292.91 5855.53 2295.15 5855.71 2297.4L5899.79 2824.33C5899.98 2826.58 5901.07 2828.66 5902.82 2830.11C5904.57 2831.57 5906.83 2832.27 5909.12 2832.07L6460.43 2783.68C6462.71 2783.48 6464.83 2782.39 6466.31 2780.65C6467.79 2778.92 6468.52 2776.68 6468.33 2774.43L6424.25 2247.5C6424.06 2245.25 6422.97 2243.17 6421.22 2241.71C6419.48 2240.26 6417.21 2239.56 6414.93 2239.76L5863.61 2288.15Z" fill="#E6E6E6"/>
<path d="M5920.31 2809.64L6445.67 2763.52L6403.74 2262.19L5878.37 2308.31L5920.31 2809.64Z" fill="#FDFCFC" fill-opacity="0.82"/>
<path d="M5931.84 2384.07C5928.34 2384.38 5925.9 2389.58 5926.41 2395.67C5926.92 2401.77 5930.19 2406.47 5933.69 2406.16L6173.3 2385.13C6176.81 2384.83 6179.25 2379.62 6178.74 2373.53C6178.23 2367.43 6174.96 2362.73 6171.45 2363.04L5931.84 2384.07Z" fill="#E6E6E6"/>
<path d="M5937.53 2452.06C5934.03 2452.37 5931.59 2457.57 5932.1 2463.66C5932.61 2469.76 5935.87 2474.46 5939.38 2474.15L6178.99 2453.12C6182.5 2452.82 6184.93 2447.61 6184.42 2441.52C6183.91 2435.42 6180.65 2430.72 6177.14 2431.03L5937.53 2452.06Z" fill="#E6E6E6"/>
<path d="M5943.15 2519.26C5939.65 2519.57 5937.21 2524.78 5937.72 2530.87C5938.23 2536.96 5941.5 2541.67 5945 2541.36L6184.61 2520.33C6188.12 2520.02 6190.56 2514.82 6190.05 2508.72C6189.54 2502.63 6186.27 2497.93 6182.76 2498.23L5943.15 2519.26Z" fill="#E6E6E6"/>
<path d="M5948.84 2587.25C5945.33 2587.56 5942.9 2592.77 5943.41 2598.86C5943.92 2604.95 5947.18 2609.66 5950.69 2609.35L6190.3 2588.32C6193.81 2588.01 6196.24 2582.81 6195.73 2576.71C6195.22 2570.62 6191.96 2565.92 6188.45 2566.22L5948.84 2587.25Z" fill="#E6E6E6"/>
<path d="M6292.91 2353.11C6289.94 2353.37 6287.19 2354.78 6285.26 2357.04C6283.34 2359.3 6282.39 2362.21 6282.64 2365.14C6282.88 2368.07 6284.3 2370.78 6286.57 2372.66C6288.84 2374.55 6291.79 2375.47 6294.76 2375.2L6339.55 2371.27C6342.52 2371.01 6345.27 2369.6 6347.2 2367.34C6349.13 2365.09 6350.07 2362.17 6349.83 2359.24C6349.58 2356.31 6348.17 2353.6 6345.89 2351.72C6343.62 2349.83 6340.67 2348.92 6337.7 2349.18L6292.91 2353.11Z" fill="#E6E6E6"/>
<path d="M6298.49 2419.78C6295.52 2420.04 6292.77 2421.45 6290.84 2423.71C6288.91 2425.97 6287.97 2428.88 6288.21 2431.81C6288.46 2434.74 6289.87 2437.45 6292.15 2439.34C6294.42 2441.22 6297.37 2442.14 6300.34 2441.88L6345.13 2437.95C6348.1 2437.68 6350.85 2436.27 6352.78 2434.01C6354.7 2431.76 6355.65 2428.84 6355.4 2425.91C6355.16 2422.98 6353.74 2420.28 6351.47 2418.39C6349.2 2416.5 6346.25 2415.59 6343.28 2415.85L6298.49 2419.78Z" fill="#E6E6E6"/>
<path d="M6304.06 2486.45C6301.09 2486.71 6298.34 2488.13 6296.42 2490.38C6294.49 2492.64 6293.55 2495.55 6293.79 2498.48C6294.04 2501.41 6295.45 2504.12 6297.72 2506.01C6300 2507.9 6302.94 2508.81 6305.91 2508.55L6350.71 2504.62C6353.68 2504.36 6356.43 2502.94 6358.36 2500.69C6360.28 2498.43 6361.23 2495.52 6360.98 2492.59C6360.74 2489.66 6359.32 2486.95 6357.05 2485.06C6354.77 2483.17 6351.83 2482.26 6348.86 2482.52L6304.06 2486.45Z" fill="#E6E6E6"/>
<path d="M6309.64 2553.13C6306.67 2553.39 6303.92 2554.8 6301.99 2557.06C6300.07 2559.31 6299.12 2562.23 6299.37 2565.16C6299.61 2568.09 6301.03 2570.79 6303.3 2572.68C6305.57 2574.57 6308.52 2575.48 6311.49 2575.22L6356.28 2571.29C6359.25 2571.03 6362.01 2569.62 6363.93 2567.36C6365.86 2565.1 6366.8 2562.19 6366.56 2559.26C6366.31 2556.33 6364.9 2553.62 6362.63 2551.73C6360.35 2549.85 6357.41 2548.93 6354.44 2549.19L6309.64 2553.13Z" fill="#E6E6E6"/>
<path d="M6305.34 2666.12C6301.56 2666.45 6298.05 2668.25 6295.6 2671.13C6293.14 2674 6291.94 2677.72 6292.25 2681.45C6292.56 2685.18 6294.37 2688.63 6297.26 2691.04C6300.16 2693.44 6303.91 2694.61 6307.7 2694.27L6364.78 2689.26C6368.56 2688.93 6372.07 2687.13 6374.52 2684.26C6376.98 2681.38 6378.18 2677.67 6377.87 2673.93C6377.56 2670.2 6375.75 2666.75 6372.86 2664.35C6369.96 2661.94 6366.21 2660.78 6362.42 2661.11L6305.34 2666.12Z" fill="#398CC3"/>
<path d="M6371.63 2622.34L5949.26 2659.41L5949.57 2663.12L6371.94 2626.05L6371.63 2622.34Z" fill="#E6E6E6"/>
<path d="M3376.13 1585.18L2996.74 1641.27C2984.86 1643.03 2976.68 1653.94 2978.46 1665.65L3009.93 1872.47C3011.72 1884.18 3022.79 1892.24 3034.66 1890.49L3414.05 1834.39C3425.93 1832.64 3434.11 1821.72 3432.33 1810.02L3400.86 1603.2C3399.08 1591.49 3388 1583.42 3376.13 1585.18Z" fill="#3F3D56"/>
<path opacity="0.3" d="M3378.47 1763.56L3047.38 1812.51L3049.18 1824.38L3380.28 1775.43L3378.47 1763.56Z" fill="#398CC3"/>
<path opacity="0.3" d="M3373.95 1732.38L3042.85 1781.33L3044.66 1793.2L3375.75 1744.24L3373.95 1732.38Z" fill="#398CC3"/>
<path opacity="0.3" d="M3367.48 1689.85L3308.28 1698.6L3310.09 1710.47L3369.28 1701.72L3367.48 1689.85Z" fill="#398CC3"/>
<path opacity="0.3" d="M3362.66 1658.21L3145.94 1690.25L3147.75 1702.12L3364.47 1670.07L3362.66 1658.21Z" fill="#398CC3"/>
<path opacity="0.3" d="M3217.96 1819.65L3052.19 1844.16L3054 1856.03L3219.76 1831.52L3217.96 1819.65Z" fill="#398CC3"/>
<path d="M3098.77 1657.79L3035.89 1667.08C3030.26 1667.92 3026.38 1673.09 3027.23 1678.64L3036.66 1740.62C3037.5 1746.17 3042.75 1750 3048.39 1749.17L3111.26 1739.87C3116.9 1739.04 3120.78 1733.86 3119.93 1728.31L3110.5 1666.33C3109.66 1660.78 3104.4 1656.95 3098.77 1657.79Z" fill="#398CC3"/>
<path d="M5378.57 1530.3L5372.89 1531.62C5371.77 1531.88 5371.08 1532.98 5371.33 1534.09L5388.92 1609.09C5389.18 1610.19 5390.3 1610.88 5391.42 1610.62L5397.09 1609.3C5398.21 1609.04 5398.91 1607.94 5398.65 1606.83L5381.06 1531.83C5380.8 1530.73 5379.69 1530.05 5378.57 1530.3Z" fill="#3F3D56"/>
<path d="M5306.94 1391.04L5050.5 1450.49C5031.45 1454.91 5019.57 1473.71 5023.97 1492.49L5160.87 2076.19C5165.27 2094.97 5184.29 2106.6 5203.34 2102.19L5459.78 2042.73C5478.84 2038.31 5490.71 2019.51 5486.31 2000.74L5349.41 1417.03C5345.01 1398.26 5326 1386.62 5306.94 1391.04Z" fill="#3F3D56"/>
<path d="M5300.13 1410.52L5262.8 1419.17L5263.83 1423.6C5264.48 1426.35 5264.57 1429.2 5264.09 1432C5263.62 1434.79 5262.59 1437.47 5261.07 1439.87C5259.55 1442.28 5257.57 1444.36 5255.23 1446.02C5252.9 1447.67 5250.26 1448.85 5247.46 1449.5L5128.74 1477.02C5125.94 1477.67 5123.04 1477.77 5120.21 1477.32C5117.39 1476.87 5114.68 1475.87 5112.24 1474.38C5109.81 1472.89 5107.7 1470.94 5106.03 1468.64C5104.36 1466.35 5103.17 1463.75 5102.53 1460.99L5101.49 1456.57L5066.54 1464.67C5059.68 1466.26 5053.74 1470.47 5050.01 1476.37C5046.28 1482.27 5045.08 1489.38 5046.66 1496.13L5179.61 2062.99C5181.19 2069.74 5185.43 2075.59 5191.4 2079.24C5197.37 2082.89 5204.57 2084.05 5211.43 2082.46L5445.02 2028.3C5451.87 2026.71 5457.82 2022.51 5461.54 2016.61C5465.27 2010.71 5466.47 2003.6 5464.89 1996.84L5331.96 1430.03C5331.18 1426.68 5329.73 1423.52 5327.71 1420.73C5325.69 1417.93 5323.13 1415.56 5320.17 1413.75C5317.22 1411.94 5313.92 1410.72 5310.48 1410.16C5307.04 1409.61 5303.52 1409.73 5300.13 1410.52V1410.52Z" fill="white"/>
<path d="M5193.91 1437.76L5155.32 1446.71C5153.43 1447.15 5152.25 1449.02 5152.69 1450.88L5153.23 1453.22C5153.67 1455.08 5155.56 1456.24 5157.45 1455.8L5196.05 1446.85C5197.94 1446.41 5199.12 1444.55 5198.68 1442.68L5198.13 1440.34C5197.69 1438.48 5195.81 1437.33 5193.91 1437.76Z" fill="#E6E8EC"/>
<path d="M5211.73 1443.87C5214.62 1443.2 5216.42 1440.34 5215.75 1437.49C5215.09 1434.64 5212.2 1432.87 5209.31 1433.54C5206.41 1434.22 5204.61 1437.07 5205.28 1439.92C5205.95 1442.77 5208.83 1444.54 5211.73 1443.87Z" fill="#E6E8EC"/>
<path d="M5273.23 1814.81C5307.23 1806.93 5328.43 1773.38 5320.57 1739.88C5312.71 1706.38 5278.78 1685.61 5244.78 1693.49C5210.78 1701.38 5189.58 1734.92 5197.44 1768.43C5205.3 1801.93 5239.23 1822.69 5273.23 1814.81Z" fill="white"/>
<path d="M5337.99 1726.91C5341.75 1742.94 5340.6 1759.74 5334.69 1775.17C5328.77 1790.59 5318.36 1803.96 5304.76 1813.59C5291.17 1823.21 5275 1828.65 5258.3 1829.22C5241.61 1829.79 5225.14 1825.47 5210.97 1816.8C5196.8 1808.13 5185.58 1795.5 5178.72 1780.51C5171.85 1765.52 5169.66 1748.84 5172.41 1732.58C5175.17 1716.32 5182.75 1701.21 5194.19 1689.17C5205.63 1677.12 5220.42 1668.68 5236.7 1664.91C5247.5 1662.4 5258.7 1662.02 5269.63 1663.78C5280.57 1665.54 5291.04 1669.41 5300.45 1675.17C5309.86 1680.92 5318.01 1688.46 5324.45 1697.33C5330.9 1706.21 5335.5 1716.26 5337.99 1726.91V1726.91ZM5256.27 1791.1L5303.2 1716.81C5303.58 1716.21 5303.83 1715.55 5303.95 1714.85C5304.07 1714.15 5304.05 1713.44 5303.89 1712.75C5303.73 1712.06 5303.43 1711.42 5303.01 1710.84C5302.6 1710.27 5302.07 1709.78 5301.46 1709.41L5292.23 1703.81C5291.62 1703.44 5290.95 1703.19 5290.24 1703.07C5289.54 1702.96 5288.82 1702.98 5288.12 1703.14C5287.42 1703.3 5286.77 1703.6 5286.18 1704.01C5285.6 1704.43 5285.11 1704.95 5284.73 1705.55L5246.45 1766.14L5217.82 1748.57C5216.6 1747.83 5215.12 1747.59 5213.71 1747.92C5212.3 1748.24 5211.08 1749.11 5210.31 1750.31L5204.55 1759.5C5203.79 1760.71 5203.54 1762.17 5203.87 1763.56C5204.19 1764.94 5205.06 1766.15 5206.29 1766.9L5248.77 1792.89C5249.37 1793.26 5250.05 1793.51 5250.76 1793.63C5251.46 1793.74 5252.19 1793.71 5252.88 1793.55C5253.58 1793.39 5254.24 1793.1 5254.82 1792.68C5255.4 1792.27 5255.9 1791.75 5256.28 1791.15L5256.27 1791.1Z" fill="#398CC3"/>
<path d="M5056.32 1584.61L5055.47 1584.81C5054.35 1585.07 5053.65 1586.17 5053.91 1587.27L5058.46 1606.66C5058.72 1607.76 5059.83 1608.44 5060.95 1608.18L5061.8 1607.99C5062.92 1607.73 5063.62 1606.62 5063.36 1605.52L5058.82 1586.13C5058.56 1585.03 5057.44 1584.35 5056.32 1584.61Z" fill="#3F3D56"/>
<path d="M5066.8 1627.31L5065.33 1627.65C5064.21 1627.91 5063.51 1629.02 5063.77 1630.12L5072.38 1666.81C5072.64 1667.92 5073.75 1668.6 5074.87 1668.34L5076.35 1668C5077.47 1667.74 5078.16 1666.64 5077.91 1665.53L5069.3 1628.84C5069.04 1627.74 5067.92 1627.05 5066.8 1627.31Z" fill="#3F3D56"/>
<path d="M5079.51 1682.28L5078.3 1682.56C5077.18 1682.82 5076.48 1683.92 5076.74 1685.02L5085.43 1722.07C5085.69 1723.17 5086.81 1723.85 5087.92 1723.59L5089.13 1723.31C5090.25 1723.05 5090.95 1721.95 5090.69 1720.85L5082 1683.8C5081.74 1682.7 5080.63 1682.02 5079.51 1682.28Z" fill="#3F3D56"/>
<path d="M1094.81 2950.76L935.616 2980.8L669.49 3057.94L391.208 3083.52L268 2447.11L543.892 2415.25L818.118 2343.31L1097.2 2328.8L1184.83 2818.84L1094.81 2950.76Z" fill="url(#paint2_linear)"/>
<path d="M1088.14 2943.06L932.414 2972.4L672.077 3047.64L399.885 3072.72L279.823 2453.55L549.681 2422.35L817.937 2352.17L1090.9 2337.86L1176.27 2814.63L1088.14 2943.06Z" fill="white"/>
<path d="M1085.75 2926.04L921.74 2956.94L676.181 3027.91L419.441 3051.56L306.195 2467.54L560.734 2438.12L813.761 2371.92L1071.23 2358.42L1160.21 2817.3L1085.75 2926.04Z" fill="#398CC3"/>
<path d="M1077.22 2944.12L1055.77 2823.2L1174.53 2805.69L1077.22 2944.12Z" fill="url(#paint3_linear)"/>
<path d="M355.135 2719.93L747.207 2809.59L780.747 2854.14L761.592 2883.2L367.228 2782.29L355.135 2719.93Z" fill="white"/>
<path d="M1087.95 2942.1L1068.14 2830.52L1176.27 2814.63L1087.95 2942.1Z" fill="white"/>
<path d="M895.519 2881.39L951.666 2364.69L1013.23 2361.46L942.324 2899.04L895.519 2881.39Z" fill="white"/>
<path d="M719.619 2980.76L763.734 2381.31L827.102 2379.15L768.33 3002.5L719.619 2980.76Z" fill="white"/>
<path opacity="0.1" d="M675.136 3028.1L921.585 2956.97L808.339 2372.94L560.734 2438.12" fill="black"/>
<path d="M981.514 2601.93L1120.1 2610.45L1132.19 2672.82L959.438 2646.38L981.514 2601.93Z" fill="white"/>
<path d="M797.609 2590.76L936.191 2599.29L948.285 2661.66L775.532 2635.22L797.609 2590.76Z" fill="white"/>
<path d="M501.277 2816.59L512.02 3050.36L551.411 3051.08L560.592 2831.77L554.764 2802.03L501.277 2816.59Z" fill="white"/>
<path d="M442.348 2519.88L446.378 2740.79L478.358 2750.76L502.99 2508.39L442.348 2519.88Z" fill="white"/>
<path d="M507.285 2471.95C511.688 2471.12 514.575 2466.93 513.734 2462.59C512.892 2458.25 508.641 2455.4 504.238 2456.23C499.835 2457.06 496.948 2461.25 497.79 2465.59C498.631 2469.93 502.882 2472.78 507.285 2471.95Z" fill="#FF5252"/>
<path d="M490.471 2896.61C494.874 2895.78 497.761 2891.59 496.919 2887.25C496.078 2882.91 491.826 2880.06 487.423 2880.89C483.021 2881.72 480.134 2885.91 480.975 2890.25C481.817 2894.59 486.068 2897.44 490.471 2896.61Z" fill="#FF5252"/>
<path d="M493.736 2956.06C498.139 2955.23 501.026 2951.04 500.184 2946.7C499.343 2942.36 495.091 2939.52 490.688 2940.35C486.286 2941.18 483.398 2945.37 484.24 2949.71C485.081 2954.05 489.333 2956.89 493.736 2956.06Z" fill="#FF5252"/>
<path d="M575.773 2926.35C580.175 2925.52 583.062 2921.33 582.221 2916.99C581.379 2912.65 577.128 2909.81 572.725 2910.64C568.322 2911.47 565.435 2915.66 566.277 2920C567.118 2924.34 571.37 2927.18 575.773 2926.35Z" fill="#FF5252"/>
<path d="M393.541 2716.34C397.944 2715.51 400.831 2711.32 399.989 2706.98C399.148 2702.64 394.896 2699.79 390.494 2700.62C386.091 2701.45 383.204 2705.64 384.045 2709.98C384.887 2714.32 389.138 2717.17 393.541 2716.34Z" fill="#FF5252"/>
<path d="M1019.82 2590.21C1024.22 2589.38 1027.11 2585.19 1026.26 2580.85C1025.42 2576.51 1021.17 2573.67 1016.77 2574.5C1012.37 2575.33 1009.48 2579.52 1010.32 2583.86C1011.16 2588.2 1015.41 2591.04 1019.82 2590.21Z" fill="#FF5252"/>
<path d="M1004 2876.22C1008.41 2875.39 1011.29 2871.2 1010.45 2866.86C1009.61 2862.52 1005.36 2859.68 1000.96 2860.51C996.555 2861.34 993.668 2865.53 994.509 2869.87C995.351 2874.21 999.602 2877.05 1004 2876.22Z" fill="#FF5252"/>
<path d="M828.428 2589.47C837.576 2636.65 776.82 2786.57 776.82 2786.57C776.82 2786.57 664.254 2669.3 655.106 2622.13C652.927 2610.91 653.011 2599.37 655.354 2588.19C657.697 2577 662.254 2566.38 668.763 2556.93C675.272 2547.48 683.606 2539.38 693.289 2533.11C702.973 2526.83 713.815 2522.5 725.198 2520.35C736.581 2518.21 748.281 2518.3 759.63 2520.61C770.979 2522.92 781.754 2527.42 791.34 2533.84C800.927 2540.25 809.136 2548.47 815.5 2558.02C821.863 2567.57 826.256 2578.25 828.428 2589.47V2589.47Z" fill="#FF5252"/>
<path d="M745.619 2625.66C760.089 2622.94 769.577 2609.17 766.811 2594.9C764.046 2580.64 750.074 2571.29 735.604 2574.02C721.134 2576.74 711.646 2590.51 714.412 2604.78C717.177 2619.04 731.149 2628.39 745.619 2625.66Z" fill="white"/>
<path d="M5158.89 2410.75C5156.39 2410.6 5153.98 2409.81 5151.9 2408.45C5149.81 2407.1 5148.13 2405.22 5147.01 2403.02C5145.9 2400.81 5145.39 2398.36 5145.54 2395.9C5145.7 2393.44 5146.5 2391.07 5147.88 2389.02C5167.84 2360.21 5227.12 2293.68 5346.8 2301.17C5398.64 2304.41 5443.23 2320.83 5479.27 2349.94C5508.94 2373.84 5524.75 2399.78 5532.28 2412.28C5533.24 2413.85 5533.87 2415.6 5534.13 2417.42C5534.4 2419.24 5534.3 2421.09 5533.83 2422.87C5533.37 2424.65 5532.55 2426.32 5531.43 2427.78C5530.3 2429.25 5528.9 2430.48 5527.29 2431.4C5524.02 2433.28 5520.13 2433.81 5516.46 2432.89C5512.79 2431.97 5509.64 2429.66 5507.68 2426.47C5493.98 2403.97 5452.44 2335.63 5345.01 2328.91C5240.11 2322.34 5188.85 2379.66 5171.69 2404.54C5170.32 2406.61 5168.4 2408.28 5166.15 2409.37C5163.9 2410.46 5161.39 2410.94 5158.89 2410.75V2410.75Z" fill="#398CC3"/>
<path d="M5381.61 2699.64C5380.42 2699.58 5379.23 2699.37 5378.09 2699.02C5292.7 2672.13 5265.87 2583.68 5264.79 2580L5264.64 2579.19C5264.09 2576.65 5250.49 2516.28 5279.46 2483.23C5292.73 2468.12 5311.89 2461.21 5336.49 2462.75C5359.37 2464.18 5375.42 2472.3 5385.81 2487.68C5394.36 2500.24 5397.15 2515.24 5399.88 2529.74C5405.56 2559.86 5410.03 2575.77 5441.51 2579.34C5455.34 2580.91 5464.97 2573.4 5470.58 2566.83C5485.76 2548.95 5490.17 2518.46 5481.37 2490.85C5470.05 2455.08 5426.3 2386.3 5341.65 2381.01C5305.51 2378.74 5271.55 2388.24 5243.52 2408.33C5220.28 2425.01 5201.13 2449.36 5191.04 2474.99C5172.31 2522.71 5187.83 2600.54 5187.99 2601.25C5188.35 2603.05 5188.35 2604.9 5187.98 2606.7C5187.61 2608.5 5186.88 2610.2 5185.84 2611.72C5184.79 2613.24 5183.46 2614.54 5181.9 2615.55C5180.34 2616.55 5178.6 2617.24 5176.77 2617.58C5173.06 2618.3 5169.21 2617.56 5166.05 2615.5C5162.89 2613.45 5160.68 2610.25 5159.89 2606.6C5159.2 2603.05 5142.59 2520.05 5164.24 2464.89C5187.81 2405.14 5252.32 2347.46 5343.45 2353.16C5385.57 2355.8 5424.44 2372.56 5455.91 2401.58C5480.28 2424.15 5499.53 2453.61 5508.65 2482.44C5520.31 2519.24 5513.96 2559.33 5492.52 2584.44C5478.23 2601.18 5458.91 2609.19 5438.21 2606.89C5384.32 2600.81 5377.02 2562.58 5371.7 2534.69C5366.23 2506.09 5362.44 2492.23 5334.6 2490.48C5319.31 2489.53 5308.31 2493.05 5301.07 2501.31C5291.19 2512.62 5289.28 2531.14 5289.43 2544.67C5289.43 2544.81 5289.43 2544.95 5289.43 2545.1C5289.67 2562.32 5293.86 2579.27 5301.7 2594.66C5314.22 2619.43 5340.37 2657.85 5386.92 2672.52C5388.7 2673.06 5390.35 2673.95 5391.78 2675.13C5393.2 2676.3 5394.38 2677.75 5395.24 2679.38C5396.1 2681 5396.62 2682.78 5396.78 2684.61C5396.94 2686.44 5396.73 2688.28 5396.16 2690.03C5395.14 2692.99 5393.17 2695.53 5390.54 2697.27C5387.91 2699 5384.77 2699.84 5381.61 2699.64V2699.64Z" fill="#398CC3"/>
<path d="M5270.65 2686.28C5268.7 2686.16 5266.79 2685.65 5265.05 2684.79C5263.31 2683.92 5261.76 2682.71 5260.5 2681.24C5228.11 2642.74 5211.09 2600.89 5206.97 2549.63L5206.99 2549.33C5205 2515.44 5214.15 2468.22 5246.02 2437.35C5269.55 2414.57 5301.22 2404.23 5340 2406.65C5385.87 2409.53 5420.54 2433.04 5440.44 2474.56C5449.41 2493.65 5454.77 2514.19 5456.25 2535.17C5456.35 2538.89 5454.96 2542.48 5452.38 2545.19C5449.81 2547.9 5446.25 2549.5 5442.49 2549.65C5438.73 2549.8 5435.06 2548.48 5432.27 2545.98C5429.49 2543.48 5427.82 2539.99 5427.62 2536.29C5426.27 2518.74 5421.69 2501.57 5414.1 2485.64C5398.66 2453.91 5373.14 2436.68 5338.11 2434.49C5307.83 2432.6 5283.55 2440.2 5266.1 2457.14C5240.94 2481.52 5233.82 2521.05 5235.36 2547.6C5238.95 2592.92 5253.96 2629.73 5282.48 2663.58C5283.67 2664.99 5284.56 2666.62 5285.11 2668.37C5285.66 2670.12 5285.84 2671.97 5285.66 2673.79C5285.48 2675.62 5284.92 2677.39 5284.04 2679C5283.15 2680.62 5281.95 2682.04 5280.5 2683.19C5277.72 2685.39 5274.21 2686.49 5270.65 2686.28V2686.28Z" fill="#398CC3"/>
<path d="M5330.38 2559.16C5340.44 2559.79 5349.12 2552.26 5349.76 2542.34C5350.4 2532.42 5342.76 2523.86 5332.69 2523.23C5322.63 2522.6 5313.95 2530.13 5313.31 2540.05C5312.67 2549.98 5320.31 2558.53 5330.38 2559.16Z" fill="#398CC3"/>
<ellipse cx="1685.5" cy="2385" rx="104.5" ry="101" fill="#F1F0F0" fill-opacity="0.88"/>
<path d="M1763.73 2311.86C1753.69 2301.56 1741.67 2293.36 1728.36 2287.71C1715.06 2282.07 1700.74 2279.11 1686.26 2279C1671.78 2278.9 1657.42 2281.64 1644.03 2287.09C1630.64 2292.53 1618.49 2300.56 1608.3 2310.7C1567.19 2351.55 1566.49 2418.05 1606.7 2459.76C1624.36 2478.09 1648.04 2489.66 1673.53 2492.43C1699.01 2495.2 1724.68 2488.99 1745.97 2474.91L1824.47 2555.4C1825.44 2556.4 1826.78 2556.97 1828.18 2557C1829.58 2557.03 1830.94 2556.5 1831.95 2555.55L1851.51 2537C1852.52 2536.05 1853.1 2534.73 1853.13 2533.35C1853.16 2531.97 1852.63 2530.63 1851.66 2529.64L1773.15 2449.15C1788.2 2428.82 1795.5 2403.92 1793.78 2378.81C1792.06 2353.71 1781.42 2330 1763.73 2311.86V2311.86ZM1739.28 2441.21C1728.2 2451.7 1714.22 2458.73 1699.1 2461.39C1683.97 2464.05 1668.39 2462.23 1654.31 2456.16C1640.23 2450.09 1628.3 2440.05 1620.02 2427.29C1611.74 2414.54 1607.48 2399.65 1607.78 2384.51C1608.08 2369.37 1612.93 2354.65 1621.71 2342.23C1630.5 2329.81 1642.82 2320.23 1657.13 2314.71C1671.44 2309.19 1687.08 2307.98 1702.09 2311.22C1717.1 2314.47 1730.79 2322.03 1741.44 2332.94C1748.51 2340.19 1754.06 2348.74 1757.78 2358.11C1761.5 2367.47 1763.31 2377.46 1763.11 2387.52C1762.91 2397.57 1760.7 2407.49 1756.61 2416.7C1752.52 2425.91 1746.63 2434.24 1739.28 2441.21V2441.21Z" fill="#398CC3"/>
<path d="M1627.91 2364.76C1619.17 2364.76 1619.16 2378.14 1627.91 2378.14C1636.66 2378.14 1636.66 2364.76 1627.91 2364.76Z" fill="#398CC3"/>
<path d="M1688.8 2321.9C1665.29 2321.37 1643.9 2333 1632.52 2350.55C1628.81 2356.28 1639.35 2361.34 1643.04 2355.64C1652.46 2341.11 1670.36 2331.88 1689.72 2332.36C1710 2332.86 1728.47 2344.3 1738.24 2360.18C1741.95 2366.2 1751.67 2360.73 1748 2354.74C1736.09 2335.46 1713.1 2322.41 1688.8 2321.9Z" fill="#398CC3"/>
<path d="M3606.26 2544.8L3584.06 2564.57L3623.28 2608.31L3645.48 2588.54L3606.26 2544.8Z" fill="#8ED16F"/>
<path d="M3622.73 2586.01C3625.25 2583.77 3623.59 2577.83 3619.04 2572.75C3614.48 2567.66 3608.74 2565.35 3606.22 2567.6C3603.71 2569.84 3605.36 2575.78 3609.92 2580.86C3614.48 2585.95 3620.22 2588.25 3622.73 2586.01Z" fill="#8ED16F"/>
<path opacity="0.1" d="M3622.73 2586.01C3625.25 2583.77 3623.59 2577.83 3619.04 2572.75C3614.48 2567.66 3608.74 2565.35 3606.22 2567.6C3603.71 2569.84 3605.36 2575.78 3609.92 2580.86C3614.48 2585.95 3620.22 2588.25 3622.73 2586.01Z" fill="black"/>
<path d="M3717.98 2489.49L3695.78 2509.25L3735 2553L3757.2 2533.23L3717.98 2489.49Z" fill="#8ED16F"/>
<path d="M3734.45 2530.7C3736.97 2528.46 3735.31 2522.52 3730.75 2517.43C3726.19 2512.35 3720.46 2510.04 3717.94 2512.28C3715.42 2514.52 3717.08 2520.46 3721.64 2525.55C3726.2 2530.63 3731.93 2532.94 3734.45 2530.7Z" fill="#8ED16F"/>
<path opacity="0.1" d="M3734.45 2530.7C3736.97 2528.46 3735.31 2522.52 3730.75 2517.43C3726.19 2512.35 3720.46 2510.04 3717.94 2512.28C3715.42 2514.52 3717.08 2520.46 3721.64 2525.55C3726.2 2530.63 3731.93 2532.94 3734.45 2530.7Z" fill="black"/>
<path d="M3763.88 2619.54L3734.7 2612.33L3721.43 2668.9L3750.61 2676.11L3763.88 2619.54Z" fill="#8ED16F"/>
<path d="M3739.49 2656.03C3742.8 2656.85 3746.73 2652.18 3748.27 2645.61C3749.81 2639.03 3748.38 2633.04 3745.08 2632.22C3741.77 2631.4 3737.84 2636.07 3736.29 2642.65C3734.75 2649.22 3736.18 2655.22 3739.49 2656.03Z" fill="#8ED16F"/>
<path opacity="0.1" d="M3739.49 2656.03C3742.8 2656.85 3746.73 2652.18 3748.27 2645.61C3749.81 2639.03 3748.38 2633.04 3745.08 2632.22C3741.77 2631.4 3737.84 2636.07 3736.29 2642.65C3734.75 2649.22 3736.18 2655.22 3739.49 2656.03Z" fill="black"/>
<path d="M3610.68 2724.78L3588.48 2744.55L3627.7 2788.29L3649.9 2768.52L3610.68 2724.78Z" fill="#8ED16F"/>
<path d="M3627.17 2766C3629.68 2763.76 3628.03 2757.82 3623.47 2752.74C3618.91 2747.65 3613.17 2745.34 3610.66 2747.58C3608.14 2749.83 3609.8 2755.76 3614.36 2760.85C3618.92 2765.94 3624.65 2768.24 3627.17 2766Z" fill="#8ED16F"/>
<path opacity="0.1" d="M3627.17 2766C3629.68 2763.76 3628.03 2757.82 3623.47 2752.74C3618.91 2747.65 3613.17 2745.34 3610.66 2747.58C3608.14 2749.83 3609.8 2755.76 3614.36 2760.85C3618.92 2765.94 3624.65 2768.24 3627.17 2766Z" fill="black"/>
<path d="M3502.95 2615.65L3480.75 2635.42L3519.97 2679.16L3542.17 2659.39L3502.95 2615.65Z" fill="#8ED16F"/>
<path d="M3519.43 2656.87C3521.94 2654.63 3520.29 2648.69 3515.73 2643.6C3511.17 2638.52 3505.43 2636.21 3502.92 2638.45C3500.4 2640.69 3502.06 2646.63 3506.62 2651.72C3511.18 2656.8 3516.91 2659.11 3519.43 2656.87Z" fill="#8ED16F"/>
<path opacity="0.1" d="M3519.43 2656.87C3521.94 2654.63 3520.29 2648.69 3515.73 2643.6C3511.17 2638.52 3505.43 2636.21 3502.92 2638.45C3500.4 2640.69 3502.06 2646.63 3506.62 2651.72C3511.18 2656.8 3516.91 2659.11 3519.43 2656.87Z" fill="black"/>
<path d="M3643.71 3004.18L3645.69 3004.44L3645.96 3002.45L3657.17 2919.33L3657.43 2917.35L3655.45 2917.09L3445.13 2889.54L3438.44 2869.33L3437.82 2867.46L3435.93 2868.07L3434.33 2868.58L3432.4 2869.2L3433.04 2871.12L3440.45 2893.5L3440.84 2894.69L3442.08 2894.85L3651.04 2922.22L3640.81 2998.09L3412.34 2968.16L3410.36 2967.9L3410.09 2969.88L3409.87 2971.53L3409.6 2973.51L3411.58 2973.77L3643.71 3004.18Z" fill="#545D72" stroke="#545D72" stroke-width="4"/>
<path d="M3437.31 3016.16C3446.99 3017.43 3455.88 3010.72 3457.17 3001.18C3458.46 2991.63 3451.65 2982.87 3441.97 2981.6C3432.28 2980.33 3423.39 2987.04 3422.1 2996.58C3420.82 3006.13 3427.62 3014.9 3437.31 3016.16Z" fill="#545D72"/>
<path d="M3610.15 3038.8C3619.83 3040.07 3628.73 3033.36 3630.01 3023.82C3631.3 3014.27 3624.49 3005.51 3614.81 3004.24C3605.12 3002.97 3596.23 3009.68 3594.94 3019.22C3593.66 3028.77 3600.46 3037.54 3610.15 3038.8Z" fill="#545D72"/>
<path d="M3864.26 2691.84C3870.26 2692.63 3875.76 2688.47 3876.56 2682.56C3877.35 2676.65 3873.14 2671.23 3867.15 2670.44C3861.15 2669.66 3855.64 2673.81 3854.85 2679.72C3854.05 2685.63 3858.27 2691.06 3864.26 2691.84Z" fill="#545D72"/>
<path d="M3683.18 2898.79L3684.63 2898.98L3685.26 2897.66L3767.43 2724.41L3767.43 2724.41L3767.92 2723.39L3769.09 2720.91L3766.38 2720.56L3390.87 2671.37L3388.18 2671.02L3388.63 2673.69L3420.57 2862.97L3420.81 2864.42L3422.27 2864.62L3683.18 2898.79ZM3395.06 2677.63L3760.63 2725.51L3681.26 2892.83L3425.72 2859.36L3395.06 2677.63Z" fill="#545D72" stroke="#545D72" stroke-width="4"/>
<path d="M3664.36 2884.68L3435.19 2854.66L3407.35 2686.85L3737.17 2730.05L3736.74 2730.96L3664.36 2884.68Z" fill="#F2F2F2" fill-opacity="0.9"/>
<path d="M3772.22 2708.75L3774.06 2709.5L3774.83 2707.67L3790.28 2670.77L3851.57 2678.8L3853.56 2679.06L3853.82 2677.07L3854.05 2675.43L3854.31 2673.44L3852.33 2673.19L3788.23 2664.79L3786.71 2664.59L3786.12 2666.01L3769.58 2705.5L3768.8 2707.36L3770.66 2708.12L3772.22 2708.75Z" fill="#545D72" stroke="#545D72" stroke-width="4"/>
<path d="M3401.68 2728.9L3399.7 2728.64L3399.43 2730.62L3399.21 2732.27L3398.94 2734.25L3400.93 2734.51L3739.42 2778.85L3741.41 2779.11L3741.67 2777.13L3741.9 2775.48L3742.16 2773.5L3740.18 2773.24L3401.68 2728.9Z" fill="#545D72" stroke="#545D72" stroke-width="4"/>
<path d="M3412.33 2792.01L3410.35 2791.75L3410.08 2793.73L3409.86 2795.38L3409.59 2797.36L3411.57 2797.62L3711.86 2836.95L3713.85 2837.21L3714.11 2835.23L3714.33 2833.59L3714.6 2831.6L3712.62 2831.34L3412.33 2792.01Z" fill="#545D72" stroke="#545D72" stroke-width="4"/>
<path d="M3577.67 2696.68L3575.69 2696.42L3575.42 2698.4L3551.12 2878.64L3550.86 2880.62L3552.84 2880.88L3554.51 2881.1L3556.49 2881.36L3556.76 2879.38L3581.06 2699.14L3581.33 2697.15L3579.34 2696.89L3577.67 2696.68Z" fill="#545D72" stroke="#545D72" stroke-width="4"/>
<path d="M3615.6 2886.9L3615.2 2888.86L3617.17 2889.24L3618.82 2889.57L3620.78 2889.96L3621.18 2888L3657.47 2709.33L3657.86 2707.37L3655.9 2706.98L3654.25 2706.66L3652.29 2706.27L3651.89 2708.23L3615.6 2886.9Z" fill="#545D72" stroke="#545D72" stroke-width="4"/>
<path d="M3501.14 2686.71L3499.14 2686.58L3499 2688.57L3486.62 2870.37L3486.49 2872.37L3488.48 2872.5L3490.16 2872.61L3492.16 2872.74L3492.3 2870.75L3504.68 2688.95L3504.81 2686.95L3502.82 2686.82L3501.14 2686.71Z" fill="#545D72" stroke="#545D72" stroke-width="4"/>
<path d="M3120.39 2709.11C3218.2 2689.16 3281.08 2594.84 3260.83 2498.43C3240.59 2402.03 3144.9 2340.05 3047.09 2360C2949.29 2379.96 2886.41 2474.28 2906.65 2570.68C2926.89 2667.09 3022.59 2729.06 3120.39 2709.11Z" fill="#398CC3"/>
<path opacity="0.1" d="M3115.26 2684.67C3199.37 2667.51 3253.45 2586.4 3236.04 2503.49C3218.63 2420.58 3136.34 2367.28 3052.22 2384.44C2968.11 2401.6 2914.04 2482.72 2931.44 2565.63C2948.85 2648.53 3031.15 2701.83 3115.26 2684.67Z" fill="black"/>
<path d="M3095.04 2624.63L3090.46 2602.78C3079.21 2604.85 3066.8 2603.32 3058.9 2599.29L3060.49 2583.85C3069.77 2588.15 3080.2 2589.42 3090.27 2587.48C3103.98 2584.68 3111.39 2573.92 3108.8 2561.59C3106.31 2549.69 3097.23 2543.87 3081.57 2540.3C3060.05 2535.67 3045.78 2528.2 3041.83 2509.38C3038.06 2491.42 3046.6 2475.47 3063.69 2468.6L3059.11 2446.75L3071.08 2444.31L3075.49 2465.29C3084.45 2463.59 3093.71 2464.44 3102.19 2467.74L3100.36 2483C3092.18 2479.63 3083.15 2478.79 3074.48 2480.61C3059.6 2483.64 3056.09 2494.74 3057.9 2503.39C3060.26 2514.64 3068.59 2518.81 3087.04 2523.17C3108.84 2528.19 3121.25 2537.39 3125.29 2556.64C3128.88 2573.73 3121.62 2591.91 3102.49 2599.65L3107.22 2622.15L3095.04 2624.63Z" fill="#F2F2F2"/>
<rect width="155.788" height="2163.82" transform="matrix(0.981895 -0.189424 0.194767 0.98085 2068.26 1133.51)" fill="url(#paint4_linear)"/>
<rect width="152.226" height="2163.08" transform="matrix(0.988628 0.15038 -0.154682 0.987964 4632.58 1086)" fill="url(#paint5_linear)"/>
<rect y="-28" width="6858" height="3227" fill="url(#paint6_linear)"/>
</g>
<defs>
<linearGradient id="paint0_linear" x1="6394.01" y1="1750.9" x2="6420.09" y2="1249.86" gradientUnits="userSpaceOnUse">
<stop stop-color="#808080" stop-opacity="0.25"/>
<stop offset="0.53514" stop-color="#808080" stop-opacity="0.12"/>
<stop offset="1" stop-color="#808080" stop-opacity="0.1"/>
</linearGradient>
<linearGradient id="paint1_linear" x1="273637" y1="255359" x2="281055" y2="97427.6" gradientUnits="userSpaceOnUse">
<stop stop-color="#808080" stop-opacity="0.25"/>
<stop offset="0.53514" stop-color="#808080" stop-opacity="0.12"/>
<stop offset="1" stop-color="#808080" stop-opacity="0.1"/>
</linearGradient>
<linearGradient id="paint2_linear" x1="807.272" y1="3031.94" x2="682.176" y2="2368.96" gradientUnits="userSpaceOnUse">
<stop stop-color="#808080" stop-opacity="0.25"/>
<stop offset="0.53514" stop-color="#808080" stop-opacity="0.12"/>
<stop offset="1" stop-color="#808080" stop-opacity="0.1"/>
</linearGradient>
<linearGradient id="paint3_linear" x1="1137.11" y1="2932.84" x2="1114.38" y2="2812.16" gradientUnits="userSpaceOnUse">
<stop stop-opacity="0.12"/>
<stop offset="0.55135" stop-opacity="0.09"/>
<stop offset="1" stop-opacity="0.02"/>
</linearGradient>
<linearGradient id="paint4_linear" x1="77.8938" y1="0" x2="77.8938" y2="2163.82" gradientUnits="userSpaceOnUse">
<stop stop-color="white" stop-opacity="0"/>
<stop offset="1" stop-color="white" stop-opacity="0.35"/>
</linearGradient>
<linearGradient id="paint5_linear" x1="76.1129" y1="0" x2="76.1129" y2="2163.08" gradientUnits="userSpaceOnUse">
<stop stop-color="white" stop-opacity="0"/>
<stop offset="1" stop-color="white" stop-opacity="0.35"/>
</linearGradient>
<linearGradient id="paint6_linear" x1="3429" y1="-28" x2="3429" y2="3199" gradientUnits="userSpaceOnUse">
<stop stop-color="#1E6D87"/>
<stop offset="0.510417" stop-color="#85B0BE" stop-opacity="0.29"/>
<stop offset="1" stop-color="white" stop-opacity="0"/>
</linearGradient>
<clipPath id="clip0">
<rect width="6858" height="3189.57" fill="white"/>
</clipPath>
</defs>
</svg>
