<svg width="742" height="679" viewBox="0 0 742 679" fill="none" xmlns="http://www.w3.org/2000/svg">
<path d="M718.97 7.32V651.53L500.66 621.11L235.27 675.25L233.13 675.68L21.97 617.53V57.42L241.19 7.32L480.97 57.42L490.09 55.5L718.97 7.32Z" fill="#2A809D"/>
<path opacity="0.1" d="M516 623.962L219 679L225.619 0L493.971 50.9357L504.174 48.9801L516 623.962Z" fill="black"/>
<path opacity="0.3" d="M486.35 106L486.47 315.5H573.47V229.5H722.47L739.97 207.06" stroke="white" stroke-width="3" stroke-miterlimit="10"/>
<path opacity="0.3" d="M1.96997 172.5H325.47L345.47 163.5H353.47V365.5H493.47L499.47 383.5V474.5H607.47V587" stroke="white" stroke-width="3" stroke-miterlimit="10"/>
<path opacity="0.3" d="M396.2 587V365.5" stroke="white" stroke-width="3" stroke-miterlimit="10"/>
<path opacity="0.3" d="M739.97 527.66H396.2" stroke="white" stroke-width="3" stroke-miterlimit="10"/>
<path opacity="0.3" d="M653.87 106V587" stroke="white" stroke-width="3" stroke-miterlimit="10"/>
<path opacity="0.3" d="M0.969971 485.14H739.97" stroke="white" stroke-width="3" stroke-miterlimit="10"/>
<path opacity="0.3" d="M90.9099 587V106" stroke="white" stroke-width="3" stroke-miterlimit="10"/>
<path opacity="0.3" d="M262.69 106V587" stroke="white" stroke-width="3" stroke-miterlimit="10"/>
<path opacity="0.3" d="M1.96997 227.5L573.47 229.5" stroke="white" stroke-width="3" stroke-miterlimit="10"/>
<path opacity="0.3" d="M168.3 106.87V587" stroke="white" stroke-width="3" stroke-miterlimit="10"/>
<path opacity="0.3" d="M0.969971 338.82H262.69L396.2 485.14" stroke="white" stroke-width="3" stroke-miterlimit="10"/>
<path opacity="0.3" d="M425.12 106V365.5" stroke="white" stroke-width="3" stroke-miterlimit="10"/>
<path opacity="0.3" d="M396.2 411.98H739.97" stroke="white" stroke-width="3" stroke-miterlimit="10"/>
</svg>
