<svg width="550" height="38" viewBox="0 0 550 38" fill="none" xmlns="http://www.w3.org/2000/svg">
<path opacity="0.63" d="M538.5 32L11.5 32" stroke="white" stroke-width="3" stroke-miterlimit="10" stroke-linecap="round" stroke-linejoin="round"/>
<path d="M20 10.4936C20 16.2853 9.99991 29 9.99991 29C9.99991 29 1.94413e-06 16.2853 1.94413e-06 10.4936C-0.000817157 9.11585 0.2572 7.7516 0.759372 6.47837C1.26154 5.20515 1.99798 4.04827 2.92665 3.07386C3.85526 2.09945 4.95796 1.32629 6.17162 0.798877C7.38527 0.271463 8.68613 0 9.99991 0C11.3136 0 12.6145 0.271463 13.8282 0.798877C15.0419 1.32629 16.1445 2.09945 17.0733 3.07386C18.002 4.04827 18.7386 5.20515 19.2401 6.47837C19.7423 7.7516 20.0006 9.11585 20 10.4936Z" fill="#D95033"/>
<ellipse cx="10" cy="10.6531" rx="5" ry="4.73469" fill="white"/>
<path d="M550 10.4936C550 16.2853 540 29 540 29C540 29 530 16.2853 530 10.4936C529.999 9.11585 530.257 7.7516 530.759 6.47837C531.262 5.20515 531.998 4.04827 532.927 3.07386C533.855 2.09945 534.958 1.32629 536.172 0.798877C537.385 0.271463 538.686 0 540 0C541.314 0 542.615 0.271463 543.828 0.798877C545.042 1.32629 546.145 2.09945 547.073 3.07386C548.002 4.04827 548.739 5.20515 549.24 6.47837C549.742 7.7516 550.001 9.11585 550 10.4936Z" fill="#B3E24E"/>
<ellipse cx="540" cy="10.6531" rx="5" ry="4.73469" fill="white"/>
</svg>
