<?xml version="1.0" encoding="utf-8"?>
<!-- Generator: Adobe Illustrator 21.1.0, SVG Export Plug-In . SVG Version: 6.00 Build 0)  -->
<svg version="1.1" id="Layer_1" xmlns="http://www.w3.org/2000/svg" xmlns:xlink="http://www.w3.org/1999/xlink" x="0px" y="0px" width="2560" height="450"
	 viewBox="0 0 2560 450" style="enable-background:new 0 0 2560 450;" xml:space="preserve">
<style type="text/css">
	.st0{fill:#27AAE1;}
	.st1{fill:#2D7DAF;}
	.st2{fill:#F8FAF5;}
	.st3{fill:#E6E7E8;}
	.st4{fill:#BCBEC0;}
	.st5{fill:#D1D3D4;}
	.st6{fill:#8AD6F2;}
	.st7{fill:#8CC640;}
	.st8{fill:#D9DDE4;}
	.st9{fill:#CAC9CC;}
	.st10{fill:#3B3C3F;}
	.st11{fill:#FFFFFF;}
	.st12{fill:#496A80;}
	.st13{fill:#F99D3E;}
	.st14{fill:#6FC8F1;}
	.st15{fill:#F26976;}
	.st16{fill:#2A809D;}
	.st17{fill:#3A8ECC;}
	.st18{fill:#213848;}
	.st19{fill:#567C91;}
	.st20{fill:#999996;}
	.st21{fill:#D0EDF6;}
	.st22{fill:#12669B;}
	.st23{fill:#EC5524;}
	.st24{fill:#A97D51;}
	.st25{fill:#BD8A58;}
	.st26{fill:#8FC640;}
	.st27{fill:#7CB041;}
	.st28{fill:#347E9B;}
	.st29{fill:#D9D9DA;}
	.st30{fill:#877266;}
	.st31{fill:#89A6AF;}
	.st32{fill:#33ADB2;}
	.st33{fill:#4588AF;}
	.st34{fill:#385360;}
	.st35{fill:#0C4462;}
	.st36{fill:#4FACC2;}
	.st37{fill:#145A7A;}
	.st38{fill:#848484;}
	.st39{fill:#D1D2D4;}
	.st40{fill:#F3A745;}
	.st41{fill:#F1BC46;}
	.st42{fill:#939393;}
	.st43{fill:#D95E4C;}
	.st44{fill:#E87D6A;}
</style>
<g id="Layer_1_1_">
	<rect x="-2.3" y="-4.2" class="st0" width="2571.3" height="462"/>
</g>
<g id="Layer_4">
	<polygon class="st1" points="477.3,398.1 477.3,241.6 498.2,241.6 498.2,128 599.2,128 599.2,233.5 707.7,233.5 707.7,178.7 
		825.4,178.7 825.4,267 995.7,267 995.7,172.7 1057.5,156.8 1057.5,288 1145.8,288 1145.8,220.6 1211.5,220.6 1211.5,328.1 
		1419.8,328.1 1419.8,262.7 1500.8,262.7 1500.8,312.4 1730.4,312.4 1730.4,226.5 1863.4,226.5 1863.4,279.3 1963.3,279.3 
		1963.3,398.1 	"/>
</g>
<g id="Layer_2">
	<g>
		<rect x="1619.9" y="73.9" class="st2" width="57.3" height="324.6"/>
		<polygon class="st3" points="1719.1,398.6 1677.2,398.6 1677.2,160.6 1719.1,209.4 		"/>
		<rect x="1628" y="63.5" class="st4" width="38.8" height="10.4"/>
		<rect x="1638.4" y="33.1" class="st5" width="5.2" height="30.4"/>
		<rect x="1624" y="78.1" class="st6" width="4.7" height="10.3"/>
		<rect x="1631.8" y="78.1" class="st6" width="4.7" height="10.3"/>
		<rect x="1639" y="78.1" class="st6" width="4.7" height="10.3"/>
		<rect x="1646.4" y="78.1" class="st6" width="4.7" height="10.3"/>
		<rect x="1653.7" y="78.1" class="st6" width="4.7" height="10.3"/>
		<rect x="1661" y="78.1" class="st6" width="4.7" height="10.3"/>
		<rect x="1668.3" y="78.1" class="st6" width="4.7" height="10.3"/>
		<rect x="1624.2" y="92.6" class="st0" width="53" height="2.9"/>
		<rect x="1624.2" y="98.3" class="st0" width="53" height="2.9"/>
		<rect x="1624.2" y="104" class="st0" width="53" height="2.9"/>
		<rect x="1624.2" y="109.6" class="st0" width="53" height="2.9"/>
		<rect x="1624.2" y="115.3" class="st0" width="53" height="2.9"/>
		<rect x="1624.2" y="120.9" class="st0" width="53" height="2.9"/>
		<rect x="1624.2" y="126.6" class="st0" width="53" height="2.9"/>
		<rect x="1624.2" y="132.2" class="st0" width="53" height="2.9"/>
		<rect x="1624.2" y="138.2" class="st0" width="53" height="2.9"/>
		<rect x="1624.2" y="143.9" class="st0" width="53" height="2.9"/>
		<rect x="1624.2" y="149.6" class="st0" width="53" height="2.9"/>
		<rect x="1624.2" y="155.2" class="st0" width="53" height="2.9"/>
		<rect x="1624.2" y="160.9" class="st0" width="53" height="2.9"/>
		<rect x="1624.2" y="166.5" class="st0" width="53" height="2.9"/>
		<rect x="1624.2" y="172.2" class="st0" width="53" height="2.9"/>
		<rect x="1624.2" y="177.8" class="st0" width="53" height="2.9"/>
		<rect x="1624.2" y="183.5" class="st0" width="53" height="2.9"/>
		<rect x="1624.2" y="189.2" class="st0" width="53" height="2.9"/>
		<rect x="1624.2" y="194.8" class="st0" width="53" height="2.9"/>
		<rect x="1624.2" y="200.5" class="st0" width="53" height="2.9"/>
		<rect x="1624.2" y="206.1" class="st0" width="53" height="2.9"/>
		<rect x="1624.2" y="211.8" class="st0" width="53" height="2.9"/>
		<rect x="1624.2" y="217.4" class="st0" width="53" height="2.9"/>
		<rect x="1624.2" y="223.1" class="st0" width="53" height="2.9"/>
		<rect x="1624.2" y="228.7" class="st0" width="53" height="2.9"/>
		<rect x="1624.2" y="234.4" class="st0" width="53" height="2.9"/>
		<rect x="1624.2" y="240.1" class="st0" width="53" height="2.9"/>
		<rect x="1624.2" y="245.7" class="st0" width="53" height="2.9"/>
		<rect x="1624.2" y="251.4" class="st0" width="53" height="2.9"/>
		<rect x="1624.2" y="257" class="st0" width="53" height="2.9"/>
		<rect x="1624.2" y="262.7" class="st0" width="53" height="2.9"/>
		<rect x="1624.2" y="268.3" class="st0" width="53" height="2.9"/>
		<rect x="1624.2" y="274" class="st0" width="53" height="2.9"/>
		<rect x="1624.2" y="279.7" class="st0" width="53" height="2.9"/>
		<rect x="1624.2" y="285.3" class="st0" width="53" height="2.9"/>
		<rect x="1624.2" y="291" class="st0" width="53" height="2.9"/>
		<rect x="1624.2" y="296.6" class="st0" width="53" height="2.9"/>
		<rect x="1624.2" y="302.3" class="st0" width="53" height="2.9"/>
		<rect x="1624.2" y="307.9" class="st0" width="53" height="2.9"/>
		<rect x="1624.2" y="313.6" class="st0" width="53" height="2.9"/>
		<rect x="1624.2" y="319.3" class="st0" width="53" height="2.9"/>
		<rect x="1624.2" y="324.9" class="st0" width="53" height="2.9"/>
		<rect x="1624.2" y="330.6" class="st0" width="53" height="2.9"/>
		<rect x="1624.2" y="336.3" class="st0" width="53" height="2.9"/>
		<rect x="1624.2" y="341.9" class="st0" width="53" height="2.9"/>
		<rect x="1624.2" y="347.6" class="st0" width="53" height="2.9"/>
		<rect x="1624.2" y="353.3" class="st0" width="53" height="2.9"/>
		<rect x="1624.2" y="364.6" class="st0" width="53" height="2.9"/>
		<rect x="1624.2" y="370.2" class="st0" width="53" height="2.9"/>
		<rect x="1624.2" y="375.9" class="st0" width="53" height="2.9"/>
		<rect x="1624.2" y="381.5" class="st0" width="53" height="2.9"/>
		<rect x="1624.2" y="387.2" class="st0" width="53" height="2.9"/>
		<rect x="1624.2" y="358.9" class="st0" width="53" height="2.9"/>
	</g>
	<g>
		<rect x="932.2" y="222.3" class="st2" width="108.5" height="176.1"/>
		<rect x="939.2" y="206.3" class="st3" width="94.8" height="16.1"/>
		<rect x="943.1" y="212.5" class="st0" width="11.6" height="3.4"/>
		<rect x="958.1" y="212.5" class="st0" width="11.6" height="3.4"/>
		<rect x="973.2" y="212.5" class="st0" width="11.6" height="3.4"/>
		<rect x="988.2" y="212.5" class="st0" width="11.6" height="3.4"/>
		<rect x="1003.1" y="212.5" class="st0" width="11.6" height="3.4"/>
		<rect x="1018.1" y="212.5" class="st0" width="11.6" height="3.4"/>
		<rect x="937.3" y="244.3" class="st0" width="11.3" height="3.4"/>
		<rect x="951.9" y="244.3" class="st0" width="11.3" height="3.4"/>
		<rect x="966.6" y="244.3" class="st0" width="11.3" height="3.4"/>
		<rect x="981.1" y="244.3" class="st0" width="11.3" height="3.4"/>
		<rect x="995.7" y="244.3" class="st0" width="11.3" height="3.4"/>
		<rect x="1010.3" y="244.3" class="st0" width="11.3" height="3.4"/>
		<rect x="1024.4" y="244.3" class="st0" width="11.3" height="3.4"/>
		<rect x="937.3" y="253.1" class="st0" width="11.3" height="3.4"/>
		<rect x="951.9" y="253.1" class="st0" width="11.3" height="3.4"/>
		<rect x="966.6" y="253.1" class="st0" width="11.3" height="3.4"/>
		<rect x="981.1" y="253.1" class="st0" width="11.3" height="3.4"/>
		<rect x="995.7" y="253.1" class="st0" width="11.3" height="3.4"/>
		<rect x="1010.3" y="253.1" class="st0" width="11.3" height="3.4"/>
		<rect x="1024.4" y="253.1" class="st0" width="11.3" height="3.4"/>
		<rect x="937.3" y="261.8" class="st0" width="11.3" height="3.4"/>
		<rect x="951.9" y="261.8" class="st0" width="11.3" height="3.4"/>
		<rect x="966.6" y="261.8" class="st0" width="11.3" height="3.4"/>
		<rect x="981.1" y="261.8" class="st0" width="11.3" height="3.4"/>
		<rect x="995.7" y="261.8" class="st0" width="11.3" height="3.4"/>
		<rect x="1010.3" y="261.8" class="st0" width="11.3" height="3.4"/>
		<rect x="1024.4" y="261.8" class="st0" width="11.3" height="3.4"/>
		<rect x="937.3" y="270.5" class="st0" width="11.3" height="3.4"/>
		<rect x="951.9" y="270.5" class="st0" width="11.3" height="3.4"/>
		<rect x="966.6" y="270.5" class="st0" width="11.3" height="3.4"/>
		<rect x="981.1" y="270.5" class="st0" width="11.3" height="3.4"/>
		<rect x="995.7" y="270.5" class="st0" width="11.3" height="3.4"/>
		<rect x="1010.3" y="270.5" class="st0" width="11.3" height="3.4"/>
		<rect x="1024.4" y="270.5" class="st0" width="11.3" height="3.4"/>
		<rect x="937.3" y="279.3" class="st0" width="11.3" height="3.4"/>
		<rect x="951.9" y="279.3" class="st0" width="11.3" height="3.4"/>
		<rect x="966.6" y="279.3" class="st0" width="11.3" height="3.4"/>
		<rect x="981.1" y="279.3" class="st0" width="11.3" height="3.4"/>
		<rect x="995.7" y="279.3" class="st0" width="11.3" height="3.4"/>
		<rect x="1010.3" y="279.3" class="st0" width="11.3" height="3.4"/>
		<rect x="1024.4" y="279.3" class="st0" width="11.3" height="3.4"/>
		<rect x="937.3" y="288" class="st0" width="11.3" height="3.4"/>
		<rect x="951.9" y="288" class="st0" width="11.3" height="3.4"/>
		<rect x="966.6" y="288" class="st0" width="11.3" height="3.4"/>
		<rect x="981.1" y="288" class="st0" width="11.3" height="3.4"/>
		<rect x="995.7" y="288" class="st0" width="11.3" height="3.4"/>
		<rect x="1010.3" y="288" class="st0" width="11.3" height="3.4"/>
		<rect x="1024.4" y="288" class="st0" width="11.3" height="3.4"/>
		<rect x="937.3" y="296.8" class="st0" width="11.3" height="3.4"/>
		<rect x="951.9" y="296.8" class="st0" width="11.3" height="3.4"/>
		<rect x="966.6" y="296.8" class="st0" width="11.3" height="3.4"/>
		<rect x="981.1" y="296.8" class="st0" width="11.3" height="3.4"/>
		<rect x="995.7" y="296.8" class="st0" width="11.3" height="3.4"/>
		<rect x="1010.3" y="296.8" class="st0" width="11.3" height="3.4"/>
		<rect x="1024.4" y="296.8" class="st0" width="11.3" height="3.4"/>
		<rect x="937.3" y="306.7" class="st0" width="11.3" height="3.4"/>
		<rect x="951.9" y="306.7" class="st0" width="11.3" height="3.4"/>
		<rect x="966.6" y="306.7" class="st0" width="11.3" height="3.4"/>
		<rect x="981.2" y="306.7" class="st0" width="11.3" height="3.4"/>
		<rect x="995.8" y="306.7" class="st0" width="11.3" height="3.4"/>
		<rect x="1010.3" y="306.7" class="st0" width="11.3" height="3.4"/>
		<rect x="1024.4" y="306.7" class="st0" width="11.3" height="3.4"/>
		<rect x="937.3" y="316.5" class="st0" width="11.3" height="3.4"/>
		<rect x="951.9" y="316.5" class="st0" width="11.3" height="3.4"/>
		<rect x="966.6" y="316.5" class="st0" width="11.3" height="3.4"/>
		<rect x="981.2" y="316.5" class="st0" width="11.3" height="3.4"/>
		<rect x="995.8" y="316.5" class="st0" width="11.3" height="3.4"/>
		<rect x="1010.3" y="316.5" class="st0" width="11.3" height="3.4"/>
		<rect x="1024.4" y="316.5" class="st0" width="11.3" height="3.4"/>
		<rect x="937.3" y="326.4" class="st0" width="11.3" height="3.4"/>
		<rect x="951.9" y="326.4" class="st0" width="11.3" height="3.4"/>
		<rect x="966.6" y="326.4" class="st0" width="11.3" height="3.4"/>
		<rect x="981.2" y="326.4" class="st0" width="11.3" height="3.4"/>
		<rect x="995.8" y="326.4" class="st0" width="11.3" height="3.4"/>
		<rect x="1010.3" y="326.4" class="st0" width="11.3" height="3.4"/>
		<rect x="1024.4" y="326.4" class="st0" width="11.3" height="3.4"/>
		<rect x="937.3" y="336.2" class="st0" width="11.3" height="3.4"/>
		<rect x="951.9" y="336.2" class="st0" width="11.3" height="3.4"/>
		<rect x="966.6" y="336.2" class="st0" width="11.3" height="3.4"/>
		<rect x="981.2" y="336.2" class="st0" width="11.3" height="3.4"/>
		<rect x="995.8" y="336.2" class="st0" width="11.3" height="3.4"/>
		<rect x="1010.3" y="336.2" class="st0" width="11.3" height="3.4"/>
		<rect x="1024.4" y="336.2" class="st0" width="11.3" height="3.4"/>
		<rect x="937.3" y="346" class="st0" width="11.3" height="3.4"/>
		<rect x="951.9" y="346" class="st0" width="11.3" height="3.4"/>
		<rect x="966.6" y="346" class="st0" width="11.3" height="3.4"/>
		<rect x="981.2" y="346" class="st0" width="11.3" height="3.4"/>
		<rect x="995.8" y="346" class="st0" width="11.3" height="3.4"/>
		<rect x="1010.3" y="346" class="st0" width="11.3" height="3.4"/>
		<rect x="1024.4" y="346" class="st0" width="11.3" height="3.4"/>
		<rect x="937.3" y="355.8" class="st0" width="11.3" height="3.4"/>
		<rect x="951.9" y="355.8" class="st0" width="11.3" height="3.4"/>
		<rect x="966.6" y="355.8" class="st0" width="11.3" height="3.4"/>
		<rect x="981.2" y="355.8" class="st0" width="11.3" height="3.4"/>
		<rect x="995.8" y="355.8" class="st0" width="11.3" height="3.4"/>
		<rect x="1010.3" y="355.8" class="st0" width="11.3" height="3.4"/>
		<rect x="1024.4" y="355.8" class="st0" width="11.3" height="3.4"/>
		<rect x="937.3" y="365.7" class="st0" width="11.3" height="3.4"/>
		<rect x="951.9" y="365.7" class="st0" width="11.3" height="3.4"/>
		<rect x="966.6" y="365.7" class="st0" width="11.3" height="3.4"/>
		<rect x="981.2" y="365.7" class="st0" width="11.3" height="3.4"/>
		<rect x="995.8" y="365.7" class="st0" width="11.3" height="3.4"/>
		<rect x="1010.3" y="365.7" class="st0" width="11.3" height="3.4"/>
		<rect x="1024.4" y="365.7" class="st0" width="11.3" height="3.4"/>
		<rect x="965.5" y="235" class="st0" width="37.6" height="2.8"/>
		<rect x="941.5" y="378.9" class="st3" width="7.3" height="19.6"/>
		<rect x="953.2" y="378.9" class="st3" width="7.3" height="19.6"/>
		<rect x="965.1" y="378.9" class="st3" width="7.3" height="19.6"/>
		<rect x="976.8" y="378.9" class="st3" width="7.3" height="19.6"/>
		<rect x="988.8" y="378.9" class="st3" width="7.3" height="19.6"/>
		<rect x="1000.5" y="378.9" class="st3" width="7.3" height="19.6"/>
		<rect x="1012.4" y="378.9" class="st3" width="7.3" height="19.6"/>
		<rect x="1024.1" y="378.9" class="st3" width="7.3" height="19.6"/>
		<rect x="927.3" y="225.5" class="st7" width="29.5" height="9.6"/>
	</g>
	<g>
		<rect x="685.5" y="199.6" class="st8" width="119.8" height="198.9"/>
		<rect x="696.3" y="211.5" class="st9" width="11.5" height="187"/>
		<rect x="714.1" y="212.3" class="st9" width="11.5" height="187"/>
		<rect x="731.3" y="212.3" class="st9" width="11.5" height="187"/>
		<rect x="749.1" y="212.3" class="st9" width="11.5" height="187"/>
		<rect x="766.6" y="212.3" class="st9" width="11.5" height="187"/>
		<rect x="784.1" y="212.3" class="st9" width="11.5" height="187"/>
	</g>
	<path class="st10" d="M2051.6,434.2H461.4c-9.8,0-17.8-8-17.8-17.8l0,0c0-9.8,8-17.8,17.8-17.8h1590.2c9.8,0,17.8,8,17.8,17.8l0,0
		C2069.4,426.2,2061.5,434.2,2051.6,434.2z"/>
	<g>
		<rect x="564.3" y="168.3" class="st11" width="96.7" height="230.3"/>
		<rect x="569.5" y="174.5" class="st12" width="69.1" height="100.6"/>
		<rect x="569.5" y="283.4" class="st12" width="69.1" height="44.7"/>
		<rect x="569.5" y="336.5" class="st12" width="69.1" height="62.1"/>
		<rect x="642.8" y="174.5" class="st12" width="14.7" height="153.6"/>
		<rect x="593.6" y="192.6" class="st13" width="23.7" height="14"/>
		<rect x="593.6" y="219.5" class="st13" width="23.7" height="14"/>
		<rect x="593.6" y="244.3" class="st13" width="23.7" height="14"/>
		<rect x="593.6" y="298.8" class="st13" width="23.7" height="14"/>
		<rect x="571.2" y="352.2" class="st14" width="64.9" height="11.2"/>
	</g>
	<g>
		<polygon class="st15" points="743.4,398.6 627.1,398.6 627.1,258.3 743.4,283.4 		"/>
		<polygon class="st16" points="636.2,269 734.8,289.5 734.8,398.6 636.2,398.6 		"/>
		<rect x="632.7" y="299.1" class="st15" width="104.4" height="2.4"/>
		<rect x="632.7" y="325" class="st15" width="104.4" height="1.7"/>
		<rect x="632.7" y="347.8" class="st15" width="104.4" height="1.7"/>
		<rect x="632.7" y="368.5" class="st15" width="104.4" height="2.1"/>
		<rect x="652.2" y="267.1" class="st15" width="1.7" height="131.5"/>
		<rect x="674.6" y="273.2" class="st15" width="1.7" height="125.4"/>
		<rect x="696.3" y="277.1" class="st15" width="1.7" height="121.5"/>
		<rect x="718" y="282.2" class="st15" width="1.7" height="116.3"/>
		<rect x="627.1" y="385.4" class="st15" width="116.3" height="13.1"/>
	</g>
	<g>
		<rect x="773.9" y="116.5" class="st17" width="109.8" height="282.1"/>
		<rect x="779.2" y="120.7" class="st8" width="99.2" height="27.9"/>
		<rect x="837.7" y="153.6" class="st11" width="40.8" height="203.5"/>
		<rect x="779.9" y="153.6" class="st6" width="52.2" height="245"/>
		<rect x="790.2" y="150.4" class="st17" width="4.4" height="248.2"/>
		<rect x="804.5" y="150.4" class="st17" width="4.4" height="248.2"/>
		<rect x="818.8" y="150.4" class="st17" width="4.4" height="248.2"/>
		<rect x="775.7" y="167.6" class="st17" width="59.3" height="3.4"/>
		<rect x="775.7" y="186.7" class="st17" width="59.3" height="3.4"/>
		<rect x="775.7" y="204.5" class="st17" width="59.3" height="3.4"/>
		<rect x="775.7" y="222.4" class="st17" width="59.3" height="3.4"/>
		<rect x="775.7" y="239.3" class="st17" width="59.3" height="3.4"/>
		<rect x="775.7" y="258.4" class="st17" width="59.3" height="3.4"/>
		<rect x="775.7" y="277.6" class="st17" width="59.3" height="3.4"/>
		<rect x="775.7" y="295.4" class="st17" width="59.3" height="3.4"/>
		<rect x="775.7" y="313.2" class="st17" width="59.3" height="3.4"/>
		<rect x="775.7" y="330.2" class="st17" width="59.3" height="3.4"/>
		<rect x="775.7" y="349.4" class="st17" width="59.3" height="3.4"/>
		<rect x="775.7" y="366.8" class="st17" width="59.3" height="3.4"/>
		<rect x="774.8" y="385.9" class="st17" width="59.3" height="3.4"/>
		<rect x="846.2" y="160.6" class="st0" width="23.7" height="14"/>
		<rect x="846.2" y="188.5" class="st0" width="23.7" height="14"/>
		<rect x="846.2" y="216.3" class="st0" width="23.7" height="14"/>
		<rect x="846.2" y="241.4" class="st0" width="23.7" height="14"/>
		<rect x="846.2" y="266.3" class="st0" width="23.7" height="14"/>
		<polygon class="st17" points="873.3,116.5 823.2,116.5 828.8,98.4 873.3,98.4 		"/>
	</g>
	<g>
		<g>
			<rect x="858" y="305" class="st18" width="151.4" height="93.5"/>
			<rect x="924.9" y="296.3" class="st19" width="65.6" height="8.8"/>
			<rect x="846.2" y="360.6" class="st20" width="87.5" height="10"/>
			<rect x="858" y="370.7" class="st6" width="75.7" height="27.9"/>
			<rect x="858" y="315" class="st6" width="132.5" height="11.7"/>
			<rect x="858" y="334.5" class="st6" width="132.5" height="11.7"/>
			<rect x="961.9" y="315" class="st17" width="28.6" height="11.7"/>
			<rect x="961.9" y="334.5" class="st17" width="28.6" height="11.7"/>
			<rect x="946.9" y="370.2" class="st17" width="62.6" height="12.4"/>
		</g>
		<rect x="874.8" y="370.7" class="st8" width="2.6" height="27.9"/>
		<rect x="902.6" y="370.7" class="st8" width="2.6" height="27.9"/>
	</g>
	<g>
		<polygon class="st21" points="1926.9,398.6 1830.9,398.6 1830.9,185.9 1926.9,127.7 		"/>
		<rect x="1839.3" y="191.2" class="st22" width="87.6" height="7"/>
		<rect x="1839.3" y="204.2" class="st22" width="87.6" height="7"/>
		<rect x="1839.3" y="217.2" class="st22" width="87.6" height="7"/>
		<rect x="1839.3" y="230.3" class="st22" width="87.6" height="7"/>
		<rect x="1839.3" y="243.3" class="st22" width="87.6" height="7"/>
		<rect x="1839.3" y="256.3" class="st22" width="87.6" height="7"/>
		<rect x="1839.3" y="269.4" class="st22" width="87.6" height="7"/>
		<rect x="1839.3" y="282.5" class="st22" width="87.6" height="7"/>
		<rect x="1839.3" y="295.4" class="st22" width="87.6" height="7"/>
		<rect x="1839.3" y="308.5" class="st22" width="87.6" height="7"/>
		<rect x="1839.3" y="321.6" class="st22" width="87.6" height="7"/>
		<rect x="1839.3" y="334.5" class="st22" width="87.6" height="7"/>
		<rect x="1878.8" y="170" class="st13" width="44.3" height="13.1"/>
		<rect x="1863.4" y="189.4" class="st21" width="19.7" height="178.4"/>
		<rect x="1822.8" y="368.5" class="st23" width="91" height="11.5"/>
		<rect x="1830.9" y="380" class="st6" width="83" height="18.6"/>
		<circle class="st17" cx="1911.2" cy="157.6" r="7.3"/>
		<rect x="1855.4" y="380" class="st21" width="1.6" height="18.6"/>
		<rect x="1882.3" y="380" class="st21" width="1.6" height="18.6"/>
	</g>
	<g>
		<rect x="1736.4" y="272.9" class="st18" width="116.3" height="125.7"/>
		<rect x="1733.7" y="272.9" class="st22" width="121.7" height="3.1"/>
		<rect x="1730.4" y="281.9" class="st7" width="59.8" height="22"/>
		<rect x="1740.1" y="310.5" class="st6" width="12.2" height="10.3"/>
		<rect x="1759" y="310.5" class="st6" width="12.2" height="10.3"/>
		<rect x="1779" y="310.5" class="st6" width="12.2" height="10.3"/>
		<rect x="1797.9" y="310.5" class="st6" width="12.2" height="10.3"/>
		<rect x="1817.1" y="310.5" class="st6" width="12.2" height="10.3"/>
		<rect x="1836" y="310.5" class="st6" width="12.2" height="10.3"/>
		<rect x="1740.4" y="327.1" class="st6" width="12.2" height="10.3"/>
		<rect x="1759.4" y="327.1" class="st6" width="12.2" height="10.3"/>
		<rect x="1779.3" y="327.1" class="st6" width="12.2" height="10.3"/>
		<rect x="1798.3" y="327.1" class="st6" width="12.2" height="10.3"/>
		<rect x="1817.5" y="327.1" class="st6" width="12.2" height="10.3"/>
		<rect x="1836.4" y="327.1" class="st6" width="12.2" height="10.3"/>
		<rect x="1740.4" y="343.6" class="st6" width="12.2" height="10.3"/>
		<rect x="1759.4" y="343.6" class="st6" width="12.2" height="10.3"/>
		<rect x="1779.3" y="343.6" class="st6" width="12.2" height="10.3"/>
		<rect x="1798.3" y="343.6" class="st6" width="12.2" height="10.3"/>
		<rect x="1817.5" y="343.6" class="st6" width="12.2" height="10.3"/>
		<rect x="1836.4" y="343.6" class="st6" width="12.2" height="10.3"/>
		<rect x="1740.4" y="360.1" class="st6" width="12.2" height="10.3"/>
		<rect x="1759.4" y="360.1" class="st6" width="12.2" height="10.3"/>
		<rect x="1779.3" y="360.1" class="st6" width="12.2" height="10.3"/>
		<rect x="1798.3" y="360.1" class="st6" width="12.2" height="10.3"/>
		<rect x="1817.5" y="360.1" class="st6" width="12.2" height="10.3"/>
		<rect x="1836.4" y="360.1" class="st6" width="12.2" height="10.3"/>
		<rect x="1740.4" y="376.7" class="st6" width="12.2" height="10.3"/>
		<rect x="1759.4" y="376.7" class="st6" width="12.2" height="10.3"/>
		<rect x="1779.3" y="376.7" class="st6" width="12.2" height="10.3"/>
		<rect x="1798.3" y="376.7" class="st6" width="12.2" height="10.3"/>
		<rect x="1817.5" y="376.7" class="st6" width="12.2" height="10.3"/>
		<rect x="1836.4" y="376.7" class="st6" width="12.2" height="10.3"/>
		<rect x="1798.3" y="292" class="st17" width="50" height="6.9"/>
		<rect x="1798.3" y="281.9" class="st17" width="50" height="6.9"/>
	</g>
	<g>
		<g>
			<rect x="597" y="388.8" class="st24" width="2.2" height="9.3"/>
			<rect x="594.9" y="388.8" class="st25" width="2.2" height="9.3"/>
		</g>
		<polygon class="st26" points="597,352.8 584.1,389.6 597,391.4 		"/>
		<polygon class="st27" points="597,352.8 610,389.6 597,391.4 		"/>
	</g>
	<g>
		<g>
			<rect x="698.4" y="391.4" class="st24" width="1.6" height="6.7"/>
			<rect x="696.8" y="391.4" class="st25" width="1.6" height="6.7"/>
		</g>
		<polygon class="st26" points="698.4,365.4 689.1,392 698.4,393.3 		"/>
		<polygon class="st27" points="698.4,365.4 707.7,392 698.4,393.3 		"/>
	</g>
	<g>
		<g>
			<rect x="960.2" y="391.4" class="st24" width="1.6" height="6.7"/>
			<rect x="958.6" y="391.4" class="st25" width="1.6" height="6.7"/>
		</g>
		<polygon class="st26" points="960.2,365.4 950.8,392 960.2,393.3 		"/>
		<polygon class="st27" points="960.2,365.4 969.5,392 960.2,393.3 		"/>
	</g>
	<g>
		<path class="st27" d="M615.1,397c-0.6-1.7-2-3-3.8-3.4c0.1-0.2,0.1-0.5,0.1-0.8c0-2-1.6-3.6-3.6-3.6c-1.5,0-2.8,1-3.3,2.3
			c-0.8-0.6-1.8-1-2.9-1c-2.4,0-4.5,2-4.5,4.3c-0.1,0.1-0.1,0.2-0.2,0.3c-0.1,0-0.1,0-0.2,0c-0.6-0.5-1.4-0.8-2.3-0.8
			c-0.8,0-1.6,0.3-2.2,0.7s-0.8,1.1-0.6,1.7c0.2,0.6,0.8,1,1.5,1h22.2c0.2,0,0.4-0.1,0.4-0.3c0.1-0.2-0.1-0.4-0.3-0.5
			C615.5,397.1,615.3,397,615.1,397z"/>
		<path class="st26" d="M594.6,396.1h13.3c1.9,0,3.6-0.8,4.7-2c-0.4-0.2-0.8-0.3-1.3-0.4c0.1-0.2,0.1-0.5,0.1-0.8
			c0-2-1.6-3.6-3.6-3.6c-1.5,0-2.8,1-3.3,2.3c-0.8-0.6-1.8-1-2.9-1c-2.4,0-4.5,2-4.5,4.3c-0.1,0.1-0.1,0.2-0.2,0.3
			c-0.1,0-0.1,0-0.2,0c-0.6-0.5-1.4-0.8-2.3-0.8c-0.8,0-1.6,0.3-2.2,0.7c-0.1,0.1-0.2,0.2-0.3,0.3
			C592.8,395.9,593.7,396.1,594.6,396.1z"/>
	</g>
	<rect x="1076.1" y="193.9" class="st28" width="39.8" height="204.6"/>
	<rect x="1081.3" y="178.7" class="st2" width="29.3" height="15.3"/>
	<polygon class="st2" points="1076.1,398.6 1061.4,398.6 1061.4,218.8 1076.1,211.2 	"/>
	<polygon class="st2" points="1130.6,398.6 1115.9,398.6 1115.9,211.2 1130.6,218.8 	"/>
	<rect x="1088.6" y="172.7" class="st3" width="22.1" height="5.9"/>
	<g>
		<g>
			<rect x="522" y="384.3" class="st24" width="1.7" height="14.3"/>
			<rect x="520.4" y="384.3" class="st25" width="1.7" height="14.3"/>
		</g>
		<circle class="st27" cx="522" cy="374.1" r="12.8"/>
		<circle class="st26" cx="524.8" cy="377.4" r="3.6"/>
		<circle class="st26" cx="517.9" cy="366.8" r="4.1"/>
		<circle class="st26" cx="514.8" cy="374.6" r="1.5"/>
		<circle class="st26" cx="516.3" cy="380.6" r="3.1"/>
		<circle class="st26" cx="528.5" cy="367.5" r="1.3"/>
		<circle class="st26" cx="530.4" cy="377.8" r="1.3"/>
		<circle class="st26" cx="525.7" cy="383.7" r="2"/>
		<circle class="st26" cx="524.4" cy="370.9" r="0.7"/>
	</g>
	<g>
		<g>
			<rect x="771.6" y="384.3" class="st24" width="1.7" height="14.3"/>
			<rect x="770" y="384.3" class="st25" width="1.7" height="14.3"/>
		</g>
		<circle class="st27" cx="771.6" cy="374.1" r="12.8"/>
		<circle class="st26" cx="774.4" cy="377.4" r="3.6"/>
		<circle class="st26" cx="767.5" cy="366.8" r="4.1"/>
		<circle class="st26" cx="764.4" cy="374.6" r="1.5"/>
		<circle class="st26" cx="765.8" cy="380.6" r="3.1"/>
		<circle class="st26" cx="778" cy="367.5" r="1.3"/>
		<circle class="st26" cx="779.9" cy="377.8" r="1.3"/>
		<circle class="st26" cx="775.3" cy="383.7" r="2"/>
		<circle class="st26" cx="774" cy="370.9" r="0.7"/>
	</g>
	<g>
		<g>
			<rect x="1044.6" y="384.3" class="st24" width="1.7" height="14.3"/>
			<rect x="1042.9" y="384.3" class="st25" width="1.7" height="14.3"/>
		</g>
		<circle class="st27" cx="1044.6" cy="374.1" r="12.8"/>
		<circle class="st26" cx="1047.3" cy="377.4" r="3.6"/>
		<circle class="st26" cx="1040.5" cy="366.8" r="4.1"/>
		<circle class="st26" cx="1037.4" cy="374.6" r="1.5"/>
		<circle class="st26" cx="1038.8" cy="380.6" r="3.1"/>
		<circle class="st26" cx="1051" cy="367.5" r="1.3"/>
		<circle class="st26" cx="1052.9" cy="377.8" r="1.3"/>
		<circle class="st26" cx="1048.2" cy="383.7" r="2"/>
		<circle class="st26" cx="1047" cy="370.9" r="0.7"/>
	</g>
	<g>
		<g>
			<rect x="1931.4" y="384.3" class="st24" width="1.7" height="14.3"/>
			<rect x="1929.7" y="384.3" class="st25" width="1.7" height="14.3"/>
		</g>
		<circle class="st27" cx="1931.4" cy="374.1" r="12.8"/>
		<circle class="st26" cx="1934.1" cy="377.4" r="3.6"/>
		<circle class="st26" cx="1927.3" cy="366.8" r="4.1"/>
		<circle class="st26" cx="1924.2" cy="374.6" r="1.5"/>
		<circle class="st26" cx="1925.6" cy="380.6" r="3.1"/>
		<circle class="st26" cx="1937.8" cy="367.5" r="1.3"/>
		<circle class="st26" cx="1939.7" cy="377.8" r="1.3"/>
		<circle class="st26" cx="1935.1" cy="383.7" r="2"/>
		<circle class="st26" cx="1933.8" cy="370.9" r="0.7"/>
	</g>
	<g>
		<g>
			<rect x="1156.8" y="258.3" class="st29" width="69.6" height="54.5"/>
			<rect x="1141.1" y="313.2" class="st29" width="101.7" height="85.4"/>
			<rect x="1152" y="251.2" class="st30" width="79.5" height="7.1"/>
			<rect x="1136.6" y="306.1" class="st30" width="111" height="7.1"/>
			<rect x="1171.9" y="369.3" class="st30" width="39.6" height="5"/>
			<rect x="1164.4" y="267.9" class="st31" width="12.6" height="7.5"/>
			<rect x="1154.5" y="378.9" class="st31" width="12.6" height="19.7"/>
			<rect x="1216.5" y="378.9" class="st31" width="12.6" height="19.7"/>
			<rect x="1164.4" y="284.8" class="st31" width="12.6" height="7.5"/>
			<rect x="1206.7" y="267.9" class="st31" width="12.6" height="7.5"/>
			<rect x="1206.7" y="284.8" class="st31" width="12.6" height="7.5"/>
			<rect x="1185.8" y="267.9" class="st31" width="12.6" height="7.5"/>
			<rect x="1185.8" y="284.8" class="st31" width="12.6" height="7.5"/>
			<rect x="1156.8" y="320.9" class="st32" width="69.6" height="7.5"/>
			<rect x="1156.8" y="337.8" class="st32" width="69.6" height="7.5"/>
			<rect x="1156.8" y="353.5" class="st32" width="69.6" height="7.5"/>
			<rect x="1179.3" y="374.4" class="st22" width="24.2" height="24.2"/>
			<rect x="1191.4" y="317.6" class="st29" width="1.5" height="49.6"/>
		</g>
		<rect x="1177.1" y="240.6" class="st33" width="45.7" height="10.5"/>
	</g>
	<polygon class="st18" points="1545.5,399.3 1467.8,399.3 1467.8,246.6 1519.9,246.6 1545.5,266.7 	"/>
	<rect x="1474.4" y="233.8" class="st34" width="29.8" height="12.8"/>
	<rect x="1468" y="255.7" class="st31" width="52.7" height="7.5"/>
	<rect x="1468" y="267" class="st31" width="65.4" height="7.5"/>
	<rect x="1472.3" y="277.8" class="st2" width="9.2" height="3.4"/>
	<rect x="1484.1" y="277.8" class="st2" width="9.2" height="3.4"/>
	<rect x="1496.2" y="277.8" class="st2" width="9.2" height="3.4"/>
	<rect x="1508" y="277.8" class="st2" width="9.2" height="3.4"/>
	<rect x="1519.9" y="277.8" class="st2" width="9.2" height="3.4"/>
	<rect x="1531.8" y="277.8" class="st2" width="9.2" height="3.4"/>
	<rect x="1472.3" y="286.9" class="st2" width="9.2" height="3.4"/>
	<rect x="1484.1" y="286.9" class="st2" width="9.2" height="3.4"/>
	<rect x="1496.2" y="286.9" class="st2" width="9.2" height="3.4"/>
	<rect x="1508" y="286.9" class="st2" width="9.2" height="3.4"/>
	<rect x="1519.9" y="286.9" class="st2" width="9.2" height="3.4"/>
	<rect x="1531.8" y="286.9" class="st2" width="9.2" height="3.4"/>
	<rect x="1472.3" y="295.4" class="st2" width="9.2" height="3.4"/>
	<rect x="1484.1" y="295.4" class="st2" width="9.2" height="3.4"/>
	<rect x="1496.2" y="295.4" class="st2" width="9.2" height="3.4"/>
	<rect x="1508" y="295.4" class="st2" width="9.2" height="3.4"/>
	<rect x="1519.9" y="295.4" class="st2" width="9.2" height="3.4"/>
	<rect x="1531.8" y="295.4" class="st2" width="9.2" height="3.4"/>
	<rect x="1496.2" y="303.9" class="st2" width="9.2" height="3.4"/>
	<rect x="1508" y="303.9" class="st2" width="9.2" height="3.4"/>
	<rect x="1519.9" y="303.9" class="st2" width="9.2" height="3.4"/>
	<rect x="1531.8" y="303.9" class="st2" width="9.2" height="3.4"/>
	<rect x="1496.2" y="312.4" class="st2" width="9.2" height="3.4"/>
	<rect x="1508" y="312.4" class="st2" width="9.2" height="3.4"/>
	<rect x="1519.9" y="312.4" class="st2" width="9.2" height="3.4"/>
	<rect x="1531.8" y="312.4" class="st2" width="9.2" height="3.4"/>
	<rect x="1496.2" y="320.9" class="st2" width="9.2" height="3.4"/>
	<rect x="1508" y="320.9" class="st2" width="9.2" height="3.4"/>
	<rect x="1519.9" y="320.9" class="st2" width="9.2" height="3.4"/>
	<rect x="1531.8" y="320.9" class="st2" width="9.2" height="3.4"/>
	<rect x="1496.2" y="329.4" class="st2" width="9.2" height="3.4"/>
	<rect x="1508" y="329.4" class="st2" width="9.2" height="3.4"/>
	<rect x="1519.9" y="329.4" class="st2" width="9.2" height="3.4"/>
	<rect x="1531.8" y="329.4" class="st2" width="9.2" height="3.4"/>
	<rect x="1496.2" y="338" class="st2" width="9.2" height="3.4"/>
	<rect x="1508" y="338" class="st2" width="9.2" height="3.4"/>
	<rect x="1519.9" y="338" class="st2" width="9.2" height="3.4"/>
	<rect x="1531.8" y="338" class="st2" width="9.2" height="3.4"/>
	<rect x="1496.2" y="346.5" class="st2" width="9.2" height="3.4"/>
	<rect x="1508" y="346.5" class="st2" width="9.2" height="3.4"/>
	<rect x="1519.9" y="346.5" class="st2" width="9.2" height="3.4"/>
	<rect x="1531.8" y="346.5" class="st2" width="9.2" height="3.4"/>
	<rect x="1496.2" y="355" class="st2" width="9.2" height="3.4"/>
	<rect x="1508" y="355" class="st2" width="9.2" height="3.4"/>
	<rect x="1519.9" y="355" class="st2" width="9.2" height="3.4"/>
	<rect x="1531.8" y="355" class="st2" width="9.2" height="3.4"/>
	<rect x="1496.2" y="363.5" class="st2" width="9.2" height="3.4"/>
	<rect x="1508" y="363.5" class="st2" width="9.2" height="3.4"/>
	<rect x="1519.9" y="363.5" class="st2" width="9.2" height="3.4"/>
	<rect x="1531.8" y="363.5" class="st2" width="9.2" height="3.4"/>
	<g>
		<rect x="1345.7" y="303.9" class="st35" width="148" height="94.6"/>
		<rect x="1350.9" y="308.4" class="st36" width="138.3" height="4.9"/>
		<rect x="1360" y="291.2" class="st37" width="48.9" height="12.7"/>
		<rect x="1360" y="285.9" class="st37" width="13.5" height="5.2"/>
		<rect x="1350.9" y="317.4" class="st6" width="4.7" height="10.3"/>
		<rect x="1358.2" y="317.4" class="st6" width="4.7" height="10.3"/>
		<rect x="1365.9" y="317.4" class="st6" width="4.7" height="10.3"/>
		<rect x="1373.2" y="317.4" class="st6" width="4.7" height="10.3"/>
		<rect x="1380.6" y="317.4" class="st6" width="4.7" height="10.3"/>
		<rect x="1387.8" y="317.4" class="st6" width="4.7" height="10.3"/>
		<rect x="1395.2" y="317.4" class="st6" width="4.7" height="10.3"/>
		<rect x="1402.4" y="317.4" class="st6" width="4.7" height="10.3"/>
		<rect x="1410.1" y="317.4" class="st6" width="4.7" height="10.3"/>
		<rect x="1417.4" y="317.4" class="st6" width="4.7" height="10.3"/>
		<rect x="1424.9" y="317.4" class="st6" width="4.7" height="10.3"/>
		<rect x="1432.1" y="317.4" class="st6" width="4.7" height="10.3"/>
		<rect x="1439.2" y="317.4" class="st6" width="4.7" height="10.3"/>
		<rect x="1446.6" y="317.4" class="st6" width="4.7" height="10.3"/>
		<rect x="1453.8" y="317.4" class="st6" width="4.7" height="10.3"/>
		<rect x="1461.5" y="317.4" class="st6" width="4.7" height="10.3"/>
		<rect x="1468.8" y="317.4" class="st6" width="4.7" height="10.3"/>
		<rect x="1476.2" y="317.4" class="st6" width="4.7" height="10.3"/>
		<rect x="1483.5" y="317.4" class="st6" width="4.7" height="10.3"/>
		<rect x="1439.2" y="331.1" class="st6" width="4.7" height="10.3"/>
		<rect x="1446.6" y="331.1" class="st6" width="4.7" height="10.3"/>
		<rect x="1453.8" y="331.1" class="st6" width="4.7" height="10.3"/>
		<rect x="1461.5" y="331.1" class="st6" width="4.7" height="10.3"/>
		<rect x="1468.8" y="331.1" class="st6" width="4.7" height="10.3"/>
		<rect x="1476.2" y="331.1" class="st6" width="4.7" height="10.3"/>
		<rect x="1483.5" y="331.1" class="st6" width="4.7" height="10.3"/>
		<rect x="1439.2" y="344.7" class="st6" width="4.7" height="10.3"/>
		<rect x="1446.6" y="344.7" class="st6" width="4.7" height="10.3"/>
		<rect x="1453.8" y="344.7" class="st6" width="4.7" height="10.3"/>
		<rect x="1461.5" y="344.7" class="st6" width="4.7" height="10.3"/>
		<rect x="1468.8" y="344.7" class="st6" width="4.7" height="10.3"/>
		<rect x="1476.2" y="344.7" class="st6" width="4.7" height="10.3"/>
		<rect x="1483.5" y="344.7" class="st6" width="4.7" height="10.3"/>
		<rect x="1439.2" y="358.4" class="st6" width="4.7" height="10.3"/>
		<rect x="1446.6" y="358.4" class="st6" width="4.7" height="10.3"/>
		<rect x="1453.8" y="358.4" class="st6" width="4.7" height="10.3"/>
		<rect x="1461.5" y="358.4" class="st6" width="4.7" height="10.3"/>
		<rect x="1468.8" y="358.4" class="st6" width="4.7" height="10.3"/>
		<rect x="1476.2" y="358.4" class="st6" width="4.7" height="10.3"/>
		<rect x="1483.5" y="358.4" class="st6" width="4.7" height="10.3"/>
		<rect x="1439.2" y="371.6" class="st6" width="4.7" height="10.3"/>
		<rect x="1446.6" y="371.6" class="st6" width="4.7" height="10.3"/>
		<rect x="1453.8" y="371.6" class="st6" width="4.7" height="10.3"/>
		<rect x="1461.5" y="371.6" class="st6" width="4.7" height="10.3"/>
		<rect x="1468.8" y="371.6" class="st6" width="4.7" height="10.3"/>
		<rect x="1476.2" y="371.6" class="st6" width="4.7" height="10.3"/>
		<rect x="1483.5" y="371.6" class="st6" width="4.7" height="10.3"/>
		<rect x="1350.9" y="331.1" class="st6" width="4.7" height="10.3"/>
		<rect x="1358.2" y="331.1" class="st6" width="4.7" height="10.3"/>
		<rect x="1365.9" y="331.1" class="st6" width="4.7" height="10.3"/>
		<rect x="1373.2" y="331.1" class="st6" width="4.7" height="10.3"/>
		<rect x="1380.6" y="331.1" class="st6" width="4.7" height="10.3"/>
		<rect x="1387.8" y="331.1" class="st6" width="4.7" height="10.3"/>
		<rect x="1395.2" y="331.1" class="st6" width="4.7" height="10.3"/>
		<rect x="1402.4" y="331.1" class="st6" width="4.7" height="10.3"/>
		<rect x="1410.1" y="331.1" class="st6" width="4.7" height="10.3"/>
		<rect x="1417.4" y="331.1" class="st6" width="4.7" height="10.3"/>
		<rect x="1424.9" y="331.1" class="st6" width="4.7" height="10.3"/>
		<rect x="1432.1" y="331.1" class="st6" width="4.7" height="10.3"/>
		<rect x="1350.9" y="344.7" class="st6" width="4.7" height="10.3"/>
		<rect x="1358.2" y="344.7" class="st6" width="4.7" height="10.3"/>
		<rect x="1365.9" y="344.7" class="st6" width="4.7" height="10.3"/>
		<rect x="1373.2" y="344.7" class="st6" width="4.7" height="10.3"/>
		<rect x="1380.6" y="344.7" class="st6" width="4.7" height="10.3"/>
		<rect x="1387.8" y="344.7" class="st6" width="4.7" height="10.3"/>
		<rect x="1395.2" y="344.7" class="st6" width="4.7" height="10.3"/>
		<rect x="1402.4" y="344.7" class="st6" width="4.7" height="10.3"/>
		<rect x="1410.1" y="344.7" class="st6" width="4.7" height="10.3"/>
		<rect x="1417.4" y="344.7" class="st6" width="4.7" height="10.3"/>
		<rect x="1424.9" y="344.7" class="st6" width="4.7" height="10.3"/>
		<rect x="1432.1" y="344.7" class="st6" width="4.7" height="10.3"/>
		<rect x="1350.9" y="358.4" class="st6" width="4.7" height="10.3"/>
		<rect x="1358.2" y="358.4" class="st6" width="4.7" height="10.3"/>
		<rect x="1365.9" y="358.4" class="st6" width="4.7" height="10.3"/>
		<rect x="1373.2" y="358.4" class="st6" width="4.7" height="10.3"/>
		<rect x="1380.6" y="358.4" class="st6" width="4.7" height="10.3"/>
		<rect x="1387.8" y="358.4" class="st6" width="4.7" height="10.3"/>
		<rect x="1395.2" y="358.4" class="st6" width="4.7" height="10.3"/>
		<rect x="1402.4" y="358.4" class="st6" width="4.7" height="10.3"/>
		<rect x="1410.1" y="358.4" class="st6" width="4.7" height="10.3"/>
		<rect x="1417.4" y="358.4" class="st6" width="4.7" height="10.3"/>
		<rect x="1424.9" y="358.4" class="st6" width="4.7" height="10.3"/>
		<rect x="1432.1" y="358.4" class="st6" width="4.7" height="10.3"/>
		<rect x="1350.9" y="371.6" class="st6" width="4.7" height="10.3"/>
		<rect x="1358.2" y="371.6" class="st6" width="4.7" height="10.3"/>
		<rect x="1365.9" y="371.6" class="st6" width="4.7" height="10.3"/>
		<rect x="1373.2" y="371.6" class="st6" width="4.7" height="10.3"/>
		<rect x="1380.6" y="371.6" class="st6" width="4.7" height="10.3"/>
		<rect x="1387.8" y="371.6" class="st6" width="4.7" height="10.3"/>
		<rect x="1395.2" y="371.6" class="st6" width="4.7" height="10.3"/>
		<rect x="1402.4" y="371.6" class="st6" width="4.7" height="10.3"/>
		<rect x="1410.1" y="371.6" class="st6" width="4.7" height="10.3"/>
		<rect x="1417.4" y="371.6" class="st6" width="4.7" height="10.3"/>
		<rect x="1424.9" y="371.6" class="st6" width="4.7" height="10.3"/>
		<rect x="1432.1" y="371.6" class="st6" width="4.7" height="10.3"/>
	</g>
	<rect x="1076.1" y="284" class="st0" width="15.9" height="9.4"/>
	<rect x="1076.1" y="302.6" class="st0" width="15.9" height="9.4"/>
	<rect x="1076.1" y="321.3" class="st0" width="15.9" height="9.4"/>
	<rect x="1076.1" y="338" class="st0" width="15.9" height="9.4"/>
	<rect x="1076.1" y="211.3" class="st0" width="15.9" height="9.4"/>
	<rect x="1076.1" y="229.9" class="st0" width="15.9" height="9.4"/>
	<rect x="1076.1" y="248.6" class="st0" width="15.9" height="9.4"/>
	<rect x="1076.1" y="265.3" class="st0" width="15.9" height="9.4"/>
	<rect x="1076.1" y="354.7" class="st0" width="15.9" height="9.4"/>
	<rect x="1100.1" y="284" class="st0" width="15.9" height="9.4"/>
	<rect x="1100.1" y="302.6" class="st0" width="15.9" height="9.4"/>
	<rect x="1100.1" y="321.3" class="st0" width="15.9" height="9.4"/>
	<rect x="1100.1" y="338" class="st0" width="15.9" height="9.4"/>
	<rect x="1100.1" y="211.3" class="st0" width="15.9" height="9.4"/>
	<rect x="1100.1" y="229.9" class="st0" width="15.9" height="9.4"/>
	<rect x="1100.1" y="248.6" class="st0" width="15.9" height="9.4"/>
	<rect x="1100.1" y="265.3" class="st0" width="15.9" height="9.4"/>
	<rect x="1100.1" y="354.7" class="st0" width="15.9" height="9.4"/>
	<g>
		<rect x="1267.4" y="199.7" class="st11" width="89.2" height="198.8"/>
		<rect x="1274.4" y="191.2" class="st8" width="21.1" height="8.5"/>
		<rect x="1345.7" y="211.2" class="st28" width="11" height="9.4"/>
		<rect x="1345.7" y="229.8" class="st28" width="11" height="9.4"/>
		<rect x="1345.7" y="248.4" class="st28" width="11" height="9.4"/>
		<rect x="1345.7" y="265.2" class="st28" width="11" height="9.4"/>
		<rect x="1345.7" y="281.8" class="st28" width="11" height="9.4"/>
		<rect x="1345.7" y="298.5" class="st28" width="11" height="9.4"/>
		<rect x="1345.7" y="317.2" class="st28" width="11" height="9.4"/>
		<rect x="1345.7" y="335.8" class="st28" width="11" height="9.4"/>
		<rect x="1267.4" y="211.2" class="st28" width="73.7" height="9.4"/>
		<rect x="1267.4" y="229.8" class="st28" width="73.7" height="9.4"/>
		<rect x="1267.4" y="248.4" class="st28" width="73.7" height="9.4"/>
		<rect x="1267.4" y="265.2" class="st28" width="73.7" height="9.4"/>
		<rect x="1267.4" y="281.8" class="st28" width="73.7" height="9.4"/>
		<rect x="1267.4" y="298.5" class="st28" width="73.7" height="9.4"/>
		<rect x="1267.4" y="317.2" class="st28" width="73.7" height="9.4"/>
		<rect x="1267.4" y="335.8" class="st28" width="73.7" height="9.4"/>
		<rect x="1345.7" y="352.6" class="st28" width="11" height="9.4"/>
		<rect x="1267.4" y="352.6" class="st28" width="73.7" height="9.4"/>
		<rect x="1267.4" y="376.8" class="st33" width="44.6" height="21.7"/>
		<rect x="1263.3" y="374.8" class="st18" width="48.7" height="2.1"/>
		<rect x="1280.9" y="376.8" class="st8" width="2.6" height="21.6"/>
		<rect x="1297.1" y="376.8" class="st8" width="2.6" height="21.6"/>
	</g>
	<g>
		<g>
			<rect x="1251.3" y="388.8" class="st24" width="2.2" height="9.3"/>
			<rect x="1249.1" y="388.8" class="st25" width="2.2" height="9.3"/>
		</g>
		<polygon class="st26" points="1251.3,352.8 1238.3,389.6 1251.3,391.4 		"/>
		<polygon class="st27" points="1251.3,352.8 1264.2,389.6 1251.3,391.4 		"/>
	</g>
	<g>
		<path class="st27" d="M1269.4,397c-0.6-1.7-2-3-3.8-3.4c0.1-0.2,0.1-0.5,0.1-0.8c0-2-1.6-3.6-3.6-3.6c-1.5,0-2.8,1-3.3,2.3
			c-0.8-0.6-1.8-1-2.9-1c-2.4,0-4.5,2-4.5,4.3c-0.1,0.1-0.1,0.2-0.2,0.3c-0.1,0-0.1,0-0.2,0c-0.6-0.5-1.4-0.8-2.3-0.8
			c-0.8,0-1.6,0.3-2.2,0.7c-0.6,0.4-0.8,1.1-0.6,1.7c0.2,0.6,0.8,1,1.5,1h22.2c0.2,0,0.4-0.1,0.4-0.3c0.1-0.2-0.1-0.4-0.3-0.5
			C1269.7,397.1,1269.5,397,1269.4,397z"/>
		<path class="st26" d="M1248.9,396.1h13.3c1.9,0,3.6-0.8,4.7-2c-0.4-0.2-0.8-0.3-1.3-0.4c0.1-0.2,0.1-0.5,0.1-0.8
			c0-2-1.6-3.6-3.6-3.6c-1.5,0-2.8,1-3.3,2.3c-0.8-0.6-1.8-1-2.9-1c-2.4,0-4.5,2-4.5,4.3c-0.1,0.1-0.1,0.2-0.2,0.3
			c-0.1,0-0.1,0-0.2,0c-0.6-0.5-1.4-0.8-2.3-0.8c-0.8,0-1.6,0.3-2.2,0.7c-0.1,0.1-0.2,0.2-0.3,0.3
			C1247.1,395.9,1248,396.1,1248.9,396.1z"/>
	</g>
	<g>
		<g>
			<rect x="1708.9" y="388.8" class="st24" width="2.2" height="9.3"/>
			<rect x="1706.8" y="388.8" class="st25" width="2.2" height="9.3"/>
		</g>
		<polygon class="st26" points="1708.9,352.8 1696,389.6 1708.9,391.4 		"/>
		<polygon class="st27" points="1708.9,352.8 1721.9,389.6 1708.9,391.4 		"/>
	</g>
	<g>
		<path class="st27" d="M1727.1,397c-0.6-1.7-2-3-3.8-3.4c0.1-0.2,0.1-0.5,0.1-0.8c0-2-1.6-3.6-3.6-3.6c-1.5,0-2.8,1-3.3,2.3
			c-0.8-0.6-1.8-1-2.9-1c-2.4,0-4.5,2-4.5,4.3c-0.1,0.1-0.1,0.2-0.2,0.3c-0.1,0-0.1,0-0.2,0c-0.6-0.5-1.4-0.8-2.3-0.8
			c-0.8,0-1.6,0.3-2.2,0.7c-0.6,0.4-0.8,1.1-0.6,1.7c0.2,0.6,0.8,1,1.5,1h22.2c0.2,0,0.4-0.1,0.4-0.3c0.1-0.2-0.1-0.4-0.3-0.5
			C1727.4,397.1,1727.2,397,1727.1,397z"/>
		<path class="st26" d="M1706.5,396.1h13.3c1.9,0,3.6-0.8,4.7-2c-0.4-0.2-0.8-0.3-1.3-0.4c0.1-0.2,0.1-0.5,0.1-0.8
			c0-2-1.6-3.6-3.6-3.6c-1.5,0-2.8,1-3.3,2.3c-0.8-0.6-1.8-1-2.9-1c-2.4,0-4.5,2-4.5,4.3c-0.1,0.1-0.1,0.2-0.2,0.3
			c-0.1,0-0.1,0-0.2,0c-0.6-0.5-1.4-0.8-2.3-0.8c-0.8,0-1.6,0.3-2.2,0.7c-0.1,0.1-0.2,0.2-0.3,0.3
			C1704.7,395.9,1705.6,396.1,1706.5,396.1z"/>
	</g>
	<g>
		<path class="st10" d="M2051.6,398.6H461.4c-9.4,0-17,7.2-17.7,16.3h1625.7C2068.6,405.7,2061,398.6,2051.6,398.6z"/>
		<path class="st10" d="M461.4,434.2h1590.2c8.6,0,15.8-6.1,17.5-14.2H443.9C445.6,428.1,452.8,434.2,461.4,434.2z"/>
		<path class="st38" d="M2069.3,414.9H443.6c-0.1,0.5-0.1,1-0.1,1.5c0,1.3,0.1,2.4,0.3,3.6h1625.2c0.2-1.2,0.3-2.4,0.3-3.6
			C2069.4,415.8,2069.4,415.3,2069.3,414.9z"/>
	</g>
	<g>
		<g>
			<rect x="1446.1" y="391.4" class="st24" width="1.6" height="6.7"/>
			<rect x="1444.6" y="391.4" class="st25" width="1.6" height="6.7"/>
		</g>
		<polygon class="st26" points="1446.1,365.4 1436.9,392 1446.1,393.3 		"/>
		<polygon class="st27" points="1446.1,365.4 1455.5,392 1446.1,393.3 		"/>
	</g>
	<g>
		<g>
			<rect x="1457.1" y="390.3" class="st24" width="1.8" height="7.8"/>
			<rect x="1455.2" y="390.3" class="st25" width="1.8" height="7.8"/>
		</g>
		<polygon class="st26" points="1457.1,359.9 1446.1,391 1457.1,392.4 		"/>
		<polygon class="st27" points="1457.1,359.9 1468,391 1457.1,392.4 		"/>
	</g>
	<g>
		<g>
			<rect x="1141.1" y="391.4" class="st24" width="1.6" height="6.7"/>
			<rect x="1139.6" y="391.4" class="st25" width="1.6" height="6.7"/>
		</g>
		<polygon class="st26" points="1141.1,365.4 1131.8,392 1141.1,393.3 		"/>
		<polygon class="st27" points="1141.1,365.4 1150.5,392 1141.1,393.3 		"/>
	</g>
	<rect x="1319" y="381.1" class="st28" width="37.6" height="9.4"/>
	<g>
		<g>
			<rect x="1567" y="221" class="st33" width="74" height="177.6"/>
			<rect x="1579.6" y="201.1" class="st33" width="48.9" height="20.2"/>
			<rect x="1601.8" y="159.1" class="st33" width="4.4" height="42"/>
			<rect x="1575.4" y="230.8" class="st6" width="17.7" height="148.7"/>
			<rect x="1615" y="230.8" class="st8" width="17.7" height="110.3"/>
		</g>
		<rect x="1599.4" y="231" class="st2" width="9.2" height="3.4"/>
		<rect x="1599.4" y="240" class="st2" width="9.2" height="3.4"/>
		<rect x="1599.4" y="248.5" class="st2" width="9.2" height="3.4"/>
		<rect x="1599.4" y="257" class="st2" width="9.2" height="3.4"/>
		<rect x="1599.4" y="265.6" class="st2" width="9.2" height="3.4"/>
		<rect x="1599.4" y="274.1" class="st2" width="9.2" height="3.4"/>
		<rect x="1599.4" y="282.6" class="st2" width="9.2" height="3.4"/>
		<rect x="1599.4" y="291.1" class="st2" width="9.2" height="3.4"/>
		<rect x="1599.4" y="299.6" class="st2" width="9.2" height="3.4"/>
		<rect x="1599.4" y="308.1" class="st2" width="9.2" height="3.4"/>
		<rect x="1599.4" y="316.6" class="st2" width="9.2" height="3.4"/>
		<rect x="1599.4" y="345.2" class="st21" width="33.2" height="3.6"/>
		<rect x="1599.4" y="351.4" class="st21" width="33.2" height="3.6"/>
		<rect x="1599.4" y="357.7" class="st21" width="33.2" height="3.6"/>
		<rect x="1599.4" y="363.9" class="st21" width="33.2" height="3.6"/>
		<rect x="1599.4" y="370.2" class="st21" width="33.2" height="3.6"/>
		<rect x="1599.4" y="376.4" class="st21" width="33.2" height="3.6"/>
	</g>
	<g>
		<g>
			<rect x="1562.6" y="384.3" class="st24" width="1.7" height="14.3"/>
			<rect x="1561" y="384.3" class="st25" width="1.7" height="14.3"/>
		</g>
		<circle class="st27" cx="1562.6" cy="374.1" r="12.8"/>
		<circle class="st26" cx="1565.4" cy="377.4" r="3.6"/>
		<circle class="st26" cx="1558.5" cy="366.8" r="4.1"/>
		<circle class="st26" cx="1555.4" cy="374.6" r="1.5"/>
		<circle class="st26" cx="1556.9" cy="380.6" r="3.1"/>
		<circle class="st26" cx="1569" cy="367.5" r="1.3"/>
		<circle class="st26" cx="1570.9" cy="377.8" r="1.3"/>
		<circle class="st26" cx="1566.3" cy="383.7" r="2"/>
		<circle class="st26" cx="1565" cy="370.9" r="0.7"/>
	</g>
	<rect x="1593.1" y="216.2" class="st34" width="35.4" height="5.1"/>
	<path class="st11" d="M717.6,90.8c0-0.1,0-0.1,0-0.1c0-7.1-5.7-12.8-12.8-12.8c-1.7,0-3.4,0.3-5,1c-2.3-3.4-6.1-5.5-10.5-5.5
		c-7.1,0-12.8,5.7-12.8,12.8c0,0.1,0,0.2,0,0.3c-0.9-0.2-1.9-0.3-2.9-0.3c-7.1,0-12.8,5.7-12.8,12.8c0,7.1,5.7,12.8,12.8,12.8h42.5
		c5.9,0,10.5-4.7,10.5-10.5C726.7,95.9,722.7,91.5,717.6,90.8z"/>
	<path class="st11" d="M1781.1,149.1L1781.1,149.1c0-4.8-3.8-8.7-8.6-8.7c-1.2,0-2.3,0.2-3.3,0.7c-1.5-2.2-4.1-3.7-7.1-3.7
		c-4.7,0-8.6,3.8-8.6,8.6c0,0.1,0,0.1,0,0.2c-0.6-0.1-1.3-0.2-1.9-0.2c-4.7,0-8.6,3.8-8.6,8.6s3.8,8.6,8.6,8.6h28.4
		c3.9,0,7.1-3.1,7.1-7.1C1787.1,152.6,1784.5,149.7,1781.1,149.1z"/>
	<path class="st11" d="M1426.5,211.9L1426.5,211.9c0-2.4-1.9-4.3-4.3-4.3c-0.3,0-0.6,0.1-1,0.1c-0.3-3.2-3.1-5.7-6.4-5.7
		c-0.9,0-1.7,0.2-2.5,0.5c-1.2-1.7-3.1-2.7-5.2-2.7c-3.6,0-6.4,2.9-6.4,6.4c0,0.1,0,0.1,0,0.1c-0.5-0.1-0.9-0.1-1.4-0.1
		c-3.6,0-6.4,2.9-6.4,6.4c0,3.6,2.9,6.4,6.4,6.4h12.5h8.7h5.4c2,0,3.6-1.6,3.6-3.6C1429.5,213.6,1428.2,212.1,1426.5,211.9z"/>	
</g>
</svg>
