<svg width="187" height="174" viewBox="0 0 187 174" fill="none" xmlns="http://www.w3.org/2000/svg">
<path d="M109.026 128.665C109.026 142.853 93.1548 174 93.1548 174C93.1548 174 77.2839 142.853 77.2839 128.665C77.2826 125.29 77.6921 121.948 78.4891 118.829C79.2861 115.71 80.4549 112.876 81.9288 110.489C83.4026 108.102 85.1527 106.208 87.0789 104.916C89.0051 103.624 91.0697 102.959 93.1548 102.959C95.2398 102.959 97.3045 103.624 99.2307 104.916C101.157 106.208 102.907 108.102 104.381 110.489C105.855 112.876 107.024 115.71 107.82 118.829C108.617 121.948 109.027 125.29 109.026 128.665V128.665Z" fill="white"/>
<path d="M173.17 0H13.8301C6.19196 0 0 5.01059 0 11.1915V140.13C0 146.311 6.19196 151.322 13.8301 151.322H173.17C180.808 151.322 187 146.311 187 140.13V11.1915C187 5.01059 180.808 0 173.17 0Z" fill="white"/>
<rect x="91" y="57" width="4" height="65" fill="#D95033"/>
</svg>
