<svg width="367" height="392" viewBox="0 0 367 392" fill="none" xmlns="http://www.w3.org/2000/svg">
<path d="M158.263 120.798L136.063 140.567L175.28 184.309L197.479 164.539L158.263 120.798Z" fill="#8ED16F"/>
<path d="M174.734 162.011C177.25 159.77 175.594 153.831 171.035 148.746C166.476 143.661 160.74 141.355 158.224 143.596C155.707 145.837 157.363 151.776 161.923 156.861C166.482 161.946 172.218 164.252 174.734 162.011Z" fill="#8ED16F"/>
<path opacity="0.1" d="M174.734 162.011C177.25 159.77 175.594 153.831 171.035 148.746C166.476 143.661 160.74 141.355 158.224 143.596C155.707 145.837 157.363 151.776 161.923 156.861C166.482 161.946 172.218 164.252 174.734 162.011Z" fill="black"/>
<path d="M269.979 65.4851L247.78 85.2544L286.996 128.996L309.195 109.226L269.979 65.4851Z" fill="#8ED16F"/>
<path d="M286.45 106.698C288.966 104.457 287.31 98.5183 282.751 93.433C278.192 88.3478 272.456 86.0419 269.94 88.2827C267.423 90.5235 269.079 96.4625 273.639 101.548C278.198 106.633 283.934 108.939 286.45 106.698Z" fill="#8ED16F"/>
<path opacity="0.1" d="M286.45 106.698C288.966 104.457 287.31 98.5183 282.751 93.433C278.192 88.3478 272.456 86.0419 269.94 88.2827C267.423 90.5235 269.079 96.4625 273.639 101.548C278.198 106.633 283.934 108.939 286.45 106.698Z" fill="black"/>
<path d="M315.877 195.545L286.697 188.33L273.426 244.896L302.605 252.111L315.877 195.545Z" fill="#8ED16F"/>
<path d="M291.49 232.035C294.797 232.853 298.729 228.184 300.272 221.608C301.815 215.032 300.384 209.038 297.077 208.22C293.769 207.402 289.837 212.07 288.295 218.646C286.752 225.223 288.182 231.217 291.49 232.035Z" fill="#8ED16F"/>
<path opacity="0.1" d="M291.49 232.035C294.797 232.853 298.729 228.184 300.272 221.608C301.815 215.032 300.384 209.038 297.077 208.22C293.769 207.402 289.837 212.07 288.295 218.646C286.752 225.223 288.182 231.217 291.49 232.035Z" fill="black"/>
<path d="M162.685 300.778L140.485 320.547L179.701 364.288L201.901 344.519L162.685 300.778Z" fill="#8ED16F"/>
<path d="M179.168 342C181.684 339.76 180.028 333.821 175.469 328.735C170.91 323.65 165.174 321.344 162.658 323.585C160.141 325.826 161.797 331.765 166.357 336.85C170.916 341.935 176.652 344.241 179.168 342Z" fill="#8ED16F"/>
<path opacity="0.1" d="M179.168 342C181.684 339.76 180.028 333.821 175.469 328.735C170.91 323.65 165.174 321.344 162.658 323.585C160.141 325.826 161.797 331.765 166.357 336.85C170.916 341.935 176.652 344.241 179.168 342Z" fill="black"/>
<path d="M54.952 191.647L32.7522 211.416L71.9682 255.157L94.168 235.388L54.952 191.647Z" fill="#8ED16F"/>
<path d="M71.428 232.866C73.9443 230.625 72.2883 224.686 67.7291 219.601C63.1699 214.515 57.434 212.21 54.9177 214.45C52.4013 216.691 54.0574 222.63 58.6166 227.716C63.1758 232.801 68.9117 235.107 71.428 232.866Z" fill="#8ED16F"/>
<path opacity="0.1" d="M71.428 232.866C73.9443 230.625 72.2883 224.686 67.7291 219.601C63.1699 214.515 57.434 212.21 54.9177 214.45C52.4013 216.691 54.0574 222.63 58.6166 227.716C63.1758 232.801 68.9117 235.107 71.428 232.866Z" fill="black"/>
</svg>
