<svg width="280" height="279" viewBox="0 0 280 279" fill="none" xmlns="http://www.w3.org/2000/svg">
<circle cx="139.513" cy="139.079" r="124.288" fill="#468AB5"/>
<path d="M47.3614 159.471L44.3718 151.962L104.652 147.704L107.589 155.139L47.3614 159.471Z" fill="white"/>
<path opacity="0.15" d="M47.3614 159.471L44.3718 151.962L104.652 147.704L107.589 155.139L47.3614 159.471Z" fill="black"/>
<path d="M43.3399 159.711L40.3503 152.202L100.63 147.944L103.568 155.379L43.3399 159.711Z" fill="white"/>
<path d="M145.591 141.792C139.354 142.165 134.288 140 130.392 135.297C126.496 130.595 124.333 124.745 123.903 117.749C123.47 110.705 124.842 104.657 128.02 99.6034C131.197 94.5501 135.951 91.8368 142.28 91.4637C148.992 91.0628 154.207 93.3138 157.923 98.2166C161.639 103.119 163.704 108.927 164.118 115.64C164.527 122.305 163.125 128.237 159.91 133.434C156.694 138.632 151.921 141.418 145.591 141.792ZM145.433 136.25C149.536 136.005 152.494 134.046 154.306 130.373C156.117 126.699 156.857 122.161 156.525 116.757C156.155 110.742 154.814 105.879 152.5 102.168C150.187 98.4569 146.882 96.729 142.587 96.9843C134.422 97.4719 130.736 104.157 131.528 117.038C132.346 130.352 136.98 136.756 145.43 136.25L145.433 136.25ZM150.744 189.098L141.723 189.636L194.829 89.3148L203.679 88.7862L150.744 189.098ZM203.05 186.971C196.719 187.349 191.631 185.162 187.786 180.412C183.941 175.661 181.798 169.81 181.356 162.858C180.926 155.862 182.287 149.838 185.441 144.786C188.594 139.734 193.359 137.02 199.738 136.644C206.402 136.246 211.581 138.499 215.274 143.403C218.967 148.307 221.021 154.115 221.434 160.827C221.841 167.448 220.45 173.368 217.259 178.586C214.068 183.804 209.331 186.599 203.046 186.971L203.05 186.971ZM202.807 181.291C206.891 181.047 209.833 179.12 211.636 175.508C213.438 171.896 214.172 167.376 213.838 161.948C213.481 156.139 212.161 151.328 209.878 147.515C207.595 143.703 204.294 141.922 199.975 142.174C191.763 142.664 188.053 149.351 188.845 162.232C189.655 175.447 194.308 181.8 202.803 181.292L202.807 181.291Z" fill="white"/>
<path d="M145.591 141.792C139.354 142.165 134.288 140 130.392 135.297C126.496 130.595 124.333 124.745 123.903 117.749C123.47 110.705 124.842 104.657 128.02 99.6034C131.197 94.5501 135.951 91.8368 142.28 91.4637C148.992 91.0628 154.207 93.3138 157.923 98.2166C161.639 103.119 163.704 108.927 164.118 115.64C164.527 122.305 163.125 128.237 159.91 133.434C156.694 138.632 151.921 141.418 145.591 141.792ZM145.433 136.25C149.536 136.005 152.494 134.046 154.306 130.373C156.117 126.699 156.857 122.161 156.525 116.757C156.155 110.742 154.814 105.879 152.5 102.168C150.187 98.4569 146.882 96.729 142.587 96.9843C134.422 97.4719 130.736 104.157 131.528 117.038C132.346 130.352 136.98 136.756 145.43 136.25L145.433 136.25ZM150.744 189.098L141.723 189.636L194.829 89.3148L203.679 88.7862L150.744 189.098ZM203.05 186.971C196.719 187.349 191.631 185.162 187.786 180.412C183.941 175.661 181.798 169.81 181.356 162.858C180.926 155.862 182.287 149.838 185.441 144.786C188.594 139.734 193.359 137.02 199.738 136.644C206.402 136.246 211.581 138.499 215.274 143.403C218.967 148.307 221.021 154.115 221.434 160.827C221.841 167.448 220.45 173.368 217.259 178.586C214.068 183.804 209.331 186.599 203.046 186.971L203.05 186.971ZM202.807 181.291C206.891 181.047 209.833 179.12 211.636 175.508C213.438 171.896 214.172 167.376 213.838 161.948C213.481 156.139 212.161 151.328 209.878 147.515C207.595 143.703 204.294 141.922 199.975 142.174C191.763 142.664 188.053 149.351 188.845 162.232C189.655 175.447 194.308 181.8 202.803 181.292L202.807 181.291Z" fill="white"/>
<path opacity="0.15" d="M145.591 141.792C139.354 142.165 134.288 140 130.392 135.297C126.496 130.595 124.333 124.745 123.903 117.749C123.47 110.705 124.842 104.657 128.02 99.6034C131.197 94.5501 135.951 91.8368 142.28 91.4637C148.992 91.0628 154.207 93.3138 157.923 98.2166C161.639 103.119 163.704 108.927 164.118 115.64C164.527 122.305 163.125 128.237 159.91 133.434C156.694 138.632 151.921 141.418 145.591 141.792ZM145.433 136.25C149.536 136.005 152.494 134.046 154.306 130.373C156.117 126.699 156.857 122.161 156.525 116.757C156.155 110.742 154.814 105.879 152.5 102.168C150.187 98.4569 146.882 96.729 142.587 96.9843C134.422 97.4719 130.736 104.157 131.528 117.038C132.346 130.352 136.98 136.756 145.43 136.25L145.433 136.25ZM150.744 189.098L141.723 189.636L194.829 89.3148L203.679 88.7862L150.744 189.098ZM203.05 186.971C196.719 187.349 191.631 185.162 187.786 180.412C183.941 175.661 181.798 169.81 181.356 162.858C180.926 155.862 182.287 149.838 185.441 144.786C188.594 139.734 193.359 137.02 199.738 136.644C206.402 136.246 211.581 138.499 215.274 143.403C218.967 148.307 221.021 154.115 221.434 160.827C221.841 167.448 220.45 173.368 217.259 178.586C214.068 183.804 209.331 186.599 203.046 186.971L203.05 186.971ZM202.807 181.291C206.891 181.047 209.833 179.12 211.636 175.508C213.438 171.896 214.172 167.376 213.838 161.948C213.481 156.139 212.161 151.328 209.878 147.515C207.595 143.703 204.294 141.922 199.975 142.174C191.763 142.664 188.053 149.351 188.845 162.232C189.655 175.447 194.308 181.8 202.803 181.292L202.807 181.291Z" fill="black"/>
<path d="M139.924 142.131C133.688 142.503 128.621 140.338 124.725 135.636C120.829 130.933 118.666 125.084 118.236 118.087C117.803 111.044 119.176 104.995 122.353 99.9418C125.531 94.8885 130.284 92.1752 136.614 91.8021C143.326 91.4012 148.54 93.6522 152.256 98.555C155.973 103.458 158.038 109.266 158.451 115.979C158.861 122.644 157.458 128.575 154.243 133.773C151.028 138.97 146.255 141.756 139.924 142.131ZM139.767 136.589C143.87 136.343 146.827 134.384 148.639 130.711C150.451 127.038 151.191 122.499 150.859 117.096C150.489 111.081 149.147 106.218 146.834 102.506C144.521 98.7953 141.216 97.0674 136.92 97.3227C128.756 97.8103 125.069 104.495 125.861 117.377C126.68 130.691 131.314 137.095 139.763 136.589L139.767 136.589ZM145.078 189.436L136.057 189.975L189.162 89.6532L198.013 89.1246L145.078 189.436ZM197.383 187.309C191.053 187.687 185.965 185.501 182.12 180.75C178.275 176 176.131 170.148 175.689 163.197C175.259 156.2 176.621 150.176 179.774 145.124C182.927 140.072 187.693 137.358 194.072 136.982C200.736 136.584 205.915 138.837 209.608 143.741C213.301 148.646 215.354 154.454 215.768 161.166C216.175 167.787 214.783 173.706 211.593 178.925C208.402 184.143 203.664 186.938 197.38 187.309L197.383 187.309ZM197.141 181.63C201.224 181.386 204.167 179.458 205.969 175.846C207.771 172.234 208.506 167.714 208.172 162.286C207.815 156.477 206.495 151.666 204.212 147.854C201.929 144.041 198.627 142.261 194.305 142.513C186.093 143.003 182.383 149.689 183.175 162.571C183.987 175.786 188.641 182.139 197.137 181.63L197.141 181.63Z" fill="white"/>
</svg>
