<svg width="428" height="423" viewBox="0 0 428 423" fill="none" xmlns="http://www.w3.org/2000/svg">
<path d="M250.393 386.111C348.198 366.159 411.076 271.835 390.834 175.432C370.592 79.0295 274.897 17.0534 177.092 37.0049C79.2866 56.9565 16.4091 151.28 36.6508 247.683C56.8925 344.086 152.588 406.062 250.393 386.111Z" fill="#398CC3"/>
<path opacity="0.1" d="M245.262 361.673C329.374 344.515 383.449 263.396 366.041 180.49C348.633 97.5833 266.335 44.2838 182.223 61.4421C98.1104 78.6005 44.0358 159.719 61.4436 242.625C78.8515 325.532 161.15 378.831 245.262 361.673Z" fill="black"/>
<path d="M225.044 301.628L220.457 279.779C209.206 281.85 196.796 280.319 188.899 276.291L190.493 260.851C199.774 265.148 210.202 266.418 220.266 264.477C233.983 261.679 241.394 250.918 238.805 238.588C236.307 226.69 227.227 220.872 211.568 217.298C190.046 212.666 175.785 205.197 171.833 186.377C168.063 168.421 176.6 152.468 193.693 145.597L189.105 123.749L201.083 121.305L205.489 142.289C214.446 140.587 223.709 141.436 232.194 144.737L230.362 160C222.18 156.627 213.15 155.793 204.475 157.61C189.6 160.645 186.086 171.738 187.903 180.392C190.265 191.64 198.594 195.807 217.038 200.166C238.844 205.193 251.252 214.392 255.295 233.645C258.883 250.734 251.619 268.911 232.491 276.646L237.215 299.146L225.044 301.628Z" fill="#F2F2F2"/>
</svg>
