<svg width="415" height="420" viewBox="0 0 415 420" fill="none" xmlns="http://www.w3.org/2000/svg">
<path d="M31.8866 121.748C29.3927 121.602 26.982 120.81 24.8974 119.453C22.8128 118.096 21.1278 116.221 20.0123 114.017C18.8967 111.814 18.39 109.36 18.5431 106.902C18.6962 104.444 19.5037 102.069 20.8844 100.017C40.8359 71.2055 100.12 4.67519 219.798 12.1665C271.638 15.4114 316.225 31.8298 352.268 60.9399C381.938 84.8414 397.752 110.781 405.283 123.277C406.238 124.854 406.867 126.601 407.133 128.419C407.399 130.237 407.297 132.088 406.833 133.867C406.368 135.645 405.551 137.315 404.428 138.781C403.304 140.246 401.898 141.477 400.289 142.403C397.017 144.28 393.128 144.814 389.461 143.891C385.793 142.968 382.64 140.662 380.682 137.469C366.984 114.968 325.437 46.635 218.01 39.9106C113.115 33.3446 61.846 90.6571 44.6893 115.535C43.3162 117.607 41.4033 119.277 39.151 120.37C36.8987 121.463 34.3897 121.939 31.8866 121.748Z" fill="#398CC3"/>
<path d="M254.612 410.642C253.417 410.583 252.235 410.374 251.093 410.021C165.704 383.133 138.872 294.679 137.788 291.004L137.637 290.193C137.089 287.653 123.493 227.283 152.461 194.226C165.734 179.125 184.885 172.207 209.489 173.747C232.372 175.18 248.419 183.298 258.814 198.679C267.357 211.238 270.152 226.242 272.878 240.742C278.562 270.857 283.026 286.768 314.513 290.342C328.34 291.909 337.973 284.396 343.58 277.833C358.762 259.945 363.166 229.459 354.372 201.854C343.055 166.076 299.299 97.3039 214.654 92.0055C178.508 89.7429 144.552 99.2408 116.521 119.33C93.2846 136.012 74.1286 160.364 64.0402 185.986C45.3098 233.712 60.8306 311.538 60.9881 312.249C61.35 314.048 61.3462 315.9 60.977 317.698C60.6079 319.496 59.8806 321.204 58.8372 322.723C57.7939 324.242 56.4553 325.541 54.8989 326.547C53.3425 327.553 51.5992 328.244 49.7699 328.581C46.0577 329.302 42.2066 328.555 39.0484 326.502C35.8901 324.448 33.6782 321.252 32.8902 317.604C32.204 314.054 15.5936 231.05 37.2427 175.891C60.814 116.144 125.323 58.4575 216.448 64.1616C258.568 66.7981 297.44 83.5601 328.914 112.585C353.282 135.152 372.528 164.614 381.65 193.442C393.308 230.244 386.964 270.328 365.523 295.439C351.228 312.18 331.906 320.189 311.214 317.892C257.319 311.813 250.023 273.58 244.704 245.692C239.227 217.092 235.444 203.228 207.6 201.485C192.312 200.528 181.309 204.048 174.067 212.312C164.189 223.618 162.285 242.136 162.429 255.672C162.43 255.813 162.431 255.954 162.433 256.095C162.668 273.32 166.863 290.267 174.702 305.663C187.218 330.431 213.369 368.851 259.917 383.519C261.696 384.063 263.347 384.949 264.776 386.126C266.205 387.303 267.383 388.748 268.242 390.376C269.102 392.005 269.625 393.785 269.782 395.614C269.939 397.442 269.727 399.284 269.158 401.032C268.142 403.986 266.166 406.529 263.537 408.266C260.907 410.003 257.771 410.838 254.612 410.642Z" fill="#398CC3"/>
<path d="M143.647 397.284C141.698 397.163 139.794 396.654 138.05 395.787C136.306 394.92 134.759 393.713 133.502 392.24C101.113 353.739 84.0877 311.892 79.9692 260.631L79.9885 260.332C78.0042 226.44 87.1463 179.216 119.023 148.345C142.55 125.569 174.223 115.227 213.002 117.654C258.868 120.525 293.544 144.039 313.436 185.565C322.406 204.651 327.766 225.191 329.253 246.175C329.349 249.886 327.959 253.485 325.384 256.194C322.808 258.902 319.254 260.503 315.491 260.649C311.728 260.796 308.057 259.476 305.273 256.975C302.49 254.475 300.816 250.995 300.615 247.288C299.273 229.737 294.695 212.574 287.105 196.642C271.664 164.914 246.139 147.685 211.106 145.492C180.832 143.597 156.555 151.195 139.096 168.139C113.941 192.516 106.819 232.051 108.361 258.601C111.948 303.916 126.96 340.728 155.48 374.577C156.671 375.987 157.565 377.617 158.111 379.37C158.657 381.124 158.843 382.968 158.659 384.793C158.475 386.619 157.925 388.39 157.04 390.004C156.155 391.618 154.953 393.042 153.504 394.193C150.721 396.392 147.208 397.493 143.647 397.284Z" fill="#398CC3"/>
<path d="M203.379 270.159C213.444 270.79 222.122 263.258 222.762 253.336C223.401 243.415 215.759 234.862 205.694 234.232C195.628 233.602 186.951 241.134 186.311 251.055C185.672 260.976 193.314 269.529 203.379 270.159Z" fill="#398CC3"/>
</svg>
