<svg width="461" height="312" viewBox="0 0 461 312" fill="none" xmlns="http://www.w3.org/2000/svg">
<path d="M401.127 3.17954L21.7381 59.2734C9.86165 61.0294 1.67809 71.9426 3.4596 83.6488L34.9346 290.469C36.7161 302.175 47.788 310.241 59.6645 308.485L439.053 252.391C450.93 250.635 459.113 239.722 457.332 228.016L425.857 21.196C424.075 9.48981 413.003 1.42357 401.127 3.17954Z" fill="#3F3D56"/>
<path opacity="0.3" d="M403.474 181.56L72.3789 230.513L74.1849 242.381L405.28 193.427L403.474 181.56Z" fill="#398CC3"/>
<path opacity="0.3" d="M398.948 150.377L67.8523 199.33L69.6583 211.198L400.754 162.244L398.948 150.377Z" fill="#398CC3"/>
<path opacity="0.3" d="M392.476 107.853L333.28 116.605L335.086 128.472L394.282 119.72L392.476 107.853Z" fill="#398CC3"/>
<path opacity="0.3" d="M387.66 76.2066L170.943 108.249L172.749 120.116L389.466 88.0738L387.66 76.2066Z" fill="#398CC3"/>
<path opacity="0.3" d="M242.957 237.651L77.195 262.159L79.001 274.027L244.763 249.518L242.957 237.651Z" fill="#398CC3"/>
<path d="M123.772 75.7871L60.8942 85.0837C55.2614 85.9165 51.3801 91.0925 52.2251 96.6445L61.6569 158.62C62.5018 164.173 67.7531 167.998 73.3859 167.165L136.263 157.869C141.896 157.036 145.777 151.86 144.932 146.308L135.501 84.332C134.656 78.7799 129.404 74.9543 123.772 75.7871Z" fill="#398CC3"/>
</svg>
