<svg width="951" height="818" viewBox="0 0 951 818" fill="none" xmlns="http://www.w3.org/2000/svg">
<path d="M826.814 658.763L667.616 688.801L401.49 765.94L123.208 791.525L0 155.115L275.892 123.25L550.118 51.3142L829.196 36.799L916.83 526.837L826.814 658.763Z" fill="url(#paint0_linear)"/>
<path d="M820.138 651.063L664.414 680.399L404.077 755.639L131.885 780.721L11.823 161.546L281.681 130.355L549.937 60.1728L822.898 45.8611L908.269 522.633L820.138 651.063Z" fill="white"/>
<path d="M817.747 634.04L653.74 664.936L408.181 735.906L151.441 759.563L38.1951 175.538L292.734 146.118L545.761 79.9195L803.226 66.4207L892.206 525.298L817.747 634.04Z" fill="#398CC3"/>
<path d="M809.216 652.12L787.769 531.203L906.535 513.687L809.216 652.12Z" fill="url(#paint1_linear)"/>
<path d="M87.1348 427.928L479.207 517.586L512.747 562.143L493.592 591.204L99.2282 490.295L87.1348 427.928Z" fill="white"/>
<path d="M819.951 650.097L800.136 538.524L908.27 522.635L819.951 650.097Z" fill="white"/>
<path d="M627.519 589.39L683.666 72.6895L745.231 69.4612L674.324 607.043L627.519 589.39Z" fill="white"/>
<path d="M451.619 688.762L495.734 89.3083L559.102 87.1462L500.33 710.502L451.619 688.762Z" fill="white"/>
<path opacity="0.1" d="M407.136 736.103L653.585 664.966L540.339 80.9411L292.734 146.118" fill="black"/>
<path d="M713.514 309.926L852.097 318.451L864.19 380.818L691.438 354.384L713.514 309.926Z" fill="white"/>
<path d="M529.609 298.764L668.191 307.289L680.285 369.656L507.532 343.222L529.609 298.764Z" fill="white"/>
<path d="M233.277 524.595L244.02 758.356L283.411 759.08L292.592 539.772L286.764 510.032L233.277 524.595Z" fill="white"/>
<path d="M174.348 227.883L178.378 448.793L210.358 458.758L234.99 216.391L174.348 227.883Z" fill="white"/>
<path d="M239.285 179.948C243.688 179.119 246.575 174.928 245.734 170.588C244.892 166.249 240.641 163.403 236.238 164.233C231.835 165.062 228.948 169.252 229.79 173.592C230.631 177.932 234.882 180.778 239.285 179.948Z" fill="#FF5252"/>
<path d="M222.471 604.609C226.874 603.78 229.761 599.59 228.919 595.25C228.078 590.91 223.826 588.064 219.423 588.894C215.021 589.723 212.134 593.914 212.975 598.254C213.817 602.593 218.068 605.439 222.471 604.609Z" fill="#FF5252"/>
<path d="M225.736 664.062C230.139 663.233 233.026 659.042 232.184 654.702C231.343 650.363 227.091 647.517 222.688 648.347C218.286 649.176 215.398 653.366 216.24 657.706C217.081 662.046 221.333 664.892 225.736 664.062Z" fill="#FF5252"/>
<path d="M307.773 634.354C312.175 633.525 315.062 629.334 314.221 624.994C313.379 620.655 309.128 617.809 304.725 618.639C300.322 619.468 297.435 623.658 298.277 627.998C299.118 632.338 303.37 635.184 307.773 634.354Z" fill="#FF5252"/>
<path d="M125.541 424.34C129.944 423.51 132.831 419.32 131.989 414.98C131.148 410.641 126.896 407.795 122.494 408.624C118.091 409.454 115.204 413.644 116.045 417.984C116.887 422.324 121.138 425.169 125.541 424.34Z" fill="#FF5252"/>
<path d="M751.816 298.213C756.219 297.384 759.106 293.193 758.265 288.853C757.423 284.514 753.172 281.668 748.769 282.497C744.366 283.327 741.479 287.517 742.321 291.857C743.162 296.197 747.413 299.042 751.816 298.213Z" fill="#FF5252"/>
<path d="M736.005 584.224C740.408 583.394 743.295 579.204 742.453 574.864C741.612 570.524 737.36 567.679 732.958 568.508C728.555 569.338 725.668 573.528 726.509 577.868C727.351 582.208 731.602 585.053 736.005 584.224Z" fill="#FF5252"/>
<path d="M560.428 297.474C569.576 344.65 508.82 494.57 508.82 494.57C508.82 494.57 396.254 377.301 387.106 330.126C384.927 318.907 385.011 307.375 387.354 296.188C389.697 285.001 394.254 274.378 400.763 264.927C407.272 255.476 415.606 247.382 425.289 241.106C434.973 234.831 445.815 230.497 457.198 228.353C468.581 226.208 480.281 226.295 491.63 228.609C502.979 230.922 513.754 235.417 523.34 241.835C532.927 248.254 541.136 256.472 547.5 266.018C553.863 275.565 558.256 286.254 560.428 297.474Z" fill="#FF5252"/>
<path d="M477.619 333.665C492.089 330.939 501.577 317.167 498.811 302.905C496.046 288.643 482.074 279.291 467.604 282.016C453.134 284.742 443.646 298.514 446.412 312.776C449.177 327.039 463.149 336.391 477.619 333.665Z" fill="white"/>
<defs>
<linearGradient id="paint0_linear" x1="539.272" y1="739.943" x2="414.176" y2="76.9647" gradientUnits="userSpaceOnUse">
<stop stop-color="#808080" stop-opacity="0.25"/>
<stop offset="0.53514" stop-color="#808080" stop-opacity="0.12"/>
<stop offset="1" stop-color="#808080" stop-opacity="0.1"/>
</linearGradient>
<linearGradient id="paint1_linear" x1="869.109" y1="640.836" x2="846.376" y2="520.163" gradientUnits="userSpaceOnUse">
<stop stop-opacity="0.12"/>
<stop offset="0.55135" stop-opacity="0.09"/>
<stop offset="1" stop-opacity="0.02"/>
</linearGradient>
</defs>
</svg>
