<svg width="483" height="729" viewBox="0 0 483 729" fill="none" xmlns="http://www.w3.org/2000/svg">
<path d="M362.568 148.304L356.892 149.62C355.773 149.88 355.075 150.984 355.334 152.087L372.924 227.09C373.183 228.192 374.3 228.876 375.419 228.616L381.094 227.3C382.214 227.041 382.911 225.937 382.652 224.834L365.062 149.831C364.804 148.729 363.687 148.045 362.568 148.304Z" fill="#3F3D56"/>
<path d="M290.94 9.03805L34.5018 68.4934C15.447 72.9113 3.56951 91.7126 7.97273 110.487L144.868 694.191C149.271 712.965 168.288 724.604 187.342 720.186L443.781 660.731C462.836 656.313 474.713 637.512 470.31 618.737L333.415 35.0335C329.012 16.2587 309.995 4.62018 290.94 9.03805Z" fill="#3F3D56"/>
<path d="M284.127 28.5155L246.795 37.1709L247.833 41.5957C248.479 44.35 248.568 47.2049 248.094 49.9975C247.621 52.7901 246.595 55.4655 245.074 57.8709C243.554 60.2764 241.569 62.3647 239.233 64.0165C236.897 65.6684 234.255 66.8514 231.46 67.498L112.735 95.0243C109.94 95.6739 107.045 95.7745 104.215 95.3204C101.385 94.8663 98.6758 93.8664 96.242 92.3777C93.8082 90.8891 91.6976 88.941 90.0307 86.6446C88.3639 84.3482 87.1735 81.7486 86.5275 78.9944L85.4898 74.5696L50.5368 82.6735C43.6818 84.2628 37.7368 88.4701 34.0097 94.3699C30.2826 100.27 29.0787 107.379 30.6628 114.133L163.606 680.987C165.19 687.741 169.433 693.588 175.4 697.24C181.367 700.892 188.571 702.051 195.426 700.461L429.016 646.303C435.871 644.714 441.816 640.507 445.543 634.607C449.27 628.707 450.474 621.598 448.89 614.844L315.956 48.0334C315.177 44.684 313.735 41.5217 311.713 38.7275C309.691 35.9332 307.128 33.5618 304.172 31.749C301.215 29.9362 297.923 28.7175 294.484 28.1626C291.044 27.6078 287.525 27.7277 284.127 28.5155Z" fill="white"/>
<path d="M177.915 55.7636L139.319 64.7121C137.427 65.1506 136.248 67.0168 136.686 68.8803L137.234 71.2195C137.671 73.0831 139.559 74.2383 141.45 73.7998L180.046 64.8512C181.937 64.4127 183.116 62.5466 182.679 60.6831L182.131 58.3438C181.694 56.4803 179.806 55.3251 177.915 55.7636Z" fill="#E6E8EC"/>
<path d="M195.727 61.8663C198.62 61.1956 200.423 58.3414 199.754 55.4912C199.086 52.6411 196.199 50.8743 193.306 51.5449C190.414 52.2156 188.61 55.0698 189.279 57.9199C189.947 60.7701 192.834 62.5369 195.727 61.8663Z" fill="#E6E8EC"/>
<path d="M257.232 432.812C291.233 424.929 312.427 391.38 304.57 357.879C296.713 324.377 262.78 303.61 228.779 311.493C194.778 319.376 173.584 352.925 181.441 386.426C189.298 419.927 223.231 440.695 257.232 432.812Z" fill="white"/>
<path d="M321.993 344.908C325.753 360.943 324.603 377.736 318.688 393.165C312.773 408.594 302.359 421.964 288.762 431.586C275.166 441.208 258.998 446.648 242.303 447.22C225.608 447.792 209.136 443.469 194.969 434.799C180.803 426.128 169.579 413.498 162.716 398.508C155.853 383.517 153.66 366.838 156.414 350.58C159.168 334.321 166.745 319.214 178.188 307.169C189.63 295.124 204.424 286.681 220.698 282.908C231.504 280.403 242.695 280.02 253.634 281.78C264.572 283.54 275.044 287.409 284.45 293.166C293.856 298.924 302.013 306.456 308.454 315.334C314.896 324.212 319.497 334.261 321.993 344.908ZM240.266 409.104L287.198 334.813C287.578 334.213 287.835 333.545 287.953 332.848C288.072 332.151 288.05 331.439 287.889 330.751C287.728 330.064 287.43 329.415 287.014 328.843C286.598 328.27 286.07 327.784 285.463 327.413L276.23 321.809C275.624 321.436 274.949 321.186 274.244 321.072C273.539 320.957 272.817 320.982 272.12 321.143C271.423 321.305 270.765 321.6 270.184 322.013C269.602 322.425 269.108 322.947 268.73 323.547L230.452 384.141L201.824 366.573C200.597 365.827 199.118 365.591 197.711 365.917C196.304 366.243 195.083 367.105 194.314 368.314L188.55 377.499C187.788 378.712 187.543 380.171 187.868 381.558C188.193 382.944 189.062 384.145 190.285 384.898L232.768 410.888C233.374 411.261 234.05 411.511 234.756 411.625C235.463 411.739 236.185 411.715 236.883 411.553C237.58 411.391 238.239 411.096 238.822 410.683C239.405 410.27 239.899 409.748 240.278 409.147L240.266 409.104Z" fill="#398CC3"/>
<path d="M40.322 202.608L39.4699 202.806C38.3507 203.065 37.6531 204.169 37.9117 205.272L42.458 224.657C42.7166 225.759 43.8335 226.443 44.9526 226.183L45.8048 225.986C46.9239 225.726 47.6215 224.622 47.3629 223.519L42.8167 204.135C42.5581 203.032 41.4412 202.349 40.322 202.608Z" fill="#3F3D56"/>
<path d="M50.8048 245.312L49.3306 245.653C48.2114 245.913 47.5138 247.017 47.7725 248.12L56.3783 284.814C56.6369 285.917 57.7538 286.6 58.8729 286.341L60.3471 285.999C61.4663 285.739 62.1639 284.635 61.9053 283.532L53.2995 246.838C53.0409 245.736 51.924 245.052 50.8048 245.312Z" fill="#3F3D56"/>
<path d="M63.5084 300.277L62.3006 300.558C61.1814 300.817 60.4838 301.921 60.7424 303.024L69.4302 340.068C69.6888 341.17 70.8057 341.854 71.9249 341.594L73.1328 341.314C74.2519 341.055 74.9495 339.951 74.6909 338.848L66.0031 301.804C65.7445 300.702 64.6276 300.018 63.5084 300.277Z" fill="#3F3D56"/>
</svg>
