<svg width="615" height="594" viewBox="0 0 615 594" fill="none" xmlns="http://www.w3.org/2000/svg">
<path d="M8.61441 49.1468C6.33078 49.3499 4.2162 50.4383 2.73455 52.1733C1.2529 53.9083 0.525133 56.1483 0.710966 58.4018L44.7901 585.329C44.9813 587.582 46.0704 589.662 47.8186 591.114C49.5668 592.565 51.8314 593.269 54.1154 593.071L605.429 544.681C607.712 544.478 609.827 543.389 611.309 541.654C612.79 539.919 613.518 537.679 613.332 535.426L569.253 8.49876C569.062 6.24577 567.973 4.16529 566.225 2.71375C564.476 1.26223 562.212 0.558194 559.928 0.756006L8.61441 49.1468Z" fill="#E6E6E6"/>
<path d="M65.3064 570.635L590.673 524.522L548.736 23.1928L23.3687 69.3062L65.3064 570.635Z" fill="#FDFCFC" fill-opacity="0.82"/>
<path d="M76.8429 145.068C73.3377 145.375 70.9005 150.582 71.4101 156.674C71.9197 162.766 75.1862 167.472 78.6913 167.164L318.303 146.133C321.809 145.825 324.246 140.618 323.736 134.526C323.227 128.434 319.96 123.728 316.455 124.036L76.8429 145.068Z" fill="#E6E6E6"/>
<path d="M82.5304 213.058C79.0252 213.365 76.588 218.572 77.0976 224.664C77.6072 230.756 80.8737 235.462 84.3788 235.154L323.991 214.123C327.496 213.815 329.933 208.608 329.424 202.516C328.914 196.424 325.648 191.718 322.142 192.026L82.5304 213.058Z" fill="#E6E6E6"/>
<path d="M88.1524 280.264C84.6473 280.572 82.21 285.779 82.7196 291.871C83.2293 297.963 86.4957 302.669 90.0009 302.361L329.613 281.33C333.118 281.022 335.555 275.815 335.046 269.723C334.536 263.631 331.27 258.925 327.765 259.233L88.1524 280.264Z" fill="#E6E6E6"/>
<path d="M93.8399 348.254C90.3348 348.562 87.8975 353.769 88.4071 359.861C88.9168 365.953 92.1832 370.659 95.6884 370.351L335.301 349.32C338.806 349.012 341.243 343.805 340.733 337.713C340.224 331.621 336.957 326.915 333.452 327.223L93.8399 348.254Z" fill="#E6E6E6"/>
<path d="M437.91 114.108C434.94 114.369 432.189 115.783 430.262 118.039C428.335 120.295 427.391 123.209 427.636 126.139C427.881 129.069 429.296 131.776 431.569 133.664C433.843 135.551 436.788 136.465 439.758 136.205L484.553 132.273C487.523 132.012 490.274 130.598 492.2 128.342C494.127 126.086 495.072 123.172 494.827 120.242C494.582 117.311 493.167 114.605 490.893 112.717C488.62 110.829 485.674 109.915 482.704 110.176L437.91 114.108Z" fill="#E6E6E6"/>
<path d="M443.487 180.78C440.517 181.041 437.766 182.455 435.839 184.711C433.913 186.968 432.968 189.881 433.213 192.812C433.458 195.742 434.873 198.448 437.146 200.336C439.42 202.224 442.366 203.138 445.336 202.877L490.13 198.945C493.1 198.685 495.851 197.271 497.778 195.014C499.705 192.758 500.649 189.844 500.404 186.914C500.159 183.984 498.744 181.277 496.471 179.389C494.197 177.502 491.252 176.588 488.282 176.849L443.487 180.78Z" fill="#E6E6E6"/>
<path d="M449.065 247.453C446.095 247.714 443.344 249.128 441.417 251.384C439.49 253.64 438.545 256.554 438.79 259.484C439.036 262.414 440.45 265.121 442.724 267.009C444.997 268.896 447.943 269.81 450.913 269.55L495.707 265.618C498.677 265.357 501.428 263.943 503.355 261.687C505.282 259.431 506.227 256.517 505.982 253.587C505.737 250.656 504.322 247.95 502.048 246.062C499.775 244.174 496.829 243.26 493.859 243.521L449.065 247.453Z" fill="#E6E6E6"/>
<path d="M454.642 314.125C451.672 314.386 448.921 315.8 446.994 318.056C445.067 320.313 444.123 323.226 444.368 326.157C444.613 329.087 446.028 331.794 448.301 333.681C450.575 335.569 453.52 336.483 456.491 336.222L501.285 332.29C504.255 332.03 507.006 330.616 508.933 328.359C510.859 326.103 511.804 323.189 511.559 320.259C511.314 317.329 509.899 314.622 507.626 312.734C505.352 310.847 502.406 309.933 499.436 310.193L454.642 314.125Z" fill="#E6E6E6"/>
<path d="M450.344 427.119C446.56 427.451 443.054 429.252 440.599 432.128C438.144 435.003 436.94 438.715 437.252 442.449C437.565 446.183 439.368 449.632 442.265 452.037C445.161 454.442 448.915 455.607 452.699 455.275L509.777 450.265C513.561 449.933 517.067 448.131 519.522 445.256C521.977 442.381 523.181 438.668 522.869 434.934C522.556 431.201 520.753 427.752 517.856 425.346C514.959 422.941 511.206 421.777 507.421 422.109L450.344 427.119Z" fill="#398CC3"/>
<path d="M516.628 383.342L94.2627 420.414L94.5725 424.118L516.938 387.046L516.628 383.342Z" fill="#E6E6E6"/>
</svg>
