<svg width="277" height="278" viewBox="0 0 277 278" fill="none" xmlns="http://www.w3.org/2000/svg">
<ellipse cx="108.5" cy="106" rx="104.5" ry="101" fill="#F1F0F0" fill-opacity="0.88"/>
<path d="M186.734 32.8557C176.695 22.5645 164.669 14.3564 151.365 8.71441C138.06 3.07242 123.744 0.110531 109.261 0.003035C94.7775 -0.104461 80.4184 2.64459 67.0289 8.08846C53.6394 13.5323 41.4898 21.561 31.2952 31.702C-9.80943 72.547 -10.5061 139.054 29.6998 180.764C47.3637 199.088 71.036 210.66 96.5254 213.431C122.015 216.203 147.677 209.995 168.968 195.906L247.471 276.401C248.443 277.397 249.776 277.972 251.178 277.999C252.58 278.026 253.936 277.503 254.946 276.545L274.509 258.005C275.52 257.046 276.103 255.732 276.13 254.35C276.158 252.968 275.627 251.633 274.656 250.636L196.146 170.148C211.197 149.822 218.504 124.92 216.782 99.8138C215.061 74.7072 204.422 51.0005 186.734 32.8557ZM162.28 162.21C151.204 172.705 137.22 179.727 122.096 182.388C106.971 185.05 91.3857 183.231 77.31 177.161C63.2343 171.092 51.3006 161.045 43.018 148.291C34.7353 135.537 30.4757 120.648 30.7777 105.507C31.0798 90.367 35.9299 75.6549 44.7148 63.2314C53.4997 50.808 65.8249 41.2311 80.1317 35.7119C94.4385 30.1927 110.084 28.9791 125.091 32.2244C140.098 35.4697 153.791 43.0283 164.439 53.9443C171.51 61.1927 177.063 69.7429 180.781 79.1067C184.499 88.4705 186.31 98.4644 186.109 108.518C185.909 118.571 183.701 128.487 179.612 137.7C175.524 146.912 169.634 155.241 162.28 162.21Z" fill="#398CC3"/>
<path d="M50.907 85.759C42.1705 85.759 42.1565 99.1428 50.907 99.1428C59.6574 99.1428 59.6574 85.759 50.907 85.759Z" fill="#398CC3"/>
<path d="M111.805 42.8953C88.2914 42.3734 66.8961 53.9993 55.5191 71.5514C51.8058 77.2785 62.3467 82.3394 66.0391 76.6398C75.4583 62.1092 93.3563 52.8799 112.717 53.3606C133.005 53.8619 151.467 65.3024 161.242 81.1789C164.948 87.2013 174.667 81.7283 170.995 75.7402C159.089 56.4576 136.098 43.4103 111.805 42.8953Z" fill="#398CC3"/>
</svg>
