<svg width="532" height="458" viewBox="0 0 532 458" fill="none" xmlns="http://www.w3.org/2000/svg">
<path d="M297.708 395.177L299.691 395.436L299.958 393.454L311.165 310.329L311.432 308.347L309.449 308.088L99.1291 280.539L92.4402 260.334L91.8195 258.459L89.9336 259.066L88.3318 259.581L86.4039 260.2L87.0384 262.117L94.4488 284.502L94.8413 285.688L96.0816 285.85L305.039 313.22L294.811 389.088L66.3387 359.163L64.3557 358.903L64.0885 360.885L63.8666 362.53L63.5994 364.513L65.5824 364.772L297.708 395.177Z" fill="#545D72" stroke="#545D72" stroke-width="4"/>
<path d="M91.3069 407.164C100.991 408.433 109.885 401.723 111.172 392.178C112.459 382.632 105.651 373.866 95.9672 372.598C86.2831 371.329 77.3893 378.039 76.1024 387.584C74.8155 397.13 81.6228 405.896 91.3069 407.164Z" fill="#545D72"/>
<path d="M264.149 429.804C273.833 431.072 282.727 424.363 284.014 414.817C285.301 405.272 278.493 396.506 268.809 395.237C259.125 393.969 250.231 400.678 248.944 410.224C247.657 419.769 254.465 428.535 264.149 429.804Z" fill="#545D72"/>
<path d="M518.26 82.8407C524.255 83.6259 529.761 79.4723 530.558 73.5633C531.354 67.6543 527.14 62.2275 521.145 61.4423C515.15 60.6571 509.645 64.8107 508.848 70.7197C508.051 76.6287 512.265 82.0555 518.26 82.8407Z" fill="#545D72"/>
<path d="M337.182 289.79L338.63 289.98L339.256 288.659L421.432 115.413L421.433 115.413L421.919 114.387L423.092 111.911L420.378 111.555L44.8727 62.3707L42.1812 62.0182L42.6323 64.692L74.5652 253.973L74.8101 255.424L76.2712 255.616L337.182 289.79ZM49.0649 68.629L414.629 116.511L335.265 283.83L79.724 250.359L49.0649 68.629Z" fill="#545D72" stroke="#545D72" stroke-width="4"/>
<path d="M318.358 275.676L89.1913 245.659L61.3528 77.8533L391.172 121.054L390.744 121.964L318.358 275.676Z" fill="#F2F2F2" fill-opacity="0.9"/>
<path d="M426.219 99.7528L428.057 100.501L428.825 98.6668L444.277 61.767L505.574 69.7958L507.557 70.0556L507.824 68.0735L508.046 66.427L508.314 64.4449L506.331 64.1852L442.229 55.789L440.709 55.5899L440.116 57.0053L423.577 96.5015L422.798 98.3608L424.662 99.119L426.219 99.7528Z" fill="#545D72" stroke="#545D72" stroke-width="4"/>
<path d="M395.895 166.481L396.162 164.499L394.179 164.24L55.6821 119.902L53.699 119.643L53.4318 121.625L53.2099 123.271L52.9427 125.253L54.9257 125.513L393.423 169.85L395.406 170.109L395.673 168.127L395.895 166.481Z" fill="#545D72" stroke="#545D72" stroke-width="4"/>
<path d="M368.334 224.585L368.602 222.603L366.619 222.343L66.3289 183.011L64.3459 182.751L64.0786 184.733L63.8567 186.379L63.5895 188.361L65.5726 188.621L365.862 227.953L367.845 228.213L368.112 226.231L368.334 224.585Z" fill="#545D72" stroke="#545D72" stroke-width="4"/>
<path d="M235.06 90.1367L235.327 88.1546L233.344 87.8949L231.674 87.6761L229.691 87.4164L229.424 89.3985L205.124 269.639L204.857 271.621L206.84 271.88L208.51 272.099L210.493 272.359L210.76 270.377L235.06 90.1367Z" fill="#545D72" stroke="#545D72" stroke-width="4"/>
<path d="M308.25 97.6579L306.288 97.2709L305.89 99.2313L269.603 277.897L269.205 279.857L271.166 280.244L272.819 280.57L274.78 280.957L275.178 278.997L311.465 100.331L311.864 98.371L309.902 97.9839L308.25 97.6579Z" fill="#545D72" stroke="#545D72" stroke-width="4"/>
<path d="M158.678 79.9479L158.814 77.953L156.818 77.8209L155.136 77.7097L153.14 77.5776L153.004 79.5725L140.622 261.374L140.487 263.369L142.483 263.501L144.164 263.612L146.16 263.744L146.296 261.749L158.678 79.9479Z" fill="#545D72" stroke="#545D72" stroke-width="4"/>
</svg>
