<svg width="1083" height="406" viewBox="0 0 1083 406" fill="none" xmlns="http://www.w3.org/2000/svg">
<ellipse cx="944.5" cy="270" rx="104.5" ry="101" fill="white"/>
<path d="M990.295 251.524L958.103 242.857C957.755 242.764 957.383 242.811 957.07 242.988C956.756 243.164 956.526 243.456 956.43 243.799L943.869 289.128C943.775 289.471 943.822 289.837 944.001 290.146C944.18 290.455 944.476 290.682 944.824 290.776L977.016 299.444C978.409 299.814 979.895 299.627 981.149 298.921C982.403 298.216 983.322 297.05 983.707 295.678L994.115 258.12C994.492 256.746 994.301 255.281 993.585 254.045C992.869 252.81 991.687 251.903 990.295 251.524Z" fill="#398CC3"/>
<path d="M967.097 307.211C965.562 306.928 963.977 307.083 962.528 307.658C961.08 308.234 959.829 309.206 958.923 310.46C958.017 311.714 957.494 313.198 957.416 314.735C957.338 316.273 957.708 317.8 958.482 319.137C959.257 320.474 960.403 321.564 961.786 322.28C963.169 322.995 964.731 323.305 966.287 323.174C967.843 323.043 969.328 322.475 970.568 321.538C971.807 320.602 972.748 319.335 973.281 317.888C973.683 316.788 973.838 315.616 973.735 314.451C973.633 313.287 973.275 312.159 972.687 311.144C972.099 310.129 971.295 309.252 970.33 308.573C969.365 307.894 968.262 307.429 967.097 307.211Z" fill="#398CC3"/>
<path d="M904.06 290.24C902.525 289.956 900.94 290.111 899.492 290.687C898.043 291.262 896.792 292.235 895.886 293.489C894.98 294.743 894.458 296.226 894.38 297.763C894.302 299.301 894.672 300.828 895.446 302.165C896.22 303.502 897.366 304.593 898.749 305.308C900.132 306.023 901.694 306.334 903.25 306.202C904.806 306.071 906.292 305.503 907.531 304.567C908.77 303.63 909.712 302.363 910.244 300.916C910.646 299.816 910.801 298.644 910.699 297.48C910.596 296.315 910.239 295.187 909.651 294.172C909.063 293.157 908.259 292.28 907.293 291.601C906.328 290.922 905.225 290.457 904.06 290.24Z" fill="#398CC3"/>
<path d="M946.278 239.673L914.151 231.024C912.74 230.65 911.236 230.84 909.967 231.554C908.698 232.269 907.767 233.448 907.376 234.836L897.004 272.265C896.624 273.656 896.818 275.139 897.542 276.39C898.267 277.641 899.464 278.558 900.872 278.943L932.998 287.593C933.347 287.685 933.718 287.638 934.031 287.462C934.345 287.286 934.575 286.994 934.671 286.651L947.233 241.322C947.327 240.979 947.279 240.613 947.1 240.304C946.921 239.995 946.625 239.768 946.278 239.673Z" fill="#398CC3"/>
<path d="M973.844 163.126C952.448 157.366 929.799 157.988 908.762 164.915C887.724 171.842 869.243 184.763 855.656 202.042C842.068 219.322 833.984 240.185 832.426 261.994C830.868 283.802 835.906 305.576 846.903 324.562C857.9 343.548 874.362 358.893 894.207 368.658C914.052 378.422 936.389 382.167 958.394 379.418C980.398 376.67 1001.08 367.551 1017.83 353.216C1034.57 338.881 1046.63 319.974 1052.48 298.884C1060.31 270.604 1056.43 240.413 1041.69 214.953C1026.94 189.494 1002.54 170.851 973.844 163.126ZM984.829 327.294C983.868 330.723 981.569 333.638 978.435 335.402C975.3 337.166 971.585 337.635 968.101 336.708L889.264 315.482C885.785 314.535 882.828 312.269 881.038 309.179C879.249 306.09 878.772 302.428 879.713 298.994L904.478 209.63C905.247 206.887 907.086 204.555 909.593 203.144C912.101 201.733 915.073 201.358 917.86 202.1L1001.95 224.74C1004.74 225.498 1007.1 227.311 1008.53 229.783C1009.97 232.254 1010.35 235.184 1009.59 237.931L984.829 327.294Z" fill="#398CC3"/>
<path d="M995.828 232.833L918.961 212.138C918.343 211.926 917.686 211.841 917.033 211.889C916.379 211.937 915.743 212.117 915.163 212.417C914.583 212.718 914.072 213.133 913.662 213.637C913.251 214.14 912.951 214.722 912.778 215.345C912.605 215.968 912.564 216.619 912.658 217.258C912.752 217.898 912.978 218.511 913.322 219.061C913.666 219.61 914.121 220.084 914.659 220.453C915.197 220.822 915.807 221.077 916.449 221.204L993.315 241.899C993.934 242.112 994.591 242.197 995.244 242.149C995.897 242.101 996.534 241.921 997.114 241.62C997.694 241.32 998.205 240.905 998.615 240.401C999.025 239.897 999.326 239.316 999.499 238.693C999.672 238.07 999.712 237.418 999.619 236.779C999.525 236.14 999.299 235.526 998.955 234.977C998.611 234.427 998.155 233.954 997.617 233.585C997.079 233.216 996.47 232.96 995.828 232.833Z" fill="#398CC3"/>
<ellipse cx="546.5" cy="116" rx="104.5" ry="101" fill="white"/>
<path d="M562.057 119C559.825 119 557.999 122.341 557.999 126.5C557.999 130.659 559.825 134 562.057 134C564.289 134 566.116 130.659 566.116 126.5C566.116 122.341 564.289 119 562.057 119Z" fill="#398CC3"/>
<path d="M529.592 119C527.36 119 525.534 122.341 525.534 126.5C525.534 130.659 527.36 134 529.592 134C531.824 134 533.65 130.659 533.65 126.5C533.65 122.341 531.824 119 529.592 119Z" fill="#398CC3"/>
<path d="M545.825 0C522.549 0 499.795 6.80328 480.441 19.5495C461.088 32.2958 446.004 50.4125 437.096 71.6087C428.189 92.8049 425.858 116.129 430.399 138.63C434.94 161.132 446.149 181.801 462.607 198.024C479.066 214.247 500.036 225.295 522.865 229.771C545.694 234.247 569.357 231.95 590.862 223.17C612.366 214.39 630.746 199.522 643.678 180.446C656.61 161.37 663.512 138.943 663.512 116C663.512 85.2349 651.113 55.7298 629.042 33.9756C606.972 12.2214 577.037 0 545.825 0ZM490.793 112.055L497.297 77.9595C498.976 68.6959 503.336 61.4048 511.519 61.4048H523.812L524.527 58.6222C525.153 56.1946 526.582 54.0421 528.588 52.5047C530.595 50.9674 533.063 50.1331 535.605 50.1335H555.974C558.51 50.1324 560.974 50.9622 562.98 52.4925C564.985 54.0228 566.417 56.1667 567.051 58.587L567.766 61.4048H580.13C588.135 61.4048 592.388 68.555 594.389 77.9242V77.9595L600.928 112.09C600.98 112.345 600.959 112.609 600.868 112.853C600.777 113.097 600.619 113.311 600.411 113.472C600.204 113.632 599.955 113.733 599.693 113.763C599.431 113.793 599.166 113.75 598.927 113.64L589.85 109.519C589.636 109.432 589.449 109.292 589.305 109.113C589.161 108.935 589.066 108.723 589.028 108.498L583.239 78.3469C582.167 74.4725 580.666 72.7113 577.486 72.7113H514.199C511.055 72.7113 509.339 74.5781 508.446 78.3469L502.657 108.498C502.613 108.72 502.515 108.929 502.372 109.107C502.229 109.285 502.045 109.426 501.835 109.519L492.794 113.605C492.555 113.712 492.291 113.751 492.03 113.72C491.77 113.689 491.523 113.588 491.316 113.428C491.11 113.269 490.952 113.056 490.86 112.814C490.768 112.572 490.744 112.309 490.793 112.055ZM616.83 133.999L597.283 181.866C587.456 181.866 577.021 174.117 577.021 174.117C570.589 177.323 558.046 180.14 548.684 180.669C547.683 180.704 546.718 180.739 545.825 180.739C544.932 180.739 543.967 180.739 542.966 180.669C533.603 180.14 521.061 177.287 514.628 174.117C514.628 174.117 504.194 181.866 494.366 181.866L474.819 133.999C474.518 133.247 474.361 132.447 474.355 131.639C474.355 130.423 474.709 129.233 475.374 128.21C476.039 127.186 476.987 126.371 478.107 125.862L544.61 95.7469C544.984 95.5729 545.393 95.4828 545.807 95.4828C546.221 95.4828 546.63 95.5729 547.004 95.7469L613.542 125.862C614.662 126.371 615.611 127.186 616.276 128.21C616.941 129.233 617.294 130.423 617.295 131.639C617.289 132.447 617.132 133.247 616.83 133.999Z" fill="#398CC3"/>
<ellipse cx="138.5" cy="235" rx="104.5" ry="101" fill="white"/>
<path d="M108.931 128.69C87.3861 134.398 68.0326 146.278 53.3175 162.827C38.6023 179.376 29.1863 199.851 26.2603 221.663C23.3343 243.475 27.0296 265.644 36.879 285.367C46.7283 305.09 62.2894 321.48 81.5943 332.466C100.899 343.452 123.081 348.54 145.335 347.086C167.588 345.632 188.914 337.702 206.615 324.298C224.317 310.894 237.599 292.619 244.781 271.784C251.964 250.948 252.725 228.488 246.968 207.243C239.249 178.755 220.369 154.474 194.481 139.743C168.594 125.011 137.821 121.035 108.931 128.69ZM191.056 233.279C189.931 233.577 186.185 234.534 185.075 234.758L163.459 239.891C163.347 239.918 163.243 239.973 163.159 240.05C163.074 240.128 163.011 240.226 162.976 240.334L143.628 296.358C143.352 297.226 142.858 298.011 142.191 298.64C141.525 299.269 140.708 299.721 139.817 299.955L131.978 302.032C130.126 302.523 129.002 300.863 129.204 298.991L133.146 247.993C133.158 247.886 133.143 247.778 133.104 247.678C133.064 247.578 133.001 247.488 132.919 247.417C132.837 247.347 132.74 247.296 132.634 247.271C132.528 247.245 132.418 247.245 132.312 247.27L91.8195 257.055C91.3986 257.156 91.0073 257.353 90.676 257.628C90.3448 257.904 90.0827 258.252 89.9104 258.644L81.4798 276.853C81.1482 277.604 80.6499 278.272 80.0219 278.807C79.3938 279.343 78.652 279.732 77.8513 279.947L72.3276 281.411C72.1166 281.469 71.8946 281.476 71.6802 281.432C71.4659 281.387 71.2657 281.293 71.0964 281.156C70.9272 281.019 70.7938 280.844 70.7078 280.645C70.6218 280.447 70.5856 280.231 70.6023 280.015L71.1126 255.864C71.2706 254.485 70.895 253.099 70.0608 251.983L57.4067 231.32C57.2834 231.141 57.2054 230.936 57.1795 230.722C57.1536 230.507 57.1805 230.29 57.2578 230.087C57.3352 229.885 57.4608 229.704 57.6239 229.56C57.7871 229.415 57.9831 229.312 58.1953 229.258L63.7521 227.786C64.5536 227.568 65.3945 227.535 66.2105 227.689C67.0264 227.842 67.7956 228.178 68.4588 228.671L84.6742 240.106C85.0201 240.363 85.4229 240.537 85.8498 240.612C86.2767 240.687 86.7157 240.662 87.1311 240.538L127.457 229.225C127.563 229.196 127.66 229.142 127.74 229.068C127.82 228.994 127.88 228.901 127.915 228.799C127.951 228.696 127.96 228.587 127.942 228.48C127.924 228.373 127.88 228.272 127.814 228.186L98.6218 186.001C97.5007 184.481 97.6342 182.488 99.4865 181.997L107.326 179.92C108.216 179.686 109.151 179.676 110.045 179.891C110.94 180.106 111.765 180.539 112.445 181.15L157.505 220.145C157.588 220.225 157.692 220.28 157.805 220.306C157.919 220.331 158.037 220.326 158.147 220.289L179.463 214.047C180.504 213.702 184.266 212.67 185.39 212.372C200.076 208.481 210.577 210.733 212.141 216.506C213.706 222.278 205.708 229.396 191.056 233.279Z" fill="#398CC3"/>
</svg>
