<svg width="913" height="908" viewBox="0 0 913 908" fill="none" xmlns="http://www.w3.org/2000/svg">
<path d="M609.466 489.116L610.922 476.781C611.991 467.701 609.358 458.558 603.601 451.362C597.845 444.167 589.437 439.509 580.226 438.412L86.1038 379.567C76.8931 378.47 67.634 381.024 60.3626 386.668C53.0911 392.312 48.4028 400.584 47.3286 409.663L44.6447 432.406L609.466 489.116Z" fill="#33323D"/>
<path d="M697.465 90.7991L246.284 229.058C236.112 232.175 229.978 244.18 232.584 255.873L299.502 556.113C302.108 567.806 312.467 574.757 322.639 571.64L773.82 433.381C783.992 430.264 790.126 418.259 787.52 406.566L720.602 106.326C717.996 94.6333 707.637 87.6818 697.465 90.7991Z" fill="url(#paint0_linear)"/>
<path d="M694.959 95.3734L253.736 230.581C243.563 233.698 237.429 245.703 240.035 257.396L304.251 545.511C306.857 557.204 317.216 564.155 327.388 561.038L768.611 425.831C778.784 422.713 784.918 410.708 782.312 399.016L718.096 110.9C715.49 99.2076 705.131 92.2561 694.959 95.3734Z" fill="white"/>
<path d="M723.084 133.278L245.023 279.773L255.586 327.164L733.647 180.669L723.084 133.278Z" fill="#398CC3"/>
<path d="M454.62 456.37L333.155 493.591L337.722 514.085L459.188 476.863L454.62 456.37Z" fill="#BDBDBD"/>
<path d="M536.062 394.468L325.447 459.009L330.015 479.502L540.629 414.962L536.062 394.468Z" fill="#E0E0E0"/>
<path d="M845.104 283.274L377.111 261.291C366.624 260.799 357.692 270.201 357.162 282.291L343.539 593.111C343.009 605.201 351.082 615.402 361.569 615.895L829.562 637.878C840.05 638.37 848.981 628.968 849.511 616.878L863.134 306.058C863.664 293.968 855.592 283.767 845.104 283.274Z" fill="url(#paint1_linear)"/>
<path d="M837.588 286.544L382.697 265.177C372.209 264.684 363.278 274.086 362.748 286.177L349.69 584.109C349.16 596.2 357.232 606.401 367.72 606.893L822.611 628.261C833.098 628.754 842.03 619.352 842.56 607.261L855.618 309.329C856.148 297.238 848.076 287.037 837.588 286.544Z" fill="white"/>
<path d="M488.006 436.353L473.645 435.678L471.584 482.698L485.945 483.372L488.006 436.353Z" fill="#E0E0E0"/>
<path d="M506.388 437.216L492.027 436.542L489.966 483.561L504.327 484.236L506.388 437.216Z" fill="#E0E0E0"/>
<path d="M524.77 438.08L510.409 437.405L508.348 484.425L522.709 485.099L524.77 438.08Z" fill="#E0E0E0"/>
<path d="M556.939 439.591L542.578 438.917L540.517 485.936L554.878 486.61L556.939 439.591Z" fill="#E0E0E0"/>
<path d="M575.321 440.454L560.96 439.78L558.899 486.799L573.26 487.474L575.321 440.454Z" fill="#E0E0E0"/>
<path d="M593.703 441.318L579.342 440.643L577.281 487.663L591.642 488.337L593.703 441.318Z" fill="#E0E0E0"/>
<path d="M625.872 442.829L611.51 442.154L609.45 489.174L623.811 489.848L625.872 442.829Z" fill="#E0E0E0"/>
<path d="M644.254 443.693L629.893 443.018L627.832 490.037L642.193 490.712L644.254 443.693Z" fill="#E0E0E0"/>
<path d="M662.635 444.556L648.274 443.881L646.214 490.901L660.575 491.575L662.635 444.556Z" fill="#E0E0E0"/>
<path d="M694.804 446.067L680.443 445.392L678.383 492.412L692.744 493.086L694.804 446.067Z" fill="#E0E0E0"/>
<path d="M713.186 446.931L698.825 446.256L696.765 493.275L711.126 493.95L713.186 446.931Z" fill="#E0E0E0"/>
<path d="M731.569 447.794L717.208 447.119L715.147 494.139L729.508 494.813L731.569 447.794Z" fill="#E0E0E0"/>
<path d="M476.767 359.305L391.141 355.283L388.769 409.416L474.395 413.438L476.767 359.305Z" fill="#398CC3"/>
<path opacity="0.1" d="M768.677 550.907L716.197 548.442L713.545 608.943L766.025 611.409L768.677 550.907Z" fill="#398CC3"/>
<path opacity="0.1" d="M703.025 537.793L650.545 535.328L647.893 595.829L700.373 598.294L703.025 537.793Z" fill="#398CC3"/>
<path opacity="0.1" d="M621.493 501.818L581.059 844.447C580.6 848.338 579.367 852.099 577.432 855.514C575.497 858.929 572.897 861.931 569.781 864.35C566.665 866.768 563.094 868.556 559.271 869.61C555.448 870.664 551.449 870.963 547.502 870.492L30.7027 808.947C22.7347 807.995 15.4622 803.963 10.4844 797.736C5.5065 791.51 3.23088 783.599 4.15789 775.744L48.6677 398.574C62.8367 405.76 62.8367 405.76 78.1226 407.117L594.922 468.662C602.884 469.61 610.154 473.634 615.135 479.85C620.117 486.066 622.403 493.966 621.493 501.818Z" fill="black"/>
<path d="M620.861 507.171L580.428 849.8C579.498 857.658 575.44 864.815 569.147 869.7C562.854 874.584 554.841 876.794 546.87 875.845L30.0711 814.3C22.1032 813.348 14.8307 809.316 9.85282 803.089C4.87496 796.863 2.59934 788.952 3.52634 781.097L48.0374 403.917C62.2075 411.093 62.2075 411.093 77.4922 412.46L594.292 474.005C602.256 474.954 609.526 478.979 614.508 485.197C619.489 491.415 621.774 499.318 620.861 507.171Z" fill="#504F60"/>
<path opacity="0.1" d="M604.442 633.669L591.511 743.241L483.719 730.404C469.132 728.471 455.879 720.953 446.827 709.477C437.776 698.002 433.654 683.492 435.354 669.089C437.053 654.685 444.438 641.546 455.91 632.515C467.381 623.483 482.017 619.287 496.649 620.832L604.442 633.669Z" fill="black"/>
<path d="M606.257 630.925L593.324 740.517L485.532 727.68C470.945 725.746 457.692 718.228 448.64 706.753C439.589 695.277 435.467 680.768 437.167 666.364C438.866 651.96 446.251 638.821 457.723 629.79C469.194 620.759 483.83 616.562 498.462 618.108L606.257 630.925Z" fill="#33323D"/>
<path opacity="0.1" d="M494.301 697.776C506.269 699.202 517.099 690.793 518.491 678.995C519.884 667.197 511.311 656.477 499.343 655.052C487.375 653.627 476.545 662.036 475.153 673.834C473.76 685.632 482.333 696.351 494.301 697.776Z" fill="black"/>
<path d="M496.114 695.051C508.082 696.477 518.912 688.068 520.304 676.27C521.697 664.472 513.124 653.752 501.156 652.327C489.189 650.902 478.358 659.311 476.966 671.109C475.574 682.907 484.147 693.626 496.114 695.051Z" fill="#398CC3"/>
<defs>
<linearGradient id="paint0_linear" x1="500.013" y1="581.895" x2="526.094" y2="80.8551" gradientUnits="userSpaceOnUse">
<stop stop-color="#808080" stop-opacity="0.25"/>
<stop offset="0.53514" stop-color="#808080" stop-opacity="0.12"/>
<stop offset="1" stop-color="#808080" stop-opacity="0.1"/>
</linearGradient>
<linearGradient id="paint1_linear" x1="267743" y1="254190" x2="275161" y2="96258.6" gradientUnits="userSpaceOnUse">
<stop stop-color="#808080" stop-opacity="0.25"/>
<stop offset="0.53514" stop-color="#808080" stop-opacity="0.12"/>
<stop offset="1" stop-color="#808080" stop-opacity="0.1"/>
</linearGradient>
</defs>
</svg>
