<svg xmlns="http://www.w3.org/2000/svg" xmlns:xlink="http://www.w3.org/1999/xlink" version="1.1" width="20.73469387755101" height="21.775510204081627" style=""><rect id="backgroundrect" width="100%" height="100%" x="0" y="0" fill="none" stroke="none" class="" style=""/><g class="currentLayer" style=""><title>Layer 1</title><path d="M16.367346946226085,11.122449040412903 H4.367346946226085 V6.122449040412903 H16.367346946226085 M14.867346946226085,17.122449040412903 A1.5,1.5 0 0 1 13.367346946226085,15.622449040412903 A1.5,1.5 0 0 1 14.867346946226085,14.122449040412903 A1.5,1.5 0 0 1 16.367346946226085,15.622449040412903 A1.5,1.5 0 0 1 14.867346946226085,17.122449040412903 M5.867346946226085,17.122449040412903 A1.5,1.5 0 0 1 4.367346946226085,15.622449040412903 A1.5,1.5 0 0 1 5.867346946226085,14.122449040412903 A1.5,1.5 0 0 1 7.367346946226085,15.622449040412903 A1.5,1.5 0 0 1 5.867346946226085,17.122449040412903 M2.3673469462260854,16.122449040412903 C2.3673469462260854,17.002449040412902 2.7573469462260856,17.792449040412905 3.3673469462260854,18.3424490404129 V20.122449040412903 A1,1 0 0 0 4.367346946226085,21.122449040412903 H5.367346946226085 A1,1 0 0 0 6.367346946226085,20.122449040412903 V19.122449040412903 H14.367346946226085 V20.122449040412903 A1,1 0 0 0 15.367346946226085,21.122449040412903 H16.367346946226085 A1,1 0 0 0 17.367346946226085,20.122449040412903 V18.3424490404129 C17.977346946226085,17.792449040412905 18.367346946226085,17.002449040412902 18.367346946226085,16.122449040412903 V6.122449040412903 C18.367346946226085,2.622449040412903 14.787346946226087,2.1224490404129024 10.367346946226085,2.1224490404129024 C5.9473469462260855,2.1224490404129024 2.3673469462260854,2.622449040412903 2.3673469462260854,6.122449040412903 V16.122449040412903 z" id="svg_1" class="" fill="#00b050" fill-opacity="1"/><path fill="#00b050" fill-opacity="1" stroke="#00b050" stroke-opacity="1" stroke-width="1" stroke-dasharray="none" stroke-linejoin="miter" stroke-linecap="butt" stroke-dashoffset="" fill-rule="nonzero" opacity="1" marker-start="" marker-mid="" marker-end="" d="M11.581742376122435,4.046850810527573 L14.377441243516275,-2.189708201351001 " id="svg_2" class=""/><path fill="#00b050" fill-opacity="1" stroke="#00b050" stroke-width="1" stroke-dasharray="none" stroke-linejoin="miter" stroke-linecap="butt" stroke-dashoffset="" fill-rule="nonzero" opacity="1" marker-start="" marker-mid="" marker-end="" d="M6.928680986199339,4.046850885033379 L9.724379853593177,-2.1897081268451988 " class="" id="svg_7" stroke-opacity="1"/></g></svg>